<?xml version="1.0" encoding="utf-8"?>
<svg version="1.1" xmlns:xlink="http://www.w3.org/1999/xlink" width="54px" height="56px" xmlns="http://www.w3.org/2000/svg">
  <g transform="matrix(1 0 0 1 -353 -2225 )">
    <path d="M 32.625 39  L 35.96484375 30  L 47.07421875 30  C 47.05078125 30.7125  47.021484375 30.5885416666667  46.986328125 30.428125  C 46.951171875 30.2677083333333  46.921875 30.1583333333333  46.8984375 30.1  L 39.4453125 9  L 14.5546875 9  L 7.1015625 30.1  C 7.078125 30.1875  7.048828125 30.3114583333333  7.013671875 30.471875  C 6.978515625 30.6322916666667  6.94921875 30.7416666666667  6.92578125 30  L 18.03515625 30  L 21.375 39  L 32.625 39  Z M 53.12109375 26.73125  C 53.70703125 28.5104166666667  54 30.3041666666667  54 32.1125  L 54 53.2  C 54 53.9583333333333  53.77734375 54.6145833333333  53.33203125 55.16875  C 52.88671875 55.7229166666667  52.359375 56  51.75 56  L 2.25 56  C 1.640625 56  1.11328125 55.7229166666667  0.66796875 55.16875  C 0.22265625 54.6145833333333  0 53.9583333333333  0 53.2  L 0 32.1125  C 0 30.3041666666667  0.29296875 28.5104166666667  0.87890625 26.73125  L 9.24609375 2.58125  C 9.48046875 1.85208333333333  9.908203125 1.23958333333333  10.529296875 0.743750000000001  C 11.150390625 0.247916666666659  11.765625 0  12.375 0  L 41.625 0  C 42.234375 0  42.849609375 0.247916666666659  43.470703125 0.743750000000001  C 44.091796875 1.23958333333333  44.51953125 1.85208333333333  44.75390625 2.58125  L 53.12109375 26.73125  Z " fill-rule="nonzero" fill="#f59a23" stroke="none" transform="matrix(1 0 0 1 353 2225 )" />
  </g>
</svg>