<?xml version="1.0" encoding="utf-8"?>
<svg version="1.1" xmlns:xlink="http://www.w3.org/1999/xlink" width="52px" height="56px" xmlns="http://www.w3.org/2000/svg">
  <g transform="matrix(1 0 0 1 -514 -1913 )">
    <path d="M 15.9017857142857 2.21875  C 19.1130952380952 0.739583333333333  22.4791666666667 0  26 0  C 29.5208333333333 0  32.8869047619048 0.739583333333333  36.0982142857143 2.21875  C 39.3095238095238 3.69791666666667  42.0758928571429 5.6875  44.3973214285714 8.1875  C 46.71875 10.6875  48.5662202380952 13.6666666666667  49.9397321428571 17.125  C 51.3132440476191 20.5833333333333  52 24.2083333333333  52 28  C 52 31.7708333333333  51.3180803571429 35.3854166666667  49.9542410714286 38.84375  C 48.5904017857143 42.3020833333333  46.7477678571429 45.28125  44.4263392857143 47.78125  C 42.1049107142857 50.28125  39.3385416666667 52.2760416666667  36.1272321428571 53.765625  C 32.9159226190476 55.2552083333333  29.5401785714286 56  26 56  C 22.4598214285714 56  19.0840773809524 55.2604166666667  15.8727678571429 53.78125  C 12.6614583333333 52.3020833333333  9.89992559523809 50.3072916666667  7.58816964285714 47.796875  C 5.27641369047619 45.2864583333333  3.43377976190476 42.3072916666667  2.06026785714286 38.859375  C 0.686755952380952 35.4114583333333  0 31.7916666666667  0 28  C 0 24.2083333333333  0.686755952380952 20.5833333333333  2.06026785714286 17.125  C 3.43377976190476 13.6666666666667  5.28125 10.6875  7.60267857142857 8.1875  C 9.92410714285714 5.6875  12.6904761904762 3.69791666666667  15.9017857142857 2.21875  Z M 35.0825892857143 32  C 39.7254464285714 32  42.6852678571429 35.40625  43.9620535714286 42.21875  C 46.8444940476191 37.9479166666667  48.2857142857143 33.2083333333333  48.2857142857143 28  C 48.2857142857143 24.75  47.6956845238095 21.6458333333333  46.515625 18.6875  C 45.3355654761905 15.7291666666667  43.749255952381 13.1770833333333  41.7566964285714 11.03125  C 39.7641369047619 8.88541666666667  37.3943452380952 7.17708333333333  34.6473214285714 5.90625  C 31.9002976190476 4.63541666666666  29.0178571428571 4  26 4  C 22.9821428571429 4  20.0997023809524 4.63541666666666  17.3526785714286 5.90625  C 14.6056547619048 7.17708333333333  12.2358630952381 8.88541666666667  10.2433035714286 11.03125  C 8.25074404761905 13.1770833333333  6.66443452380952 15.7291666666667  5.484375 18.6875  C 4.30431547619048 21.6458333333333  3.71428571428571 24.75  3.71428571428571 28  C 3.71428571428571 33.2083333333333  5.15550595238095 37.9479166666667  8.03794642857143 42.21875  C 9.31473214285714 35.40625  12.2745535714286 32  16.9174107142857 32  C 19.4516369047619 34.6666666666667  22.4791666666667 36  26 36  C 29.5208333333333 36  32.5483630952381 34.6666666666667  35.0825892857143 32  Z M 33.8783482142857 30.484375  C 36.0546875 28.140625  37.1428571428571 25.3125  37.1428571428571 22  C 37.1428571428571 18.6875  36.0546875 15.859375  33.8783482142857 13.515625  C 31.7020089285714 11.171875  29.0758928571429 10  26 10  C 22.9241071428571 10  20.2979910714286 11.171875  18.1216517857143 13.515625  C 15.9453125 15.859375  14.8571428571429 18.6875  14.8571428571429 22  C 14.8571428571429 25.3125  15.9453125 28.140625  18.1216517857143 30.484375  C 20.2979910714286 32.828125  22.9241071428571 34  26 34  C 29.0758928571429 34  31.7020089285714 32.828125  33.8783482142857 30.484375  Z " fill-rule="nonzero" fill="#f59a23" stroke="none" transform="matrix(1 0 0 1 514 1913 )" />
  </g>
</svg>