<?xml version="1.0" encoding="utf-8"?>
<svg version="1.1" xmlns:xlink="http://www.w3.org/1999/xlink" width="29px" height="33px" xmlns="http://www.w3.org/2000/svg">
  <g transform="matrix(1 0 0 1 -41 -25 )">
    <path d="M 24.1666666666667 9.42857142857143  C 24.1666666666667 11.2332589285714  23.6694878472222 12.9029017857143  22.6751302083333 14.4375  C 23.2667100694444 14.609375  23.8299696180556 14.8426339285714  24.3649088541667 15.1372767857143  C 24.8998480902778 15.4319196428571  25.4599609375 15.8800223214286  26.0452473958333 16.4815848214286  C 26.6305338541667 17.0831473214286  27.130859375 17.7921316964286  27.5462239583333 18.6085379464286  C 27.9615885416667 19.4249441964286  28.3077256944444 20.4807477678571  28.5846354166667 21.7759486607143  C 28.8615451388889 23.0711495535714  29 24.5228794642857  29 26.1311383928571  C 29 28.0217633928571  28.3706597222222 29.6392299107143  27.1119791666667 30.9835379464286  C 25.8532986111111 32.3278459821429  24.3365885416667 33  22.5618489583333 33  L 6.43815104166667 33  C 4.66341145833333 33  3.14670138888889 32.3278459821429  1.88802083333333 30.9835379464286  C 0.629340277777778 29.6392299107143  0 28.0217633928571  0 26.1311383928571  C 0 24.5228794642857  0.138454861111111 23.0711495535714  0.415364583333333 21.7759486607143  C 0.692274305555556 20.4807477678571  1.03841145833333 19.4249441964286  1.45377604166667 18.6085379464286  C 1.869140625 17.7921316964286  2.36946614583333 17.0831473214286  2.95475260416667 16.4815848214286  C 3.5400390625 15.8800223214286  4.10015190972222 15.4319196428571  4.63509114583333 15.1372767857143  C 5.17003038194444 14.8426339285714  5.73328993055556 14.609375  6.32486979166667 14.4375  C 5.33051215277778 12.9029017857143  4.83333333333333 11.2332589285714  4.83333333333333 9.42857142857143  C 4.83333333333333 8.15178571428571  5.08821614583333 6.93331473214286  5.59798177083333 5.77315848214286  C 6.10774739583333 4.61300223214286  6.796875 3.609375  7.66536458333333 2.76227678571428  C 8.53385416666667 1.91517857142857  9.56282552083333 1.24302455357143  10.7522786458333 0.745814732142856  C 11.9417317708333 0.248604910714284  13.1909722222222 0  14.5 0  C 15.8090277777778 0  17.0582682291667 0.248604910714284  18.2477213541667 0.745814732142856  C 19.4371744791667 1.24302455357143  20.4661458333333 1.91517857142857  21.3346354166667 2.76227678571428  C 22.203125 3.609375  22.8922526041667 4.61300223214286  23.4020182291667 5.77315848214286  C 23.9117838541667 6.93331473214286  24.1666666666667 8.15178571428571  24.1666666666667 9.42857142857143  Z M 19.6259765625 4.42885044642857  C 18.2099609375 3.04771205357143  16.5013020833333 2.35714285714286  14.5 2.35714285714286  C 12.4986979166667 2.35714285714286  10.7900390625 3.04771205357143  9.3740234375 4.42885044642857  C 7.9580078125 5.80998883928572  7.25 7.4765625  7.25 9.42857142857143  C 7.25 11.3805803571429  7.9580078125 13.0471540178571  9.3740234375 14.4282924107143  C 10.7900390625 15.8094308035714  12.4986979166667 16.5  14.5 16.5  C 16.5013020833333 16.5  18.2099609375 15.8094308035714  19.6259765625 14.4282924107143  C 21.0419921875 13.0471540178571  21.75 11.3805803571429  21.75 9.42857142857143  C 21.75 7.4765625  21.0419921875 5.80998883928572  19.6259765625 4.42885044642857  Z M 6.43815104166667 30  L 22.5618489583333 30  C 23.6694878472222 30.6428571428571  24.6166449652778 30.2039620535714  25.4033203125 29.326171875  C 26.1899956597222 28.4483816964286  26.5833333333333 27.3833705357143  26.5833333333333 26.1311383928571  C 26.5833333333333 23.1969866071429  26.0893012152778 20.8828125  25.1012369791667 19.1886160714286  C 24.1131727430556 17.4944196428571  22.6940104166667 16.6043526785714  20.84375 16.5184151785714  C 19.0186631944444 18.0775669642857  16.9040798611111 18.8571428571429  14.5 18.8571428571429  C 12.0959201388889 18.8571428571429  9.98133680555556 18.0775669642857  8.15625 16.5184151785714  C 6.30598958333333 16.6043526785714  4.88682725694444 17.4944196428571  3.89876302083333 19.1886160714286  C 2.91069878472222 20.8828125  2.41666666666667 23.1969866071429  2.41666666666667 26.1311383928571  C 2.41666666666667 27.3833705357143  2.81000434027778 28.4483816964286  3.5966796875 29.326171875  C 4.38335503472222 30.2039620535714  5.33051215277778 30.6428571428571  6.43815104166667 30  Z " fill-rule="nonzero" fill="#000000" stroke="none" transform="matrix(1 0 0 1 41 25 )" />
  </g>
</svg>