<?xml version="1.0" encoding="utf-8"?>
<svg version="1.1" xmlns:xlink="http://www.w3.org/1999/xlink" width="106px" height="89px" xmlns="http://www.w3.org/2000/svg">
  <g transform="matrix(1 0 0 1 -38 -182 )">
    <path d="M 38 182  L 144 182  L 144 271  L 38 271  L 38 182  " fill-rule="nonzero" fill="#cccccc" stroke="none" />
    <path d="M 44 188  L 138 188  L 138 265  L 44 265  L 44 188  " fill-rule="nonzero" fill="#ffffff" stroke="none" />
    <path d="M 99.795 208.7  C 96.057 208.7  93.12 205.763  93.12 202.025  C 93.12 198.287  96.057 195.35  99.795 195.35  C 103.533 195.35  106.47 198.287  106.47 202.025  C 106.47 205.763  103.533 208.7  99.795 208.7  " fill-rule="nonzero" fill="#cccccc" stroke="none" />
    <path d="M 46 263  L 46 222.85  L 68.5 204.6  L 100 226.224528301887  L 118 215.55  L 136 226.224528301887  L 136 263  L 46 263  " fill-rule="nonzero" fill="#169bd5" stroke="none" />
  </g>
</svg>