<?xml version="1.0" encoding="utf-8"?>
<svg version="1.1" xmlns:xlink="http://www.w3.org/1999/xlink" width="15px" height="19px" xmlns="http://www.w3.org/2000/svg">
  <g transform="matrix(1 0 0 1 -30 -42 )">
    <path d="M 14.7422680412371 1.14228456913828  C 14.914089347079 1.26920507682031  15 1.41516366065464  15 1.58016032064128  C 15 1.74515698062792  14.914089347079 1.89111556446226  14.7422680412371 2.01803607214429  L 4.61340206185567 9.5  L 14.7422680412371 16.9819639278557  C 14.914089347079 17.1088844355377  15 17.2548430193721  15 17.4198396793587  C 15 17.5848363393454  14.914089347079 17.7307949231797  14.7422680412371 17.8577154308617  L 13.4536082474227 18.809619238477  C 13.2817869415808 18.936539746159  13.0841924398625 19  12.860824742268 19  C 12.6374570446735 19  12.4398625429553 18.936539746159  12.2680412371134 18.809619238477  L 0.257731958762887 9.93787575150301  C 0.0859106529209623 9.81095524382097  0 9.66499665998664  0 9.5  C 0 9.33500334001336  0.0859106529209623 9.18904475617902  0.257731958762887 9.06212424849699  L 12.2680412371134 0.190380761523046  C 12.4398625429553 0.0634602538410147  12.6374570446735 0  12.860824742268 0  C 13.0841924398625 0  13.2817869415808 0.0634602538410147  13.4536082474227 0.190380761523046  L 14.7422680412371 1.14228456913828  Z " fill-rule="nonzero" fill="#ffffff" stroke="none" transform="matrix(1 0 0 1 30 42 )" />
  </g>
</svg>