<?xml version="1.0" encoding="utf-8"?>
<svg version="1.1" xmlns:xlink="http://www.w3.org/1999/xlink" width="272px" height="117px" xmlns="http://www.w3.org/2000/svg">
  <g transform="matrix(1 0 0 1 -22 -740 )">
    <path d="M 22 740  L 294 740  L 294 857  L 22 857  L 22 740  " fill-rule="nonzero" fill="#cccccc" stroke="none" />
    <path d="M 30 748  L 286 748  L 286 849  L 30 849  L 30 748  " fill-rule="nonzero" fill="#ffffff" stroke="none" />
    <path d="M 172.215 775.1  C 167.301 775.1  163.44 771.239  163.44 766.325  C 163.44 761.411  167.301 757.55  172.215 757.55  C 177.129 757.55  180.99 761.411  180.99 766.325  C 180.99 771.239  177.129 775.1  172.215 775.1  " fill-rule="nonzero" fill="#cccccc" stroke="none" />
    <path d="M 33 846  L 33 793.75  L 95.5 770  L 183 821.481617647059  L 233 784.25  L 283 821.481617647059  L 283 846  L 33 846  " fill-rule="nonzero" fill="#169bd5" stroke="none" />
  </g>
</svg>