<?xml version="1.0" encoding="utf-8"?>
<svg version="1.1" xmlns:xlink="http://www.w3.org/1999/xlink" width="257px" height="126px" xmlns="http://www.w3.org/2000/svg">
  <g transform="matrix(1 0 0 1 -319 -740 )">
    <path d="M 319 740  L 576 740  L 576 866  L 319 866  L 319 740  " fill-rule="nonzero" fill="#cccccc" stroke="none" />
    <path d="M 328 749  L 567 749  L 567 857  L 328 857  L 328 749  " fill-rule="nonzero" fill="#ffffff" stroke="none" />
    <path d="M 462.09 777.8  C 456.798 777.8  452.64 773.642  452.64 768.35  C 452.64 763.058  456.798 758.9  462.09 758.9  C 467.382 758.9  471.54 763.058  471.54 768.35  C 471.54 773.642  467.382 777.8  462.09 777.8  " fill-rule="nonzero" fill="#cccccc" stroke="none" />
    <path d="M 331 854  L 331 797.9  L 389.25 772.4  L 470.8 823.9953307393  L 517.4 787.7  L 564 823.9953307393  L 564 854  L 331 854  " fill-rule="nonzero" fill="#169bd5" stroke="none" />
  </g>
</svg>