<?xml version="1.0" encoding="utf-8"?>
<svg version="1.1" xmlns:xlink="http://www.w3.org/1999/xlink" width="12px" height="12px" viewBox="538 293.5  12 12" xmlns="http://www.w3.org/2000/svg">
  <path d="M 544 293.5  C 547.36 293.5  550 296.14  550 299.5  C 550 302.86  547.36 305.5  544 305.5  C 540.64 305.5  538 302.86  538 299.5  C 538 296.14  540.64 293.5  544 293.5  Z " fill-rule="nonzero" fill="#ffffff" stroke="none" />
  <path d="M 544 294  C 547.08 294  549.5 296.42  549.5 299.5  C 549.5 302.58  547.08 305  544 305  C 540.92 305  538.5 302.58  538.5 299.5  C 538.5 296.42  540.92 294  544 294  Z " stroke-width="1" stroke="#797979" fill="none" />
  <path d="M 544 302.5  C 542.32 302.5  541 301.18  541 299.5  C 541 297.82  542.32 296.5  544 296.5  C 545.68 296.5  547 297.82  547 299.5  C 547 301.18  545.68 302.5  544 302.5  " fill-rule="nonzero" fill="#797979" stroke="none" />
</svg>