<?xml version="1.0" encoding="utf-8"?>
<svg version="1.1" xmlns:xlink="http://www.w3.org/1999/xlink" width="12px" height="12px" viewBox="738 293.5  12 12" xmlns="http://www.w3.org/2000/svg">
  <path d="M 744 293.5  C 747.36 293.5  750 296.14  750 299.5  C 750 302.86  747.36 305.5  744 305.5  C 740.64 305.5  738 302.86  738 299.5  C 738 296.14  740.64 293.5  744 293.5  Z " fill-rule="nonzero" fill="#ffffff" stroke="none" />
  <path d="M 744 294  C 747.08 294  749.5 296.42  749.5 299.5  C 749.5 302.58  747.08 305  744 305  C 740.92 305  738.5 302.58  738.5 299.5  C 738.5 296.42  740.92 294  744 294  Z " stroke-width="1" stroke="#797979" fill="none" />
  <path d="M 744 302.5  C 742.32 302.5  741 301.18  741 299.5  C 741 297.82  742.32 296.5  744 296.5  C 745.68 296.5  747 297.82  747 299.5  C 747 301.18  745.68 302.5  744 302.5  " fill-rule="nonzero" fill="#797979" stroke="none" />
</svg>