<?xml version="1.0" encoding="utf-8"?>
<svg version="1.1" xmlns:xlink="http://www.w3.org/1999/xlink" width="24px" height="15px" xmlns="http://www.w3.org/2000/svg">
  <g transform="matrix(1 0 0 1 -1177 -262 )">
    <path d="M 23.4343434343434 11.2121212121212  C 23.8114478114478 11.4478114478114  24 11.7340067340067  24 12.0707070707071  C 24 12.4074074074074  23.8114478114478 12.6936026936027  23.4343434343434 12.9292929292929  L 20.6868686868687 14.6464646464646  C 20.3097643097643 14.8821548821549  19.8518518518519 15  19.3131313131313 15  C 18.7744107744108 15  18.3164983164983 14.8821548821549  17.9393939393939 14.6464646464646  L 12 10.9343434343434  L 6.06060606060606 14.6464646464646  C 5.68350168350168 14.8821548821549  5.22558922558923 15  4.68686868686869 15  C 4.14814814814815 15  3.69023569023569 14.8821548821549  3.31313131313131 14.6464646464646  L 0.565656565656566 12.9292929292929  C 0.188552188552189 12.6936026936027  0 12.4074074074074  0 12.0707070707071  C 0 11.7340067340067  0.188552188552189 11.4478114478114  0.565656565656566 11.2121212121212  L 6.50505050505051 7.5  L 0.565656565656566 3.78787878787879  C 0.188552188552189 3.55218855218855  0 3.26599326599327  0 2.92929292929293  C 0 2.59259259259259  0.188552188552189 2.3063973063973  0.565656565656566 2.07070707070707  L 3.31313131313131 0.353535353535354  C 3.69023569023569 0.117845117845117  4.14814814814815 0  4.68686868686869 0  C 5.22558922558923 0  5.68350168350168 0.117845117845117  6.06060606060606 0.353535353535354  L 12 4.06565656565657  L 17.9393939393939 0.353535353535354  C 18.3164983164983 0.117845117845117  18.7744107744108 0  19.3131313131313 0  C 19.8518518518519 0  20.3097643097643 0.117845117845117  20.6868686868687 0.353535353535354  L 23.4343434343434 2.07070707070707  C 23.8114478114478 2.3063973063973  24 2.59259259259259  24 2.92929292929293  C 24 3.26599326599327  23.8114478114478 3.55218855218855  23.4343434343434 3.78787878787879  L 17.4949494949495 7.5  L 23.4343434343434 11.2121212121212  Z " fill-rule="nonzero" fill="#000000" stroke="none" transform="matrix(1 0 0 1 1177 262 )" />
  </g>
</svg>