<?xml version="1.0" encoding="utf-8"?>
<svg version="1.1" xmlns:xlink="http://www.w3.org/1999/xlink" width="300px" height="161px" xmlns="http://www.w3.org/2000/svg">
  <g transform="matrix(1 0 0 1 -652 -740 )">
    <path d="M 652 740  L 952 740  L 952 901  L 652 901  L 652 740  " fill-rule="nonzero" fill="#cccccc" stroke="none" />
    <path d="M 663 751  L 941 751  L 941 890  L 663 890  L 663 751  " fill-rule="nonzero" fill="#ffffff" stroke="none" />
    <path d="M 820.075 788.3  C 813.313 788.3  808 782.987  808 776.225  C 808 769.463  813.313 764.15  820.075 764.15  C 826.837 764.15  832.15 769.463  832.15 776.225  C 832.15 782.987  826.837 788.3  820.075 788.3  " fill-rule="nonzero" fill="#cccccc" stroke="none" />
    <path d="M 667 886  L 667 813.95  L 734.5 781.2  L 829 843.818  L 883 800.85  L 937 843.818  L 937 886  L 667 886  " fill-rule="nonzero" fill="#169bd5" stroke="none" />
  </g>
</svg>