<?xml version="1.0" encoding="utf-8"?>
<svg version="1.1" xmlns:xlink="http://www.w3.org/1999/xlink" width="230px" height="20px" xmlns="http://www.w3.org/2000/svg">
  <defs>
    <mask fill="white" id="clip6">
      <path d="M 0 20  L 0 0  L 52.543209876541 0  L 77.2345679012323 0  L 230 0  L 230 20  L 0 20  Z " fill-rule="evenodd" />
    </mask>
  </defs>
  <g transform="matrix(1 0 0 1 -24 -144 )">
    <path d="M 0 20  L 0 0  L 52.543209876541 0  L 77.2345679012323 0  L 230 0  L 230 20  L 0 20  Z " fill-rule="nonzero" fill="#ffffff" stroke="none" fill-opacity="0" transform="matrix(1 0 0 1 24 144 )" />
    <path d="M 0 20  L 0 0  L 52.543209876541 0  L 77.2345679012323 0  L 230 0  L 230 20  L 0 20  Z " stroke-width="2" stroke="#797979" fill="none" transform="matrix(1 0 0 1 24 144 )" mask="url(#clip6)" />
  </g>
</svg>