<?xml version="1.0" encoding="utf-8"?>
<svg version="1.1" xmlns:xlink="http://www.w3.org/1999/xlink" width="28px" height="25px" xmlns="http://www.w3.org/2000/svg">
  <g transform="matrix(1 0 0 1 -550 -340 )">
    <path d="M 2.15384615384615 19.1964285714286  L 2.15384615384615 23.2142857142857  L 7 23.2142857142857  L 7 19.1964285714286  L 2.15384615384615 19.1964285714286  Z M 8.07692307692308 19.1964285714286  L 8.07692307692308 23.2142857142857  L 13.4615384615385 23.2142857142857  L 13.4615384615385 19.1964285714286  L 8.07692307692308 19.1964285714286  Z M 2.15384615384615 13.8392857142857  L 2.15384615384615 18.3035714285714  L 7 18.3035714285714  L 7 13.8392857142857  L 2.15384615384615 13.8392857142857  Z M 8.07692307692308 13.8392857142857  L 8.07692307692308 18.3035714285714  L 13.4615384615385 18.3035714285714  L 13.4615384615385 13.8392857142857  L 8.07692307692308 13.8392857142857  Z M 2.15384615384615 8.92857142857143  L 2.15384615384615 12.9464285714286  L 7 12.9464285714286  L 7 8.92857142857143  L 2.15384615384615 8.92857142857143  Z M 14.5384615384615 19.1964285714286  L 14.5384615384615 23.2142857142857  L 19.9230769230769 23.2142857142857  L 19.9230769230769 19.1964285714286  L 14.5384615384615 19.1964285714286  Z M 8.07692307692308 8.92857142857143  L 8.07692307692308 12.9464285714286  L 13.4615384615385 12.9464285714286  L 13.4615384615385 8.92857142857143  L 8.07692307692308 8.92857142857143  Z M 21 19.1964285714286  L 21 23.2142857142857  L 25.8461538461538 23.2142857142857  L 25.8461538461538 19.1964285714286  L 21 19.1964285714286  Z M 14.5384615384615 13.8392857142857  L 14.5384615384615 18.3035714285714  L 19.9230769230769 18.3035714285714  L 19.9230769230769 13.8392857142857  L 14.5384615384615 13.8392857142857  Z M 8.45552884615385 6.56389508928572  C 8.56209935897436 6.47553943452381  8.61538461538462 6.37090773809524  8.61538461538462 6.25  L 8.61538461538462 2.23214285714286  C 8.61538461538462 2.11123511904762  8.56209935897436 2.00660342261905  8.45552884615385 1.91824776785714  C 8.34895833333333 1.82989211309524  8.22275641025641 1.78571428571428  8.07692307692308 1.78571428571428  L 7 1.78571428571428  C 6.85416666666667 1.78571428571428  6.72796474358974 1.82989211309524  6.62139423076923 1.91824776785714  C 6.51482371794872 2.00660342261905  6.46153846153846 2.11123511904762  6.46153846153846 2.23214285714286  L 6.46153846153846 6.25  C 6.46153846153846 6.37090773809524  6.51482371794872 6.47553943452381  6.62139423076923 6.56389508928572  C 6.72796474358974 6.65225074404762  6.85416666666667 6.69642857142857  7 6.69642857142857  L 8.07692307692308 6.69642857142857  C 8.22275641025641 6.69642857142857  8.34895833333333 6.65225074404762  8.45552884615385 6.56389508928572  Z M 21 13.8392857142857  L 21 18.3035714285714  L 25.8461538461538 18.3035714285714  L 25.8461538461538 13.8392857142857  L 21 13.8392857142857  Z M 14.5384615384615 8.92857142857143  L 14.5384615384615 12.9464285714286  L 19.9230769230769 12.9464285714286  L 19.9230769230769 8.92857142857143  L 14.5384615384615 8.92857142857143  Z M 21 8.92857142857143  L 21 12.9464285714286  L 25.8461538461538 12.9464285714286  L 25.8461538461538 8.92857142857143  L 21 8.92857142857143  Z M 21.3786057692308 6.56389508928572  C 21.4851762820513 6.47553943452381  21.5384615384615 6.37090773809524  21.5384615384615 6.25  L 21.5384615384615 2.23214285714286  C 21.5384615384615 2.11123511904762  21.4851762820513 2.00660342261905  21.3786057692308 1.91824776785714  C 21.2720352564103 1.82989211309524  21.1458333333333 1.78571428571428  21 1.78571428571428  L 19.9230769230769 1.78571428571428  C 19.7772435897436 1.78571428571428  19.6510416666667 1.82989211309524  19.5444711538462 1.91824776785714  C 19.4379006410256 2.00660342261905  19.3846153846154 2.11123511904762  19.3846153846154 2.23214285714286  L 19.3846153846154 6.25  C 19.3846153846154 6.37090773809524  19.4379006410256 6.47553943452381  19.5444711538462 6.56389508928572  C 19.6510416666667 6.65225074404762  19.7772435897436 6.69642857142857  19.9230769230769 6.69642857142857  L 21 6.69642857142857  C 21.1458333333333 6.69642857142857  21.2720352564103 6.65225074404762  21.3786057692308 6.56389508928572  Z M 27.3605769230769 4.1015625  C 27.786858974359 4.45498511904762  28 4.8735119047619  28 5.35714285714286  L 28 23.2142857142857  C 28 23.6979166666667  27.786858974359 24.116443452381  27.3605769230769 24.4698660714286  C 26.9342948717949 24.8232886904762  26.4294871794872 25  25.8461538461538 25  L 2.15384615384615 25  C 1.57051282051282 25  1.06570512820513 24.8232886904762  0.639423076923077 24.4698660714286  C 0.213141025641026 24.116443452381  0 23.6979166666667  0 23.2142857142857  L 0 5.35714285714286  C 0 4.8735119047619  0.213141025641026 4.45498511904762  0.639423076923077 4.1015625  C 1.06570512820513 3.74813988095238  1.57051282051282 3.57142857142857  2.15384615384615 3.57142857142857  L 4.30769230769231 3.57142857142857  L 4.30769230769231 2.23214285714286  C 4.30769230769231 1.61830357142857  4.5713141025641 1.09281994047619  5.09855769230769 0.655691964285715  C 5.62580128205128 0.218563988095238  6.25961538461539 0  7 0  L 8.07692307692308 0  C 8.81730769230769 0  9.4511217948718 0.218563988095238  9.97836538461538 0.655691964285715  C 10.505608974359 1.09281994047619  10.7692307692308 1.61830357142857  10.7692307692308 2.23214285714286  L 10.7692307692308 3.57142857142857  L 17.2307692307692 3.57142857142857  L 17.2307692307692 2.23214285714286  C 17.2307692307692 1.61830357142857  17.494391025641 1.09281994047619  18.0216346153846 0.655691964285715  C 18.5488782051282 0.218563988095238  19.1826923076923 0  19.9230769230769 0  L 21 0  C 21.7403846153846 0  22.3741987179487 0.218563988095238  22.9014423076923 0.655691964285715  C 23.4286858974359 1.09281994047619  23.6923076923077 1.61830357142857  23.6923076923077 2.23214285714286  L 23.6923076923077 3.57142857142857  L 25.8461538461538 3.57142857142857  C 26.4294871794872 3.57142857142857  26.9342948717949 3.74813988095238  27.3605769230769 4.1015625  Z " fill-rule="nonzero" fill="#000000" stroke="none" transform="matrix(1 0 0 1 550 340 )" />
  </g>
</svg>