<?xml version="1.0" encoding="utf-8"?>
<svg version="1.1" xmlns:xlink="http://www.w3.org/1999/xlink" width="214px" height="145px" xmlns="http://www.w3.org/2000/svg">
  <g transform="matrix(1 0 0 1 -83 -868 )">
    <path d="M 83 868  L 297 868  L 297 1013  L 83 1013  L 83 868  " fill-rule="nonzero" fill="#cccccc" stroke="none" />
    <path d="M 93 878  L 287 878  L 287 1003  L 93 1003  L 93 878  " fill-rule="nonzero" fill="#ffffff" stroke="none" />
    <path d="M 205.155 911.5  C 199.065 911.5  194.28 906.715  194.28 900.625  C 194.28 894.535  199.065 889.75  205.155 889.75  C 211.245 889.75  216.03 894.535  216.03 900.625  C 216.03 906.715  211.245 911.5  205.155 911.5  " fill-rule="nonzero" fill="#cccccc" stroke="none" />
    <path d="M 97 1000  L 97 935.1  L 143.75 905.6  L 209.2 952.028037383178  L 246.6 923.3  L 284 952.028037383178  L 284 1000  L 97 1000  " fill-rule="nonzero" fill="#169bd5" stroke="none" />
  </g>
</svg>