<?xml version="1.0" encoding="utf-8"?>
<svg version="1.1" xmlns:xlink="http://www.w3.org/1999/xlink" width="34px" height="28px" xmlns="http://www.w3.org/2000/svg">
  <g transform="matrix(1 0 0 1 -1411 -649 )">
    <path d="M 27.6008522727273 12.90625  C 27.7457386363636 13.0255681818182  27.8181818181818 13.1780303030303  27.8181818181818 13.3636363636364  L 27.8181818181818 14.6363636363636  C 27.8181818181818 14.8219696969697  27.7457386363636 14.9744318181818  27.6008522727273 15.09375  C 27.4559659090909 15.2130681818182  27.2708333333333 15.2727272727273  27.0454545454545 15.2727272727273  L 18.5454545454545 15.2727272727273  L 18.5454545454545 22.2727272727273  C 18.5454545454545 22.4583333333333  18.4730113636364 22.6107954545455  18.328125 22.7301136363636  C 18.1832386363636 22.8494318181818  17.9981060606061 22.9090909090909  17.7727272727273 22.9090909090909  L 16.2272727272727 22.9090909090909  C 16.0018939393939 22.9090909090909  15.8167613636364 22.8494318181818  15.671875 22.7301136363636  C 15.5269886363636 22.6107954545455  15.4545454545455 22.4583333333333  15.4545454545455 22.2727272727273  L 15.4545454545455 15.2727272727273  L 6.95454545454546 15.2727272727273  C 6.72916666666667 15.2727272727273  6.54403409090909 15.2130681818182  6.39914772727273 15.09375  C 6.25426136363636 14.9744318181818  6.18181818181818 14.8219696969697  6.18181818181818 14.6363636363636  L 6.18181818181818 13.3636363636364  C 6.18181818181818 13.1780303030303  6.25426136363636 13.0255681818182  6.39914772727273 12.90625  C 6.54403409090909 12.7869318181818  6.72916666666667 12.7272727272727  6.95454545454546 12.7272727272727  L 15.4545454545455 12.7272727272727  L 15.4545454545455 5.72727272727273  C 15.4545454545455 5.54166666666666  15.5269886363636 5.38920454545455  15.671875 5.26988636363636  C 15.8167613636364 5.15056818181818  16.0018939393939 5.09090909090909  16.2272727272727 5.09090909090909  L 17.7727272727273 5.09090909090909  C 17.9981060606061 5.09090909090909  18.1832386363636 5.15056818181818  18.328125 5.26988636363636  C 18.4730113636364 5.38920454545455  18.5454545454545 5.54166666666666  18.5454545454545 5.72727272727273  L 18.5454545454545 12.7272727272727  L 27.0454545454545 12.7272727272727  C 27.2708333333333 12.7272727272727  27.4559659090909 12.7869318181818  27.6008522727273 12.90625  Z M 29.7741477272727 24.5198863636364  C 30.5307765151515 23.8967803030303  30.9090909090909 23.1477272727273  31 22.2727272727273  L 31 5.72727272727273  C 30.9090909090909 4.85227272727273  30.5307765151515 4.1032196969697  29.7741477272727 3.48011363636364  C 29.0175189393939 2.85700757575757  28.1079545454545 2.54545454545455  27.0454545454545 3  L 6.95454545454546 3  C 5.89204545454546 2.54545454545455  4.98248106060606 2.85700757575757  4.22585227272727 3.48011363636364  C 3.46922348484849 4.1032196969697  3.09090909090909 4.85227272727273  3 5.72727272727273  L 3 22.2727272727273  C 3.09090909090909 23.1477272727273  3.46922348484849 23.8967803030303  4.22585227272727 24.5198863636364  C 4.98248106060606 25.1429924242424  5.89204545454546 25.4545454545455  6.95454545454546 25  L 27.0454545454545 25  C 28.1079545454545 25.4545454545455  29.0175189393939 25.1429924242424  29.7741477272727 24.5198863636364  Z M 31.9595170454545 1.68039772727273  C 33.3198390151515 2.80066287878788  34 4.14962121212121  34 5.72727272727273  L 34 22.2727272727273  C 34 23.8503787878788  33.3198390151515 25.1993371212121  31.9595170454545 26.3196022727273  C 30.5991950757576 27.4398674242424  28.9611742424242 28  27.0454545454545 28  L 6.95454545454546 28  C 5.03882575757576 28  3.40080492424242 27.4398674242424  2.04048295454545 26.3196022727273  C 0.680160984848485 25.1993371212121  0 23.8503787878788  0 22.2727272727273  L 0 5.72727272727273  C 0 4.14962121212121  0.680160984848485 2.80066287878788  2.04048295454545 1.68039772727273  C 3.40080492424242 0.560132575757573  5.03882575757576 0  6.95454545454546 0  L 27.0454545454545 0  C 28.9611742424242 0  30.5991950757576 0.560132575757573  31.9595170454545 1.68039772727273  Z " fill-rule="nonzero" fill="#000000" stroke="none" transform="matrix(1 0 0 1 1411 649 )" />
  </g>
</svg>