<?xml version="1.0" encoding="utf-8"?>
<svg version="1.1" xmlns:xlink="http://www.w3.org/1999/xlink" width="21px" height="19px" xmlns="http://www.w3.org/2000/svg">
  <g transform="matrix(1 0 0 1 -456 -332 )">
    <path d="M 20.5050505050505 14.2020202020202  C 20.8350168350168 14.5005611672278  21 14.8630751964085  21 15.2895622895623  C 21 15.7160493827161  20.8350168350168 16.0785634118967  20.5050505050505 16.3771043771044  L 18.1010101010101 18.5521885521886  C 17.7710437710438 18.8507295173962  17.3703703703704 19  16.8989898989899 19  C 16.4276094276094 19  16.026936026936 18.8507295173962  15.6969696969697 18.5521885521886  L 10.5 13.8501683501684  L 5.3030303030303 18.5521885521886  C 4.97306397306397 18.8507295173962  4.57239057239057 19  4.1010101010101 19  C 3.62962962962963 19  3.22895622895623 18.8507295173962  2.8989898989899 18.5521885521886  L 0.494949494949495 16.3771043771044  C 0.164983164983165 16.0785634118967  0 15.7160493827161  0 15.2895622895623  C 0 14.8630751964085  0.164983164983165 14.5005611672278  0.494949494949495 14.2020202020202  L 5.69191919191919 9.5  L 0.494949494949495 4.7979797979798  C 0.164983164983165 4.49943883277216  0 4.13692480359147  0 3.71043771043771  C 0 3.28395061728395  0.164983164983165 2.92143658810325  0.494949494949495 2.62289562289562  L 2.8989898989899 0.447811447811448  C 3.22895622895623 0.149270482603815  3.62962962962963 0  4.1010101010101 0  C 4.57239057239057 0  4.97306397306397 0.149270482603815  5.3030303030303 0.447811447811448  L 10.5 5.14983164983165  L 15.6969696969697 0.447811447811448  C 16.026936026936 0.149270482603815  16.4276094276094 0  16.8989898989899 0  C 17.3703703703704 0  17.7710437710438 0.149270482603815  18.1010101010101 0.447811447811448  L 20.5050505050505 2.62289562289562  C 20.8350168350168 2.92143658810325  21 3.28395061728395  21 3.71043771043771  C 21 4.13692480359147  20.8350168350168 4.49943883277216  20.5050505050505 4.7979797979798  L 15.3080808080808 9.5  L 20.5050505050505 14.2020202020202  Z " fill-rule="nonzero" fill="#000000" stroke="none" transform="matrix(1 0 0 1 456 332 )" />
  </g>
</svg>