<?xml version="1.0" encoding="utf-8"?>
<svg version="1.1" xmlns:xlink="http://www.w3.org/1999/xlink" width="75px" height="69px" xmlns="http://www.w3.org/2000/svg">
  <g transform="matrix(1 0 0 1 -262 -17 )">
    <path d="M 299.5 17  C 320.5 17  337 32.18  337 51.5  C 337 70.82  320.5 86  299.5 86  C 278.5 86  262 70.82  262 51.5  C 262 32.18  278.5 17  299.5 17  Z " fill-rule="nonzero" fill="#aaaaaa" stroke="none" />
    <path d="M 299.5 17.5  C 320.22 17.5  336.5 32.46  336.5 51.5  C 336.5 70.54  320.22 85.5  299.5 85.5  C 278.78 85.5  262.5 70.54  262.5 51.5  C 262.5 32.46  278.78 17.5  299.5 17.5  Z " stroke-width="1" stroke="#797979" fill="none" />
  </g>
</svg>