<?xml version="1.0" encoding="utf-8"?>
<svg version="1.1" xmlns:xlink="http://www.w3.org/1999/xlink" width="37px" height="40px" xmlns="http://www.w3.org/2000/svg">
  <g transform="matrix(1 0 0 1 -281 -32 )">
    <path d="M 30.8333333333333 11.4285714285714  C 30.8333333333333 13.6160714285714  30.1990017361111 15.6398809523809  28.9303385416667 17.5  C 29.6851128472222 17.7083333333333  30.4037543402778 17.9910714285714  31.0862630208333 18.3482142857143  C 31.7687717013889 18.7053571428571  32.4833984375 19.2485119047619  33.2301432291667 19.9776785714286  C 33.9768880208333 20.7068452380952  34.615234375 21.5662202380952  35.1451822916667 22.5558035714286  C 35.6751302083333 23.5453869047619  36.1167534722222 24.8251488095238  36.4700520833333 26.3950892857143  C 36.8233506944444 27.9650297619048  37 29.7247023809524  37 31.6741071428571  C 37 33.9657738095238  36.1970486111111 35.9263392857143  34.5911458333333 37.5558035714286  C 32.9852430555556 39.1852678571429  31.0501302083333 40  28.7858072916667 40  L 8.21419270833333 40  C 5.94986979166667 40  4.01475694444444 39.1852678571429  2.40885416666667 37.5558035714286  C 0.802951388888889 35.9263392857143  0 33.9657738095238  0 31.6741071428571  C 0 29.7247023809524  0.176649305555556 27.9650297619048  0.529947916666667 26.3950892857143  C 0.883246527777778 24.8251488095238  1.32486979166667 23.5453869047619  1.85481770833333 22.5558035714286  C 2.384765625 21.5662202380952  3.02311197916667 20.7068452380952  3.76985677083333 19.9776785714286  C 4.5166015625 19.2485119047619  5.23122829861111 18.7053571428571  5.91373697916667 18.3482142857143  C 6.59624565972222 17.9910714285714  7.31488715277778 17.7083333333333  8.06966145833333 17.5  C 6.80099826388889 15.6398809523809  6.16666666666667 13.6160714285714  6.16666666666667 11.4285714285714  C 6.16666666666667 9.88095238095238  6.49186197916667 8.40401785714286  7.14225260416667 6.99776785714286  C 7.79264322916667 5.59151785714286  8.671875 4.375  9.77994791666667 3.34821428571428  C 10.8880208333333 2.32142857142857  12.2008463541667 1.50669642857143  13.7184244791667 0.904017857142856  C 15.2360026041667 0.301339285714284  16.8298611111111 0  18.5 0  C 20.1701388888889 0  21.7639973958333 0.301339285714284  23.2815755208333 0.904017857142856  C 24.7991536458333 1.50669642857143  26.1119791666667 2.32142857142857  27.2200520833333 3.34821428571428  C 28.328125 4.375  29.2073567708333 5.59151785714286  29.8577473958333 6.99776785714286  C 30.5081380208333 8.40401785714286  30.8333333333333 9.88095238095238  30.8333333333333 11.4285714285714  Z M 25.0400390625 5.36830357142857  C 23.2333984375 3.69419642857143  21.0533854166667 2.85714285714286  18.5 2.85714285714286  C 15.9466145833333 2.85714285714286  13.7666015625 3.69419642857143  11.9599609375 5.36830357142857  C 10.1533203125 7.04241071428572  9.25 9.0625  9.25 11.4285714285714  C 9.25 13.7946428571429  10.1533203125 15.8147321428571  11.9599609375 17.4888392857143  C 13.7666015625 19.1629464285714  15.9466145833333 20  18.5 20  C 21.0533854166667 20  23.2333984375 19.1629464285714  25.0400390625 17.4888392857143  C 26.8466796875 15.8147321428571  27.75 13.7946428571429  27.75 11.4285714285714  C 27.75 9.0625  26.8466796875 7.04241071428572  25.0400390625 5.36830357142857  Z M 8.21419270833333 37  L 28.7858072916667 37  C 30.1990017361111 37.1428571428571  31.4074435763889 36.6108630952381  32.4111328125 35.546875  C 33.4148220486111 34.4828869047619  33.9166666666667 33.1919642857143  33.9166666666667 31.6741071428571  C 33.9166666666667 28.1175595238095  33.2863498263889 25.3125  32.0257161458333 23.2589285714286  C 30.7650824652778 21.2053571428571  28.9544270833333 20.1264880952381  26.59375 20.0223214285714  C 24.2651909722222 21.9122023809524  21.5672743055556 22.8571428571429  18.5 22.8571428571429  C 15.4327256944444 22.8571428571429  12.7348090277778 21.9122023809524  10.40625 20.0223214285714  C 8.04557291666667 20.1264880952381  6.23491753472222 21.2053571428571  4.97428385416667 23.2589285714286  C 3.71365017361111 25.3125  3.08333333333333 28.1175595238095  3.08333333333333 31.6741071428571  C 3.08333333333333 33.1919642857143  3.58517795138889 34.4828869047619  4.5888671875 35.546875  C 5.59255642361111 36.6108630952381  6.80099826388889 37.1428571428571  8.21419270833333 37  Z " fill-rule="nonzero" fill="#000000" stroke="none" transform="matrix(1 0 0 1 281 32 )" />
  </g>
</svg>