<?xml version="1.0" encoding="utf-8"?>
<svg version="1.1" xmlns:xlink="http://www.w3.org/1999/xlink" width="26px" height="22px" xmlns="http://www.w3.org/2000/svg">
  <g transform="matrix(1 0 0 1 -317 -60 )">
    <path d="M 10.2442708333333 10.0018028846154  C 11.0071180555556 9.25701121794872  11.9256944444444 8.88461538461538  13 8.88461538461539  C 14.0743055555556 8.88461538461538  14.9928819444444 9.25701121794872  15.7557291666667 10.0018028846154  C 16.5185763888889 10.7465945512821  16.9 11.6434294871795  16.9 12.6923076923077  C 16.9 13.7411858974359  16.5185763888889 14.6380208333333  15.7557291666667 15.3828125  C 14.9928819444444 16.1276041666667  14.0743055555556 16.5  13 16.5  C 11.9256944444444 16.5  11.0071180555556 16.1276041666667  10.2442708333333 15.3828125  C 9.48142361111111 14.6380208333333  9.1 13.7411858974359  9.1 12.6923076923077  C 9.1 11.6434294871795  9.48142361111111 10.7465945512821  10.2442708333333 10.0018028846154  Z M 19.5 3.38461538461539  L 22.5333333333333 3.38461538461539  C 23.4902777777778 3.38461538461539  24.3072916666667 3.71514423076923  24.984375 4.37620192307692  C 25.6614583333333 5.03725961538462  26 5.8349358974359  26 6.76923076923077  L 26 18.6153846153846  C 26 19.5496794871795  25.6614583333333 20.3473557692308  24.984375 21.0084134615385  C 24.3072916666667 21.6694711538462  23.4902777777778 22  22.5333333333333 22  L 3.46666666666667 22  C 2.50972222222222 22  1.69270833333333 21.6694711538462  1.015625 21.0084134615385  C 0.338541666666667 20.3473557692308  0 19.5496794871795  0 18.6153846153846  L 0 6.76923076923077  C 0 5.8349358974359  0.338541666666667 5.03725961538462  1.015625 4.37620192307692  C 1.69270833333333 3.71514423076923  2.50972222222222 3.38461538461539  3.46666666666667 3.38461538461539  L 6.5 3.38461538461539  L 7.190625 1.58653846153846  C 7.36215277777778 1.15464743589744  7.67586805555556 0.782251602564101  8.13177083333333 0.469350961538461  C 8.58767361111111 0.156450320512823  9.05486111111111 0  9.53333333333333 0  L 16.4666666666667 0  C 16.9451388888889 0  17.4123263888889 0.156450320512823  17.8682291666667 0.469350961538461  C 18.3241319444444 0.782251602564101  18.6378472222222 1.15464743589744  18.809375 1.58653846153846  L 19.5 3.38461538461539  Z M 8.7140625 16.8768028846154  C 9.90121527777778 18.0358573717949  11.3298611111111 18.6153846153846  13 18.6153846153846  C 14.6701388888889 18.6153846153846  16.0987847222222 18.0358573717949  17.2859375 16.8768028846154  C 18.4730902777778 15.7177483974359  19.0666666666667 14.3229166666667  19.0666666666667 12.6923076923077  C 19.0666666666667 11.0616987179487  18.4730902777778 9.66686698717949  17.2859375 8.5078125  C 16.0987847222222 7.34875801282051  14.6701388888889 6.76923076923077  13 6.76923076923077  C 11.3298611111111 6.76923076923077  9.90121527777778 7.34875801282051  8.7140625 8.5078125  C 7.52690972222222 9.66686698717949  6.93333333333333 11.0616987179487  6.93333333333333 12.6923076923077  C 6.93333333333333 14.3229166666667  7.52690972222222 15.7177483974359  8.7140625 16.8768028846154  Z " fill-rule="nonzero" fill="#f2f2f2" stroke="none" transform="matrix(1 0 0 1 317 60 )" />
  </g>
</svg>