<?xml version="1.0" encoding="utf-8"?>
<svg version="1.1" xmlns:xlink="http://www.w3.org/1999/xlink" width="12px" height="12px" viewBox="588 311.5  12 12" xmlns="http://www.w3.org/2000/svg">
  <path d="M 594 311.5  C 597.36 311.5  600 314.14  600 317.5  C 600 320.86  597.36 323.5  594 323.5  C 590.64 323.5  588 320.86  588 317.5  C 588 314.14  590.64 311.5  594 311.5  Z " fill-rule="nonzero" fill="#ffffff" stroke="none" />
  <path d="M 594 312  C 597.08 312  599.5 314.42  599.5 317.5  C 599.5 320.58  597.08 323  594 323  C 590.92 323  588.5 320.58  588.5 317.5  C 588.5 314.42  590.92 312  594 312  Z " stroke-width="1" stroke="#797979" fill="none" />
  <path d="M 594 320.5  C 592.32 320.5  591 319.18  591 317.5  C 591 315.82  592.32 314.5  594 314.5  C 595.68 314.5  597 315.82  597 317.5  C 597 319.18  595.68 320.5  594 320.5  " fill-rule="nonzero" fill="#797979" stroke="none" />
</svg>