<?xml version="1.0" encoding="utf-8"?>
<svg version="1.1" xmlns:xlink="http://www.w3.org/1999/xlink" width="12px" height="12px" viewBox="734 311.5  12 12" xmlns="http://www.w3.org/2000/svg">
  <path d="M 740 311.5  C 743.36 311.5  746 314.14  746 317.5  C 746 320.86  743.36 323.5  740 323.5  C 736.64 323.5  734 320.86  734 317.5  C 734 314.14  736.64 311.5  740 311.5  Z " fill-rule="nonzero" fill="#ffffff" stroke="none" />
  <path d="M 740 312  C 743.08 312  745.5 314.42  745.5 317.5  C 745.5 320.58  743.08 323  740 323  C 736.92 323  734.5 320.58  734.5 317.5  C 734.5 314.42  736.92 312  740 312  Z " stroke-width="1" stroke="#797979" fill="none" />
  <path d="M 740 320.5  C 738.32 320.5  737 319.18  737 317.5  C 737 315.82  738.32 314.5  740 314.5  C 741.68 314.5  743 315.82  743 317.5  C 743 319.18  741.68 320.5  740 320.5  " fill-rule="nonzero" fill="#797979" stroke="none" />
</svg>