<?xml version="1.0" encoding="utf-8"?>
<svg version="1.1" xmlns:xlink="http://www.w3.org/1999/xlink" width="12px" height="12px" viewBox="588 297.5  12 12" xmlns="http://www.w3.org/2000/svg">
  <path d="M 594 297.5  C 597.36 297.5  600 300.14  600 303.5  C 600 306.86  597.36 309.5  594 309.5  C 590.64 309.5  588 306.86  588 303.5  C 588 300.14  590.64 297.5  594 297.5  Z " fill-rule="nonzero" fill="#ffffff" stroke="none" />
  <path d="M 594 298  C 597.08 298  599.5 300.42  599.5 303.5  C 599.5 306.58  597.08 309  594 309  C 590.92 309  588.5 306.58  588.5 303.5  C 588.5 300.42  590.92 298  594 298  Z " stroke-width="1" stroke="#797979" fill="none" />
  <path d="M 594 306.5  C 592.32 306.5  591 305.18  591 303.5  C 591 301.82  592.32 300.5  594 300.5  C 595.68 300.5  597 301.82  597 303.5  C 597 305.18  595.68 306.5  594 306.5  " fill-rule="nonzero" fill="#797979" stroke="none" />
</svg>