<?xml version="1.0" encoding="utf-8"?>
<svg version="1.1" xmlns:xlink="http://www.w3.org/1999/xlink" width="42px" height="22px" xmlns="http://www.w3.org/2000/svg">
  <defs>
    <mask fill="white" id="clip2">
      <path d="M 0 17  L 0 5  C 0 2.19999999999999  1.54000000000003 0  3.5 0  L 12.8058823529411 0  L 19.3941176470589 0  L 25.9823529411766 0  L 38.5 0  C 40.46 0  42 2.19999999999999  42 5  L 42 17  C 42 19.8  40.46 22  38.5 22  L 25.1588235294118 22  L 3.5 22  C 1.54000000000003 22  0 19.8  0 17  Z " fill-rule="evenodd" />
    </mask>
  </defs>
  <g transform="matrix(1 0 0 1 -1179 -471 )">
    <path d="M 0 17  L 0 5  C 0 2.19999999999999  1.54000000000003 0  3.5 0  L 12.8058823529411 0  L 19.3941176470589 0  L 25.9823529411766 0  L 38.5 0  C 40.46 0  42 2.19999999999999  42 5  L 42 17  C 42 19.8  40.46 22  38.5 22  L 25.1588235294118 22  L 3.5 22  C 1.54000000000003 22  0 19.8  0 17  Z " fill-rule="nonzero" fill="#f2f2f2" stroke="none" transform="matrix(1 0 0 1 1179 471 )" />
    <path d="M 0 17  L 0 5  C 0 2.19999999999999  1.54000000000003 0  3.5 0  L 12.8058823529411 0  L 19.3941176470589 0  L 25.9823529411766 0  L 38.5 0  C 40.46 0  42 2.19999999999999  42 5  L 42 17  C 42 19.8  40.46 22  38.5 22  L 25.1588235294118 22  L 3.5 22  C 1.54000000000003 22  0 19.8  0 17  Z " stroke-width="2" stroke="#797979" fill="none" transform="matrix(1 0 0 1 1179 471 )" mask="url(#clip2)" />
  </g>
</svg>