<?xml version="1.0" encoding="utf-8"?>
<svg version="1.1" xmlns:xlink="http://www.w3.org/1999/xlink" width="113px" height="112px" xmlns="http://www.w3.org/2000/svg">
  <g transform="matrix(1 0 0 1 -41 -279 )">
    <path d="M 41 279  L 154 279  L 154 391  L 41 391  L 41 279  " fill-rule="nonzero" fill="#cccccc" stroke="none" />
    <path d="M 49 287  L 146 287  L 146 383  L 49 383  L 49 287  " fill-rule="nonzero" fill="#ffffff" stroke="none" />
    <path d="M 108.16 312.6  C 103.456 312.6  99.76 308.904  99.76 304.2  C 99.76 299.496  103.456 295.8  108.16 295.8  C 112.864 295.8  116.56 299.496  116.56 304.2  C 116.56 308.904  112.864 312.6  108.16 312.6  " fill-rule="nonzero" fill="#cccccc" stroke="none" />
    <path d="M 52 380  L 52 330.5  L 74.75 308  L 106.6 326.477876106195  L 124.8 321.5  L 143 326.477876106195  L 143 380  L 52 380  " fill-rule="nonzero" fill="#169bd5" stroke="none" />
  </g>
</svg>