<?xml version="1.0" encoding="utf-8"?>
<svg version="1.1" xmlns:xlink="http://www.w3.org/1999/xlink" width="276px" height="199px" xmlns="http://www.w3.org/2000/svg">
  <g transform="matrix(1 0 0 1 -311 -372 )">
    <path d="M 311 372  L 587 372  L 587 571  L 311 571  L 311 372  " fill-rule="nonzero" fill="#cccccc" stroke="none" />
    <path d="M 325 386  L 573 386  L 573 557  L 325 557  L 325 386  " fill-rule="nonzero" fill="#ffffff" stroke="none" />
    <path d="M 469.445 431.7  C 461.087 431.7  454.52 425.133  454.52 416.775  C 454.52 408.417  461.087 401.85  469.445 401.85  C 477.803 401.85  484.37 408.417  484.37 416.775  C 484.37 425.133  477.803 431.7  469.445 431.7  " fill-rule="nonzero" fill="#cccccc" stroke="none" />
    <path d="M 330 552  L 330 463.45  L 389.5 423.2  L 472.8 482.35  L 520.4 447.35  L 568 482.35  L 568 552  L 330 552  " fill-rule="nonzero" fill="#169bd5" stroke="none" />
  </g>
</svg>