<?xml version="1.0" encoding="utf-8"?>
<svg version="1.1" xmlns:xlink="http://www.w3.org/1999/xlink" width="13px" height="20px" xmlns="http://www.w3.org/2000/svg">
  <g transform="matrix(1 0 0 1 -557 -217 )">
    <path d="M 12.7766323024055 9.53907815631263  C 12.9255441008018 9.67267869071476  13 9.82631930527722  13 10  C 13 10.1736806947228  12.9255441008018 10.3273213092852  12.7766323024055 10.4609218436874  L 2.36769759450172 19.7995991983968  C 2.21878579610538 19.9331997327989  2.0475372279496 20  1.85395189003436 20  C 1.66036655211913 20  1.48911798396334 19.9331997327989  1.34020618556701 19.7995991983968  L 0.223367697594502 18.7975951903808  C 0.0744558991981673 18.6639946559786  0 18.5103540414162  0 18.3366733466934  C 0 18.1629926519706  0.0744558991981673 18.0093520374081  0.223367697594502 17.875751503006  L 9.00171821305842 10  L 0.223367697594502 2.12424849699399  C 0.0744558991981673 1.99064796259185  0 1.83700734802939  0 1.66332665330661  C 0 1.48964595858383  0.0744558991981673 1.33600534402137  0.223367697594502 1.20240480961924  L 1.34020618556701 0.200400801603207  C 1.48911798396334 0.0668002672010681  1.66036655211913 0  1.85395189003436 0  C 2.0475372279496 0  2.21878579610538 0.0668002672010681  2.36769759450172 0.200400801603207  L 12.7766323024055 9.53907815631263  Z " fill-rule="nonzero" fill="#000000" stroke="none" transform="matrix(1 0 0 1 557 217 )" />
  </g>
</svg>