<?xml version="1.0" encoding="utf-8"?>
<svg version="1.1" xmlns:xlink="http://www.w3.org/1999/xlink" width="606px" height="229px" xmlns="http://www.w3.org/2000/svg">
  <g transform="matrix(1 0 0 1 0 -134 )">
    <path d="M 0 134  L 606 134  L 606 363  L 0 363  L 0 134  " fill-rule="nonzero" fill="#cccccc" stroke="none" />
    <path d="M 16 150  L 590 150  L 590 347  L 16 347  L 16 150  " fill-rule="nonzero" fill="#ffffff" stroke="none" />
    <path d="M 332.295 202.7  C 322.677 202.7  315.12 195.143  315.12 185.525  C 315.12 175.907  322.677 168.35  332.295 168.35  C 341.913 168.35  349.47 175.907  349.47 185.525  C 349.47 195.143  341.913 202.7  332.295 202.7  " fill-rule="nonzero" fill="#cccccc" stroke="none" />
    <path d="M 22 342  L 22 239.7  L 162.75 193.2  L 359.8 299.827722772277  L 472.4 221.1  L 585 299.827722772277  L 585 342  L 22 342  " fill-rule="nonzero" fill="#169bd5" stroke="none" />
  </g>
</svg>