<?xml version="1.0" encoding="utf-8"?>
<svg version="1.1" xmlns:xlink="http://www.w3.org/1999/xlink" width="60px" height="61px" xmlns="http://www.w3.org/2000/svg">
  <defs>
    <linearGradient gradientUnits="userSpaceOnUse" x1="29.8333333333334" y1="51.1722222222222" x2="29.8333333333334" y2="20.4535372222222" id="LinearGradient25">
      <stop id="Stop26" stop-color="#c1954f" offset="0" />
      <stop id="Stop27" stop-color="#f7e090" offset="1" />
    </linearGradient>
  </defs>
  <g transform="matrix(1 0 0 1 -258 -33 )">
    <path d="M 51.3754646840149 34.8503507404521  C 51.4002478314746 34.9137438295661  51.4126394052045 35.0088334632372  51 35.1356196414653  L 51 57.9571317225253  C 51.4126394052045 58.7812418810081  51.1771995043371 59.4944141335412  50.7063197026022 60.0966484801247  C 50.2354399008674 60.6988828267082  49.6778190830236 61  49.0334572490706 61  L 34 61  L 34 42.742790335152  L 26 42.742790335152  L 26 61  L 10.9665427509294 61  C 10.3221809169765 61  9.76456009913259 60.6988828267082  9.29368029739777 60.0966484801247  C 8.82280049566295 59.4944141335412  8.58736059479554 58.7812418810081  9 57.9571317225253  L 9 35.1356196414653  C 8.58736059479554 35.1039230969083  8.59355638166047 35.0563782800727  8.60594795539033 34.9929851909587  C 8.6183395291202 34.9295921018446  8.62453531598513 34.8820472850091  8.62453531598513 34.8503507404521  L 30 12.3141075604053  L 51.3754646840149 34.8503507404521  Z M 59.9628252788104 30.7377240841777  C 59.9876084262701 31.1656274356976  59.9008674101611 31.5380618342427  59.7026022304833 31.8550272798129  L 57.3977695167286 35.373343725643  C 57.1995043370508 35.6586126266563  56.9392812887237 35.8329436217199  56.6171003717472 35.896336710834  L 56.5055762081784 35.896336710834  C 56.183395291202 35.896336710834  55.9231722428749 35.7853988048844  55.724907063197 35.5635229929852  L 30 8.13016367887763  L 4.27509293680297 35.5635229929852  C 3.97769516728625 35.8170953494414  3.68029739776952 35.928033255391  3.38289962825279 35.896336710834  C 3.06071871127633 35.8329436217199  2.80049566294919 35.6586126266563  2.60223048327138 35.373343725643  L 0.297397769516729 31.8550272798129  C 0.0991325898389096 31.5380618342427  0.0123915737298638 31.1656274356976  0.0371747211895911 30.7377240841777  C 0.0619578686493186 30.3098207326578  0.198265179677819 29.9690828786698  0.446096654275093 29.7155105222136  L 27.1747211895911 1.23616523772409  C 27.9677819083024 0.412055079241355  28.909541511772 0  30 0  C 31.090458488228 0  32.0322180916977 0.412055079241355  32.8252788104089 1.23616523772409  L 41.8959107806691 10.9353078721746  L 41.8959107806691 1.66406858924396  C 41.8959107806691 1.22031696544556  42.0074349442379 0.855806703039748  42.2304832713755 0.570537802026503  C 42.453531598513 0.285268901013252  42.7385377942999 0.142634450506626  43.0855018587361 0.142634450506626  L 50.2230483271375 0.142634450506626  C 50.5700123915737 0.142634450506626  50.8550185873606 0.285268901013252  51.0780669144981 0.570537802026503  C 51.3011152416357 0.855806703039748  51.4126394052045 1.22031696544556  51 1.66406858924396  L 51 21.062353858145  L 59.5539033457249 29.7155105222136  C 59.8017348203222 29.9690828786698  59.9380421313507 30.3098207326578  59.9628252788104 30.7377240841777  Z " fill-rule="nonzero" fill="url(#LinearGradient25)" stroke="none" transform="matrix(1 0 0 1 258 33 )" />
  </g>
</svg>