<?xml version="1.0" encoding="utf-8"?>
<svg version="1.1" xmlns:xlink="http://www.w3.org/1999/xlink" width="50px" height="61px" xmlns="http://www.w3.org/2000/svg">
  <defs>
    <linearGradient gradientUnits="userSpaceOnUse" x1="25" y1="0" x2="25" y2="61" id="LinearGradient58">
      <stop id="Stop59" stop-color="#f4dc8d" offset="0" />
      <stop id="Stop60" stop-color="#c1954f" offset="1" />
    </linearGradient>
  </defs>
  <g transform="matrix(1 0 0 1 -1177 -33 )">
    <path d="M 34.9330357142857 53.6643415178571  C 38.0022321428571 51.6786644345238  40.522693452381 48.9838169642857  42.4944196428571 45.5797991071429  C 42.085193452381 42.0623139880952  41.2713913690476 39.1405319940476  40.0530133928571 36.814453125  C 38.8346354166667 34.4883742559524  37.1186755952381 33.1437872023809  34.9051339285714 32.7806919642857  C 33.6588541666667 34.4600074404762  32.1754092261905 35.7705543154762  30.4547991071429 36.7123325892857  C 28.7341889880952 37.6541108630952  26.9159226190476 38.125  25 38.125  C 23.0840773809524 38.125  21.2658110119048 37.6541108630952  19.5452008928571 36.7123325892857  C 17.8245907738095 35.7705543154762  16.3411458333333 34.4600074404762  15.0948660714286 32.7806919642857  C 12.8813244047619 33.1437872023809  11.1653645833333 34.4883742559524  9.94698660714286 36.814453125  C 8.72860863095238 39.1405319940476  7.91480654761905 42.0623139880952  7.50558035714286 45.5797991071429  C 9.47730654761905 48.9838169642857  11.9977678571429 51.6786644345238  15.0669642857143 53.6643415178571  C 18.1361607142857 55.6500186011905  21.4471726190476 56.6428571428571  25 56.6428571428571  C 28.5528273809524 56.6428571428571  31.8638392857143 55.6500186011905  34.9330357142857 53.6643415178571  Z M 32.5753348214286 31.0276227678571  C 34.66796875 28.474609375  35.7142857142857 25.3939732142857  35.7142857142857 21.7857142857143  C 35.7142857142857 18.1774553571429  34.66796875 15.0968191964286  32.5753348214286 12.5438058035714  C 30.4827008928571 9.99079241071428  27.9575892857143 8.71428571428572  25 8.71428571428572  C 22.0424107142857 8.71428571428572  19.5172991071429 9.99079241071428  17.4246651785714 12.5438058035714  C 15.33203125 15.0968191964286  14.2857142857143 18.1774553571429  14.2857142857143 21.7857142857143  C 14.2857142857143 25.3939732142857  15.33203125 28.474609375  17.4246651785714 31.0276227678571  C 19.5172991071429 33.5806361607143  22.0424107142857 34.8571428571429  25 34.8571428571429  C 27.9575892857143 34.8571428571429  30.4827008928571 33.5806361607143  32.5753348214286 31.0276227678571  Z M 48.0189732142857 18.6540178571429  C 49.3396577380952 22.4211309523809  50 26.3697916666667  50 30.5  C 50 34.6302083333333  49.3396577380952 38.5731956845238  48.0189732142857 42.3289620535714  C 46.6982886904762 46.084728422619  44.9265252976191 49.3298921130952  42.7036830357143 52.064453125  C 40.4808407738095 54.7990141369048  37.8255208333333 56.971912202381  34.7377232142857 58.5831473214286  C 31.6499255952381 60.1943824404762  28.4040178571429 61  25 61  C 21.6145833333333 61  18.3779761904762 60.1943824404762  15.2901785714286 58.5831473214286  C 12.202380952381 56.971912202381  9.54241071428571 54.8046875  7.31026785714286 52.0814732142857  C 5.078125 49.3582589285714  3.30171130952381 46.1130952380952  1.98102678571429 42.3459821428571  C 0.660342261904762 38.578869047619  0 34.6302083333333  0 30.5  C 0 26.3697916666667  0.660342261904762 22.4211309523809  1.98102678571429 18.6540178571429  C 3.30171130952381 14.8869047619048  5.078125 11.6417410714286  7.31026785714286 8.91852678571428  C 9.54241071428571 6.1953125  12.202380952381 4.02808779761905  15.2901785714286 2.41685267857143  C 18.3779761904762 0.805617559523809  21.6145833333333 0  25 0  C 28.3854166666667 0  31.6220238095238 0.805617559523809  34.7098214285714 2.41685267857143  C 37.7976190476191 4.02808779761905  40.4575892857143 6.1953125  42.6897321428571 8.91852678571428  C 44.921875 11.6417410714286  46.6982886904762 14.8869047619048  48.0189732142857 18.6540178571429  Z " fill-rule="nonzero" fill="url(#LinearGradient58)" stroke="none" transform="matrix(1 0 0 1 1177 33 )" />
  </g>
</svg>