<?xml version="1.0" encoding="utf-8"?>
<svg version="1.1" xmlns:xlink="http://www.w3.org/1999/xlink" width="352px" height="215px" xmlns="http://www.w3.org/2000/svg">
  <g transform="matrix(1 0 0 1 -240 -1038 )">
    <path d="M 240 1038  L 592 1038  L 592 1253  L 240 1253  L 240 1038  " fill-rule="nonzero" fill="#cccccc" stroke="none" />
    <path d="M 255 1053  L 577 1053  L 577 1238  L 255 1238  L 255 1053  " fill-rule="nonzero" fill="#ffffff" stroke="none" />
    <path d="M 439.165 1102.5  C 430.135 1102.5  423.04 1095.405  423.04 1086.375  C 423.04 1077.345  430.135 1070.25  439.165 1070.25  C 448.195 1070.25  455.29 1077.345  455.29 1086.375  C 455.29 1095.405  448.195 1102.5  439.165 1102.5  " fill-rule="nonzero" fill="#cccccc" stroke="none" />
    <path d="M 261 1233  L 261 1137.3  L 338.75 1093.8  L 447.6 1169.23295454545  L 509.8 1119.9  L 572 1169.23295454545  L 572 1233  L 261 1233  " fill-rule="nonzero" fill="#169bd5" stroke="none" />
  </g>
</svg>