<?xml version="1.0" encoding="utf-8"?>
<svg version="1.1" xmlns:xlink="http://www.w3.org/1999/xlink" width="351px" height="215px" xmlns="http://www.w3.org/2000/svg">
  <g transform="matrix(1 0 0 1 -629 -1038 )">
    <path d="M 629 1038  L 980 1038  L 980 1253  L 629 1253  L 629 1038  " fill-rule="nonzero" fill="#cccccc" stroke="none" />
    <path d="M 644 1053  L 965 1053  L 965 1238  L 644 1238  L 644 1053  " fill-rule="nonzero" fill="#ffffff" stroke="none" />
    <path d="M 827.645 1102.5  C 818.615 1102.5  811.52 1095.405  811.52 1086.375  C 811.52 1077.345  818.615 1070.25  827.645 1070.25  C 836.675 1070.25  843.77 1077.345  843.77 1086.375  C 843.77 1095.405  836.675 1102.5  827.645 1102.5  " fill-rule="nonzero" fill="#cccccc" stroke="none" />
    <path d="M 650 1233  L 650 1137.3  L 727.5 1093.8  L 836 1169.05128205128  L 898 1119.9  L 960 1169.05128205128  L 960 1233  L 650 1233  " fill-rule="nonzero" fill="#169bd5" stroke="none" />
  </g>
</svg>