<?xml version="1.0" encoding="utf-8"?>
<svg version="1.1" xmlns:xlink="http://www.w3.org/1999/xlink" width="351px" height="215px" xmlns="http://www.w3.org/2000/svg">
  <g transform="matrix(1 0 0 1 -629 -897 )">
    <path d="M 629 897  L 980 897  L 980 1112  L 629 1112  L 629 897  " fill-rule="nonzero" fill="#cccccc" stroke="none" />
    <path d="M 644 912  L 965 912  L 965 1097  L 644 1097  L 644 912  " fill-rule="nonzero" fill="#ffffff" stroke="none" />
    <path d="M 827.645 961.5  C 818.615 961.5  811.52 954.405  811.52 945.375  C 811.52 936.345  818.615 929.25  827.645 929.25  C 836.675 929.25  843.77 936.345  843.77 945.375  C 843.77 954.405  836.675 961.5  827.645 961.5  " fill-rule="nonzero" fill="#cccccc" stroke="none" />
    <path d="M 650 1092  L 650 996.3  L 727.5 952.8  L 836 1028.05128205128  L 898 978.9  L 960 1028.05128205128  L 960 1092  L 650 1092  " fill-rule="nonzero" fill="#169bd5" stroke="none" />
  </g>
</svg>