<?xml version="1.0" encoding="utf-8"?>
<svg version="1.1" xmlns:xlink="http://www.w3.org/1999/xlink" width="18px" height="17px" xmlns="http://www.w3.org/2000/svg">
  <g transform="matrix(1 0 0 1 -267 -322 )">
    <path d="M 11.912109375 1.98111979166667  C 10.986328125 1.60481770833333  10.015625 1.41666666666667  9 1.41666666666667  C 7.984375 1.41666666666667  7.013671875 1.60481770833333  6.087890625 1.98111979166667  C 5.162109375 2.357421875  4.365234375 2.86100260416667  3.697265625 3.49186197916667  C 3.029296875 4.12272135416667  2.49609375 4.87532552083333  2.09765625 5.74967447916667  C 1.69921875 6.6240234375  1.5 7.54079861111111  1.5 8.5  C 1.5 9.45920138888889  1.69921875 10.3759765625  2.09765625 11.2503255208333  C 2.49609375 12.1246744791667  3.029296875 12.8772786458333  3.697265625 13.5081380208333  C 4.365234375 14.1389973958333  5.162109375 14.642578125  6.087890625 15.0188802083333  C 7.013671875 15.3951822916667  7.984375 15.5833333333333  9 15.5833333333333  C 10.015625 15.5833333333333  10.986328125 15.3951822916667  11.912109375 15.0188802083333  C 12.837890625 14.642578125  13.634765625 14.1389973958333  14.302734375 13.5081380208333  C 14.970703125 12.8772786458333  15.50390625 12.1246744791667  15.90234375 11.2503255208333  C 16.30078125 10.3759765625  16.5 9.45920138888889  16.5 8.5  C 16.5 7.54079861111111  16.30078125 6.6240234375  15.90234375 5.74967447916667  C 15.50390625 4.87532552083333  14.970703125 4.12272135416667  14.302734375 3.49186197916667  C 13.634765625 2.86100260416667  12.837890625 2.357421875  11.912109375 1.98111979166667  Z M 16.79296875 4.2333984375  C 17.59765625 5.53569878472222  18 6.95789930555555  18 8.5  C 18 10.0421006944444  17.59765625 11.4643012152778  16.79296875 12.7666015625  C 15.98828125 14.0689019097222  14.896484375 15.1000434027778  13.517578125 15.8600260416667  C 12.138671875 16.6200086805556  10.6328125 17  9 17  C 7.3671875 17  5.861328125 16.6200086805556  4.482421875 15.8600260416667  C 3.103515625 15.1000434027778  2.01171875 14.0689019097222  1.20703125 12.7666015625  C 0.40234375 11.4643012152778  0 10.0421006944444  0 8.5  C 0 6.95789930555555  0.40234375 5.53569878472222  1.20703125 4.2333984375  C 2.01171875 2.93109809027778  3.103515625 1.89995659722222  4.482421875 1.13997395833333  C 5.861328125 0.379991319444443  7.3671875 0  9 0  C 10.6328125 0  12.138671875 0.379991319444443  13.517578125 1.13997395833333  C 14.896484375 1.89995659722222  15.98828125 2.93109809027778  16.79296875 4.2333984375  Z " fill-rule="nonzero" fill="#aaaaaa" stroke="none" transform="matrix(1 0 0 1 267 322 )" />
  </g>
</svg>