<?xml version="1.0" encoding="utf-8"?>
<svg version="1.1" xmlns:xlink="http://www.w3.org/1999/xlink" width="30px" height="24px" xmlns="http://www.w3.org/2000/svg">
  <g transform="matrix(1 0 0 1 -546 -106 )">
    <path d="M 18.3984375 14.71875  C 19.9789663461538 13.4543269230769  20.7692307692308 11.9326923076923  20.7692307692308 10.1538461538462  C 20.7692307692308 8.375  19.9789663461538 6.85336538461538  18.3984375 5.58894230769231  C 16.8179086538462 4.32451923076923  14.9158653846154 3.69230769230769  12.6923076923077 3.69230769230769  C 10.46875 3.69230769230769  8.56670673076923 4.32451923076923  6.98617788461538 5.58894230769231  C 5.40564903846154 6.85336538461538  4.61538461538462 8.375  4.61538461538462 10.1538461538462  C 4.61538461538462 11.9326923076923  5.40564903846154 13.4543269230769  6.98617788461538 14.71875  C 8.56670673076923 15.9831730769231  10.46875 16.6153846153846  12.6923076923077 16.6153846153846  C 14.9158653846154 16.6153846153846  16.8179086538462 15.9831730769231  18.3984375 14.71875  Z M 29.3329326923077 20.8557692307692  C 29.7776442307692 21.2115384615385  30 21.6442307692308  30 22.1538461538462  C 30 22.6538461538462  29.7716346153846 23.0865384615385  29.3149038461538 23.4519230769231  C 28.8581730769231 23.8173076923077  28.3173076923077 24  27.6923076923077 24  C 27.0432692307692 24  26.5024038461538 23.8173076923077  26.0697115384615 23.4519230769231  L 19.8858173076923 18.5192307692308  C 17.734375 19.7115384615385  15.3365384615385 20.3076923076923  12.6923076923077 20.3076923076923  C 10.9735576923077 20.3076923076923  9.32992788461539 20.0408653846154  7.76141826923077 19.5072115384615  C 6.19290865384615 18.9735576923077  4.84074519230769 18.2524038461538  3.70492788461538 17.34375  C 2.56911057692308 16.4350961538462  1.66766826923077 15.3533653846154  1.00060096153846 14.0985576923077  C 0.333533653846154 12.84375  0 11.5288461538462  0 10.1538461538462  C 0 8.77884615384615  0.333533653846154 7.46394230769231  1.00060096153846 6.20913461538462  C 1.66766826923077 4.95432692307692  2.56911057692308 3.87259615384616  3.70492788461538 2.96394230769231  C 4.84074519230769 2.05528846153846  6.19290865384615 1.33413461538461  7.76141826923077 0.80048076923077  C 9.32992788461539 0.266826923076922  10.9735576923077 0  12.6923076923077 0  C 14.4110576923077 0  16.0546875 0.266826923076922  17.6231971153846 0.80048076923077  C 19.1917067307692 1.33413461538461  20.5438701923077 2.05528846153846  21.6796875 2.96394230769231  C 22.8155048076923 3.87259615384616  23.7169471153846 4.95432692307692  24.3840144230769 6.20913461538462  C 25.0510817307692 7.46394230769231  25.3846153846154 8.77884615384615  25.3846153846154 10.1538461538462  C 25.3846153846154 12.2692307692308  24.6394230769231 14.1875  23.1490384615385 15.9086538461538  L 29.3329326923077 20.8557692307692  Z " fill-rule="nonzero" fill="#ffffff" stroke="none" transform="matrix(1 0 0 1 546 106 )" />
  </g>
</svg>