<?xml version="1.0" encoding="utf-8"?>
<svg version="1.1" xmlns:xlink="http://www.w3.org/1999/xlink" width="261px" height="170px" xmlns="http://www.w3.org/2000/svg">
  <g transform="matrix(1 0 0 1 -317 -1956 )">
    <path d="M 317 1956  L 578 1956  L 578 2126  L 317 2126  L 317 1956  " fill-rule="nonzero" fill="#cccccc" stroke="none" />
    <path d="M 329 1968  L 566 1968  L 566 2114  L 329 2114  L 329 1968  " fill-rule="nonzero" fill="#ffffff" stroke="none" />
    <path d="M 465.47 2007  C 458.33 2007  452.72 2001.39  452.72 1994.25  C 452.72 1987.11  458.33 1981.5  465.47 1981.5  C 472.61 1981.5  478.22 1987.11  478.22 1994.25  C 478.22 2001.39  472.61 2007  465.47 2007  " fill-rule="nonzero" fill="#cccccc" stroke="none" />
    <path d="M 334 2110  L 334 2034.65  L 391 2000.4  L 470.8 2056.45977011494  L 516.4 2020.95  L 562 2056.45977011494  L 562 2110  L 334 2110  " fill-rule="nonzero" fill="#169bd5" stroke="none" />
  </g>
</svg>