<?xml version="1.0" encoding="utf-8"?>
<svg version="1.1" xmlns:xlink="http://www.w3.org/1999/xlink" width="69px" height="60px" xmlns="http://www.w3.org/2000/svg">
  <g transform="matrix(1 0 0 1 -21 -14 )">
    <path d="M 55.5 14  C 74.82 14  90 27.2  90 44  C 90 60.8  74.82 74  55.5 74  C 36.18 74  21 60.8  21 44  C 21 27.2  36.18 14  55.5 14  Z " fill-rule="nonzero" fill="#aaaaaa" stroke="none" />
    <path d="M 55.5 14.5  C 74.54 14.5  89.5 27.48  89.5 44  C 89.5 60.52  74.54 73.5  55.5 73.5  C 36.46 73.5  21.5 60.52  21.5 44  C 21.5 27.48  36.46 14.5  55.5 14.5  Z " stroke-width="1" stroke="#797979" fill="none" />
  </g>
</svg>