<?xml version="1.0" encoding="utf-8"?>
<svg version="1.1" xmlns:xlink="http://www.w3.org/1999/xlink" width="66px" height="54px" xmlns="http://www.w3.org/2000/svg">
  <g transform="matrix(1 0 0 1 -31 -2224 )">
    <path d="M 56.5130111524164 30.8511301636789  C 56.5402726146221 30.9072486360094  56.5539033457249 30.9914263445051  56 31.103663289166  L 56 51.3063133281372  C 56.5539033457249 52.0358534684334  56.2949194547708 52.6671862821512  55.7769516728625 53.2003117692907  C 55.2589838909542 53.7334372564302  54.6456009913259 54  53.9368029739777 54  L 38 54  L 38 37  L 28 37  L 28 54  L 12.0631970260223 54  C 11.3543990086741 54  10.7410161090458 53.7334372564302  10.2230483271375 53.2003117692907  C 9.70508054522925 52.6671862821512  9.44609665427509 52.0358534684334  10 51.3063133281372  L 10 31.103663289166  C 9.44609665427509 31.0756040530008  9.45291201982652 31.0335151987529  9.46654275092937 30.9773967264224  C 9.48017348203222 30.921278254092  9.48698884758364 30.8791893998441  9.48698884758364 30.8511301636789  L 33 10.9010132501949  L 56.5130111524164 30.8511301636789  Z M 65.9591078066914 27.2104442712393  C 65.9863692688972 27.58924395947  65.8909541511772 27.9189399844115  65.6728624535316 28.1995323460639  L 63.1375464684015 31.3141075604053  C 62.9194547707559 31.5666406858924  62.633209417596 31.7209664848012  62.2788104089219 31.7770849571317  L 62.1561338289963 31.7770849571317  C 61.8017348203222 31.7770849571317  61.5154894671623 31.6788776305534  61.2973977695167 31.4824629773967  L 33 7.19719407638348  L 4.70260223048327 31.4824629773967  C 4.37546468401487 31.7069368667186  4.04832713754647 31.805144193297  3.72118959107807 31.7770849571317  C 3.36679058240397 31.7209664848012  3.08054522924411 31.5666406858924  2.86245353159851 31.3141075604053  L 0.327137546468401 28.1995323460639  C 0.109045848822801 27.9189399844115  0.0136307311028502 27.58924395947  0.0408921933085502 27.2104442712393  C 0.0681536555142505 26.8316445830086  0.218091697645601 26.5300077942323  0.490706319702602 26.3055339049104  L 29.8921933085502 1.09431021044427  C 30.7645600991326 0.364770070148085  31.8004956629492 0  33 0  C 34.1995043370508 0  35.2354399008674 0.364770070148085  36.1078066914498 1.09431021044427  L 46.0855018587361 9.68043647700701  L 46.0855018587361 1.47310989867498  C 46.0855018587361 1.08028059236165  46.2081784386617 0.757599376461416  46.453531598513 0.505066250974282  C 46.6988847583643 0.252533125487141  47.0123915737299 0.12626656274357  47.3940520446097 0.12626656274357  L 55.2453531598513 0.12626656274357  C 55.6270136307311 0.12626656274357  55.9405204460966 0.252533125487141  56.185873605948 0.505066250974282  C 56.4312267657993 0.757599376461416  56.5539033457249 1.08028059236165  56 1.47310989867498  L 56 18.6453624318005  L 65.5092936802974 26.3055339049104  C 65.7819083023544 26.5300077942323  65.9318463444858 26.8316445830086  65.9591078066914 27.2104442712393  Z " fill-rule="nonzero" fill="#f59a23" stroke="none" transform="matrix(1 0 0 1 31 2224 )" />
  </g>
</svg>