<?xml version="1.0" encoding="utf-8"?>
<svg version="1.1" xmlns:xlink="http://www.w3.org/1999/xlink" width="62px" height="59px" xmlns="http://www.w3.org/2000/svg">
  <g transform="matrix(1 0 0 1 -188 -2222 )">
    <path d="M 61.072821846554 24.3211963589077  L 55.5097529258778 29.5  L 61.072821846554 34.6788036410923  C 61.8790637191157 35.3948851322063  62.1478110099697 36.2899869960988  61.8790637191157 37.3641092327698  C 61.556566970091 38.4126571304725  60.8578240138708 39.0648027741656  59.7828348504551 39.3205461638492  L 52.2041612483745 41.1618985695709  L 54.3407022106632 48.2971391417425  C 54.6631989596879 49.3456870394452  54.4078890333767 50.2407889033377  53.5747724317295 50.98244473342  C 52.7954052882532 51.7752492414391  51.8547897702644 52.0182054616385  50.7529258777633 51.7113133940182  L 43.2548764629389 49.6781534460338  L 41.3198959687906 56.8901170351105  C 41.0511486779367 57.9130905938448  40.3658430862592 58.5780234070221  39.2639791937581 58.8849154746424  C 38.9414824447334 58.9360641525791  38.6861725184222 58.9616384915475  38.4980494148245 58.9616384915475  C 37.6649328131773 58.9616384915475  36.9796272214998 58.6803207628955  36.4421326397919 58.1176853055917  L 31 52.8237971391417  L 25.5578673602081 58.1176853055917  C 24.8053749458171 58.8849154746424  23.8647594278284 59.140658864326  22.7360208062419 58.8849154746424  C 21.6341569137408 58.6035977459905  20.9488513220633 57.9386649328132  20.6801040312094 56.8901170351105  L 18.7451235370611 49.6781534460338  L 11.2470741222367 51.7113133940182  C 10.1452102297356 52.0182054616385  9.20459471174686 51.7752492414391  8.42522756827048 50.98244473342  C 7.59211096662332 50.2407889033377  7.33680104031209 49.3456870394452  7.6592977893368 48.2971391417425  L 9.79583875162549 41.1618985695709  L 2.21716514954486 39.3205461638492  C 1.14217598612917 39.0648027741656  0.443433029908973 38.4126571304725  0.120936280884265 37.3641092327698  C -0.147811009969658 36.2899869960988  0.120936280884265 35.3948851322063  0.927178153446034 34.6788036410923  L 6.49024707412224 29.5  L 0.927178153446034 24.3211963589077  C 0.120936280884265 23.6051148677937  -0.147811009969658 22.7100130039012  0.120936280884265 21.6358907672302  C 0.443433029908973 20.5873428695275  1.14217598612917 19.9351972258344  2.21716514954486 19.6794538361508  L 9.79583875162549 17.8381014304291  L 7.6592977893368 10.7028608582575  C 7.33680104031209 9.65431296055483  7.59211096662332 8.75921109666233  8.42522756827048 8.01755526657997  C 9.20459471174686 7.2247507585609  10.1452102297356 6.98179453836151  11.2470741222367 7.28868660598179  L 18.7451235370611 9.32184655396619  L 20.6801040312094 2.10988296488947  C 20.9488513220633 1.06133506718682  21.6341569137408 0.40918942349371  22.7360208062419 0.15344603381014  C 23.837884698743 -0.15344603381014  24.7785002167317 0.0895101863892497  25.5578673602081 0.882314694408324  L 31 6.21456436931079  L 36.4421326397919 0.882314694408324  C 37.2214997832683 0.115084525357609  38.162115301257 -0.127871694841795  39.2639791937581 0.15344603381014  C 40.3658430862592 0.40918942349371  41.0511486779367 1.06133506718682  41.3198959687906 2.10988296488947  L 43.2548764629389 9.32184655396619  L 50.7529258777633 7.28868660598179  C 51.8547897702644 6.98179453836151  52.7954052882532 7.2247507585609  53.5747724317295 8.01755526657997  C 54.4078890333767 8.75921109666233  54.6631989596879 9.65431296055483  54.3407022106632 10.7028608582575  L 52.2041612483745 17.8381014304291  L 59.7828348504551 19.6794538361508  C 60.8578240138708 19.9351972258344  61.556566970091 20.5873428695275  61.8790637191157 21.6358907672302  C 62.1478110099697 22.7100130039012  61.8790637191157 23.6051148677937  61.072821846554 24.3211963589077  Z " fill-rule="nonzero" fill="#f59a23" stroke="none" transform="matrix(1 0 0 1 188 2222 )" />
  </g>
</svg>