<?xml version="1.0" encoding="utf-8"?>
<svg version="1.1" xmlns:xlink="http://www.w3.org/1999/xlink" width="55px" height="56px" xmlns="http://www.w3.org/2000/svg">
  <g transform="matrix(1 0 0 1 -357 -2225 )">
    <path d="M 33.2291666666667 39  L 36.630859375 30  L 47.9459635416667 30  C 47.9220920138889 30.7125  47.8922526041667 30.5885416666667  47.8564453125 30.428125  C 47.8206380208333 30.2677083333333  47.7907986111111 30.1583333333333  47.7669270833333 30.1  L 40.17578125 9  L 14.82421875 9  L 7.23307291666667 30.1  C 7.20920138888889 30.1875  7.17936197916667 30.3114583333333  7.1435546875 30.471875  C 7.10774739583333 30.6322916666667  7.07790798611111 30.7416666666667  7.05403645833333 30  L 18.369140625 30  L 21.7708333333333 39  L 33.2291666666667 39  Z M 54.1048177083333 26.73125  C 54.7016059027778 28.5104166666667  55 30.3041666666667  55 32.1125  L 55 53.2  C 55 53.9583333333333  54.7732204861111 54.6145833333333  54.3196614583333 55.16875  C 53.8661024305556 55.7229166666667  53.3289930555556 56  52.7083333333333 56  L 2.29166666666667 56  C 1.67100694444444 56  1.13389756944444 55.7229166666667  0.680338541666667 55.16875  C 0.226779513888889 54.6145833333333  0 53.9583333333333  0 53.2  L 0 32.1125  C 0 30.3041666666667  0.298394097222222 28.5104166666667  0.895182291666667 26.73125  L 9.41731770833333 2.58125  C 9.65603298611111 1.85208333333333  10.0916883680556 1.23958333333333  10.7242838541667 0.743750000000001  C 11.3568793402778 0.247916666666659  11.9835069444444 0  12.6041666666667 0  L 42.3958333333333 0  C 43.0164930555556 0  43.6431206597222 0.247916666666659  44.2757161458333 0.743750000000001  C 44.9083116319445 1.23958333333333  45.3439670138889 1.85208333333333  45.5826822916667 2.58125  L 54.1048177083333 26.73125  Z " fill-rule="nonzero" fill="#f59a23" stroke="none" transform="matrix(1 0 0 1 357 2225 )" />
  </g>
</svg>