<?xml version="1.0" encoding="utf-8"?>
<svg version="1.1" xmlns:xlink="http://www.w3.org/1999/xlink" width="53px" height="56px" xmlns="http://www.w3.org/2000/svg">
  <g transform="matrix(1 0 0 1 -513 -2225 )">
    <path d="M 16.2075892857143 2.21875  C 19.4806547619048 0.739583333333333  22.9114583333333 0  26.5 0  C 30.0885416666667 0  33.5193452380952 0.739583333333333  36.7924107142857 2.21875  C 40.0654761904762 3.69791666666667  42.8850446428571 5.6875  45.2511160714286 8.1875  C 47.6171875 10.6875  49.5001860119048 13.6666666666667  50.9001116071429 17.125  C 52.300037202381 20.5833333333333  53 24.2083333333333  53 28  C 53 31.7708333333333  52.3049665178571 35.3854166666667  50.9148995535714 38.84375  C 49.5248325892857 42.3020833333333  47.6467633928571 45.28125  45.2806919642857 47.78125  C 42.9146205357143 50.28125  40.0950520833333 52.2760416666667  36.8219866071429 53.765625  C 33.5489211309524 55.2552083333333  30.1082589285714 56  26.5 56  C 22.8917410714286 56  19.4510788690476 55.2604166666667  16.1780133928571 53.78125  C 12.9049479166667 52.3020833333333  10.0903087797619 50.3072916666667  7.73409598214286 47.796875  C 5.37788318452381 45.2864583333333  3.49981398809524 42.3072916666667  2.09988839285714 38.859375  C 0.699962797619048 35.4114583333333  0 31.7916666666667  0 28  C 0 24.2083333333333  0.699962797619048 20.5833333333333  2.09988839285714 17.125  C 3.49981398809524 13.6666666666667  5.3828125 10.6875  7.74888392857143 8.1875  C 10.1149553571429 5.6875  12.9345238095238 3.69791666666667  16.2075892857143 2.21875  Z M 35.7572544642857 32  C 40.4893973214286 32  43.5061383928571 35.40625  44.8074776785714 42.21875  C 47.745349702381 37.9479166666667  49.2142857142857 33.2083333333333  49.2142857142857 28  C 49.2142857142857 24.75  48.6129092261905 21.6458333333333  47.41015625 18.6875  C 46.2074032738095 15.7291666666667  44.5905877976191 13.1770833333333  42.5597098214286 11.03125  C 40.5288318452381 8.88541666666667  38.1134672619048 7.17708333333333  35.3136160714286 5.90625  C 32.5137648809524 4.63541666666666  29.5758928571429 4  26.5 4  C 23.4241071428571 4  20.4862351190476 4.63541666666666  17.6863839285714 5.90625  C 14.8865327380952 7.17708333333333  12.4711681547619 8.88541666666667  10.4402901785714 11.03125  C 8.40941220238095 13.1770833333333  6.79259672619048 15.7291666666667  5.58984375 18.6875  C 4.38709077380952 21.6458333333333  3.78571428571429 24.75  3.78571428571429 28  C 3.78571428571429 33.2083333333333  5.25465029761905 37.9479166666667  8.19252232142857 42.21875  C 9.49386160714286 35.40625  12.5106026785714 32  17.2427455357143 32  C 19.8257068452381 34.6666666666667  22.9114583333333 36  26.5 36  C 30.0885416666667 36  33.1742931547619 34.6666666666667  35.7572544642857 32  Z M 34.5298549107143 30.484375  C 36.748046875 28.140625  37.8571428571429 25.3125  37.8571428571429 22  C 37.8571428571429 18.6875  36.748046875 15.859375  34.5298549107143 13.515625  C 32.3116629464286 11.171875  29.6350446428571 10  26.5 10  C 23.3649553571429 10  20.6883370535714 11.171875  18.4701450892857 13.515625  C 16.251953125 15.859375  15.1428571428571 18.6875  15.1428571428571 22  C 15.1428571428571 25.3125  16.251953125 28.140625  18.4701450892857 30.484375  C 20.6883370535714 32.828125  23.3649553571429 34  26.5 34  C 29.6350446428571 34  32.3116629464286 32.828125  34.5298549107143 30.484375  Z " fill-rule="nonzero" fill="#f59a23" stroke="none" transform="matrix(1 0 0 1 513 2225 )" />
  </g>
</svg>