<?xml version="1.0" encoding="utf-8"?>
<svg version="1.1" xmlns:xlink="http://www.w3.org/1999/xlink" width="25px" height="20px" xmlns="http://www.w3.org/2000/svg">
  <g transform="matrix(1 0 0 1 -39 -45 )">
    <path d="M 24.5704467353952 1.20240480961924  C 24.8568155784651 1.33600534402137  25 1.48964595858383  25 1.66332665330661  C 25 1.83700734802939  24.8568155784651 1.99064796259185  24.5704467353952 2.12424849699399  L 7.68900343642612 10  L 24.5704467353952 17.875751503006  C 24.8568155784651 18.0093520374081  25 18.1629926519706  25 18.3366733466934  C 25 18.5103540414162  24.8568155784651 18.6639946559786  24.5704467353952 18.7975951903808  L 22.4226804123711 19.7995991983968  C 22.1363115693013 19.9331997327989  21.8069873997709 20  21.4347079037801 20  C 21.0624284077892 20  20.7331042382589 19.9331997327989  20.446735395189 19.7995991983968  L 0.429553264604811 10.4609218436874  C 0.143184421534937 10.3273213092852  0 10.1736806947228  0 10  C 0 9.82631930527722  0.143184421534937 9.67267869071476  0.429553264604811 9.53907815631263  L 20.446735395189 0.200400801603207  C 20.7331042382589 0.0668002672010681  21.0624284077892 0  21.4347079037801 0  C 21.8069873997709 0  22.1363115693013 0.0668002672010681  22.4226804123711 0.200400801603207  L 24.5704467353952 1.20240480961924  Z " fill-rule="nonzero" fill="#d7d7d7" stroke="none" transform="matrix(1 0 0 1 39 45 )" />
  </g>
</svg>