<?xml version="1.0" encoding="utf-8"?>
<svg version="1.1" xmlns:xlink="http://www.w3.org/1999/xlink" width="212px" height="156px" xmlns="http://www.w3.org/2000/svg">
  <g transform="matrix(1 0 0 1 -37 -315 )">
    <path d="M 37 315  L 249 315  L 249 471  L 37 471  L 37 315  " fill-rule="nonzero" fill="#cccccc" stroke="none" />
    <path d="M 48 326  L 238 326  L 238 460  L 48 460  L 48 326  " fill-rule="nonzero" fill="#ffffff" stroke="none" />
    <path d="M 158.94 361.8  C 152.388 361.8  147.24 356.652  147.24 350.1  C 147.24 343.548  152.388 338.4  158.94 338.4  C 165.492 338.4  170.64 343.548  170.64 350.1  C 170.64 356.652  165.492 361.8  158.94 361.8  " fill-rule="nonzero" fill="#cccccc" stroke="none" />
    <path d="M 52 456  L 52 386.7  L 97.5 355.2  L 161.2 400.369811320755  L 197.6 374.1  L 234 400.369811320755  L 234 456  L 52 456  " fill-rule="nonzero" fill="#169bd5" stroke="none" />
  </g>
</svg>