<?xml version="1.0" encoding="utf-8"?>
<svg version="1.1" xmlns:xlink="http://www.w3.org/1999/xlink" width="300px" height="170px" xmlns="http://www.w3.org/2000/svg">
  <g transform="matrix(1 0 0 1 -537 -777 )">
    <path d="M 537 777  L 837 777  L 837 947  L 537 947  L 537 777  " fill-rule="nonzero" fill="#cccccc" stroke="none" />
    <path d="M 549 789  L 825 789  L 825 935  L 549 935  L 549 789  " fill-rule="nonzero" fill="#ffffff" stroke="none" />
    <path d="M 705.75 828  C 698.61 828  693 822.39  693 815.25  C 693 808.11  698.61 802.5  705.75 802.5  C 712.89 802.5  718.5 808.11  718.5 815.25  C 718.5 822.39  712.89 828  705.75 828  " fill-rule="nonzero" fill="#cccccc" stroke="none" />
    <path d="M 554 931  L 554 855.65  L 620.75 821.4  L 714.2 884.42  L 767.6 841.95  L 821 884.42  L 821 931  L 554 931  " fill-rule="nonzero" fill="#169bd5" stroke="none" />
  </g>
</svg>