<?xml version="1.0" encoding="utf-8"?>
<svg version="1.1" xmlns:xlink="http://www.w3.org/1999/xlink" width="24px" height="16px" xmlns="http://www.w3.org/2000/svg">
  <g transform="matrix(1 0 0 1 -1205 -444 )">
    <path d="M 23.4343434343434 11.959595959596  C 23.8114478114478 12.2109988776655  24 12.5162738496072  24 12.8754208754209  C 24 13.2345679012346  23.8114478114478 13.5398428731762  23.4343434343434 13.7912457912458  L 20.6868686868687 15.6228956228956  C 20.3097643097643 15.8742985409652  19.8518518518519 16  19.3131313131313 16  C 18.7744107744108 16  18.3164983164983 15.8742985409652  17.9393939393939 15.6228956228956  L 12 11.6632996632997  L 6.06060606060606 15.6228956228956  C 5.68350168350168 15.8742985409652  5.22558922558923 16  4.68686868686869 16  C 4.14814814814815 16  3.69023569023569 15.8742985409652  3.31313131313131 15.6228956228956  L 0.565656565656566 13.7912457912458  C 0.188552188552189 13.5398428731762  0 13.2345679012346  0 12.8754208754209  C 0 12.5162738496072  0.188552188552189 12.2109988776655  0.565656565656566 11.959595959596  L 6.50505050505051 8  L 0.565656565656566 4.04040404040404  C 0.188552188552189 3.78900112233445  0 3.48372615039282  0 3.12457912457912  C 0 2.76543209876543  0.188552188552189 2.46015712682379  0.565656565656566 2.20875420875421  L 3.31313131313131 0.377104377104377  C 3.69023569023569 0.125701459034792  4.14814814814815 0  4.68686868686869 0  C 5.22558922558923 0  5.68350168350168 0.125701459034792  6.06060606060606 0.377104377104377  L 12 4.33670033670034  L 17.9393939393939 0.377104377104377  C 18.3164983164983 0.125701459034792  18.7744107744108 0  19.3131313131313 0  C 19.8518518518519 0  20.3097643097643 0.125701459034792  20.6868686868687 0.377104377104377  L 23.4343434343434 2.20875420875421  C 23.8114478114478 2.46015712682379  24 2.76543209876543  24 3.12457912457912  C 24 3.48372615039282  23.8114478114478 3.78900112233445  23.4343434343434 4.04040404040404  L 17.4949494949495 8  L 23.4343434343434 11.959595959596  Z " fill-rule="nonzero" fill="#000000" stroke="none" transform="matrix(1 0 0 1 1205 444 )" />
  </g>
</svg>