<?xml version="1.0" encoding="utf-8"?>
<svg version="1.1" xmlns:xlink="http://www.w3.org/1999/xlink" width="300px" height="170px" xmlns="http://www.w3.org/2000/svg">
  <g transform="matrix(1 0 0 1 -680 -950 )">
    <path d="M 680 950  L 980 950  L 980 1120  L 680 1120  L 680 950  " fill-rule="nonzero" fill="#cccccc" stroke="none" />
    <path d="M 692 962  L 968 962  L 968 1108  L 692 1108  L 692 962  " fill-rule="nonzero" fill="#ffffff" stroke="none" />
    <path d="M 848.75 1001  C 841.61 1001  836 995.39  836 988.25  C 836 981.11  841.61 975.5  848.75 975.5  C 855.89 975.5  861.5 981.11  861.5 988.25  C 861.5 995.39  855.89 1001  848.75 1001  " fill-rule="nonzero" fill="#cccccc" stroke="none" />
    <path d="M 697 1104  L 697 1028.65  L 763.75 994.4  L 857.2 1057.42  L 910.6 1014.95  L 964 1057.42  L 964 1104  L 697 1104  " fill-rule="nonzero" fill="#169bd5" stroke="none" />
  </g>
</svg>