<?xml version="1.0" encoding="utf-8"?>
<svg version="1.1" xmlns:xlink="http://www.w3.org/1999/xlink" width="23px" height="36px" xmlns="http://www.w3.org/2000/svg">
  <g transform="matrix(1 0 0 1 -424 -693 )">
    <path d="M 8.21661931818182 29.7890625  C 8.31463068181818 29.6484375  8.36363636363636 29.46875  8.36363636363636 29.25  L 8.36363636363636 12.75  C 8.36363636363636 12.53125  8.31463068181818 12.3515625  8.21661931818182 12.2109375  C 8.11860795454546 12.0703125  7.99337121212121 12  7.84090909090909 12  L 6.79545454545455 12  C 6.64299242424243 12  6.51775568181818 12.0703125  6.41974431818182 12.2109375  C 6.32173295454545 12.3515625  6.27272727272727 12.53125  6.27272727272727 12.75  L 6.27272727272727 29.25  C 6.27272727272727 29.46875  6.32173295454545 29.6484375  6.41974431818182 29.7890625  C 6.51775568181818 29.9296875  6.64299242424243 30  6.79545454545455 30  L 7.84090909090909 30  C 7.99337121212121 30  8.11860795454546 29.9296875  8.21661931818182 29.7890625  Z M 12.3984375 29.7890625  C 12.4964488636364 29.6484375  12.5454545454545 29.46875  12.5454545454545 29.25  L 12.5454545454545 12.75  C 12.5454545454545 12.53125  12.4964488636364 12.3515625  12.3984375 12.2109375  C 12.3004261363636 12.0703125  12.1751893939394 12  12.0227272727273 12  L 10.9772727272727 12  C 10.8248106060606 12  10.6995738636364 12.0703125  10.6015625 12.2109375  C 10.5035511363636 12.3515625  10.4545454545455 12.53125  10.4545454545455 12.75  L 10.4545454545455 29.25  C 10.4545454545455 29.46875  10.5035511363636 29.6484375  10.6015625 29.7890625  C 10.6995738636364 29.9296875  10.8248106060606 30  10.9772727272727 30  L 12.0227272727273 30  C 12.1751893939394 30  12.3004261363636 29.9296875  12.3984375 29.7890625  Z M 16.5802556818182 29.7890625  C 16.6782670454545 29.6484375  16.7272727272727 29.46875  16.7272727272727 29.25  L 16.7272727272727 12.75  C 16.7272727272727 12.53125  16.6782670454545 12.3515625  16.5802556818182 12.2109375  C 16.4822443181818 12.0703125  16.3570075757576 12  16.2045454545455 12  L 15.1590909090909 12  C 15.0066287878788 12  14.8813920454545 12.0703125  14.7833806818182 12.2109375  C 14.6853693181818 12.3515625  14.6363636363636 12.53125  14.6363636363636 12.75  L 14.6363636363636 29.25  C 14.6363636363636 29.46875  14.6853693181818 29.6484375  14.7833806818182 29.7890625  C 14.8813920454545 29.9296875  15.0066287878788 30  15.1590909090909 30  L 16.2045454545455 30  C 16.3570075757576 30  16.4822443181818 29.9296875  16.5802556818182 29.7890625  Z M 8.64133522727273 3.2578125  L 7.84090909090909 6  L 15.1590909090909 6  L 14.375 3.2578125  C 14.2987689393939 3.1171875  14.2062026515152 3.03125  14.0973011363636 3  L 8.91903409090909 3  C 8.81013257575758 3.03125  8.71756628787879 3.1171875  8.64133522727273 3.2578125  Z M 22.8529829545455 6.2109375  C 22.9509943181818 6.3515625  23 6.53125  23 6.75  L 23 8.25  C 23 8.46875  22.9509943181818 8.6484375  22.8529829545455 8.7890625  C 22.7549715909091 8.9296875  22.6297348484849 9  22.4772727272727 9  L 21 9  L 21 31.21875  C 20.9090909090909 32.515625  20.6531723484849 33.63671875  20.1413352272727 34.58203125  C 19.6294981060606 35.52734375  19.0142045454545 36  18.2954545454545 36  L 4.70454545454546 36  C 3.98579545454546 36  3.37050189393939 35.54296875  2.85866477272727 34.62890625  C 2.34682765151515 33.71484375  2.09090909090909 32.609375  2 31.3125  L 2 9  L 0.522727272727273 9  C 0.370265151515151 9  0.245028409090909 8.9296875  0.147017045454545 8.7890625  C 0.0490056818181818 8.6484375  0 8.46875  0 8.25  L 0 6.75  C 0 6.53125  0.0490056818181818 6.3515625  0.147017045454545 6.2109375  C 0.245028409090909 6.0703125  0.370265151515151 6  0.522727272727273 6  L 5.5703125 6  L 6.71377840909091 2.0859375  C 6.87713068181818 1.5078125  7.17116477272727 1.015625  7.59588068181818 0.609375000000001  C 8.02059659090909 0.203124999999998  8.45075757575758 0  8.88636363636364 0  L 14.1136363636364 0  C 14.5492424242424 0  14.9794034090909 0.203124999999998  15.4041193181818 0.609375000000001  C 15.8288352272727 1.015625  16.1228693181818 1.5078125  16.2862215909091 2.0859375  L 17.4296875 6  L 22.4772727272727 6  C 22.6297348484849 6  22.7549715909091 6.0703125  22.8529829545455 6.2109375  Z " fill-rule="nonzero" fill="#000000" stroke="none" transform="matrix(1 0 0 1 424 693 )" />
  </g>
</svg>