<?xml version="1.0" encoding="utf-8"?>
<svg version="1.1" xmlns:xlink="http://www.w3.org/1999/xlink" width="300px" height="170px" xmlns="http://www.w3.org/2000/svg">
  <g transform="matrix(1 0 0 1 -48 -221 )">
    <path d="M 48 221  L 348 221  L 348 391  L 48 391  L 48 221  " fill-rule="nonzero" fill="#cccccc" stroke="none" />
    <path d="M 60 233  L 336 233  L 336 379  L 60 379  L 60 233  " fill-rule="nonzero" fill="#ffffff" stroke="none" />
    <path d="M 216.75 272  C 209.61 272  204 266.39  204 259.25  C 204 252.11  209.61 246.5  216.75 246.5  C 223.89 246.5  229.5 252.11  229.5 259.25  C 229.5 266.39  223.89 272  216.75 272  " fill-rule="nonzero" fill="#cccccc" stroke="none" />
    <path d="M 65 375  L 65 299.65  L 131.75 265.4  L 225.2 328.42  L 278.6 285.95  L 332 328.42  L 332 375  L 65 375  " fill-rule="nonzero" fill="#169bd5" stroke="none" />
  </g>
</svg>