<?xml version="1.0" encoding="utf-8"?>
<svg version="1.1" xmlns:xlink="http://www.w3.org/1999/xlink" width="113px" height="103px" xmlns="http://www.w3.org/2000/svg">
  <g transform="matrix(1 0 0 1 -245 -553 )">
    <path d="M 34.5558035714286 4.08091517857143  C 41.5342261904762 1.36030505952381  48.8489583333333 0  56.5 0  C 64.1510416666667 0  71.4657738095238 1.36030505952381  78.4441964285714 4.08091517857143  C 85.4226190476191 6.80152529761904  91.4341517857143 10.4609375  96.4787946428572 15.0591517857143  C 101.5234375 19.6573660714286  105.538132440476 25.1369047619048  108.522879464286 31.4977678571429  C 111.507626488095 37.8586309523809  113 44.5260416666667  113 51.5  C 113 58.4356398809524  111.518136160714 65.0838913690476  108.554408482143 71.4447544642857  C 105.590680803571 77.8056175595238  101.586495535714 83.28515625  96.5418526785714 87.8833705357143  C 91.4972098214286 92.4815848214286  85.4856770833333 96.1505766369048  78.5072544642857 98.8903459821428  C 71.5288318452381 101.630115327381  64.1930803571428 103  56.5 103  C 48.8069196428571 103  41.4711681547619 101.639694940476  34.4927455357143 98.9190848214286  C 27.5143229166667 96.1984747023809  21.5132998511905 92.5294828869048  16.4896763392857 87.912109375  C 11.466052827381 83.2947358630952  7.46186755952381 77.8151971726191  4.47712053571429 71.4734933035714  C 1.49237351190476 65.1317894345238  0 58.4739583333333  0 51.5  C 0 44.5260416666667  1.49237351190476 37.8586309523809  4.47712053571429 31.4977678571429  C 7.46186755952381 25.1369047619048  11.4765625 19.6573660714286  16.5212053571429 15.0591517857143  C 21.5658482142857 10.4609375  27.577380952381 6.80152529761904  34.5558035714286 4.08091517857143  Z M 76.2371651785714 58.8571428571429  C 86.3264508928572 58.8571428571429  92.7583705357143 65.1222098214286  95.5329241071428 77.65234375  C 101.796688988095 69.7970610119048  104.928571428571 61.0796130952381  104.928571428571 51.5  C 104.928571428571 45.5223214285714  103.646391369048 39.8128720238095  101.08203125 34.3716517857143  C 98.5176711309524 28.930431547619  95.0704985119048 24.2364211309524  90.7405133928572 20.2896205357143  C 86.4105282738095 16.3428199404762  81.2607886904762 13.2007068452381  75.2912946428572 10.86328125  C 69.3218005952381 8.5258556547619  63.0580357142857 7.35714285714285  56.5 7.35714285714285  C 49.9419642857143 7.35714285714285  43.6781994047619 8.5258556547619  37.7087053571429 10.86328125  C 31.7392113095238 13.2007068452381  26.5894717261905 16.3428199404762  22.2594866071429 20.2896205357143  C 17.9295014880952 24.2364211309524  14.4823288690476 28.930431547619  11.91796875 34.3716517857143  C 9.35360863095238 39.8128720238095  8.07142857142857 45.5223214285714  8.07142857142857 51.5  C 8.07142857142857 61.0796130952381  11.2033110119048 69.7970610119048  17.4670758928571 77.65234375  C 20.2416294642857 65.1222098214286  26.6735491071429 58.8571428571429  36.7628348214286 58.8571428571429  C 42.2699032738095 63.7619047619048  48.8489583333333 66.2142857142857  56.5 66.2142857142857  C 64.1510416666667 66.2142857142857  70.7300967261905 63.7619047619048  76.2371651785714 58.8571428571429  Z M 73.6202566964286 56.0694754464286  C 78.349609375 51.7586495535714  80.7142857142857 46.5569196428571  80.7142857142857 40.4642857142857  C 80.7142857142857 34.3716517857143  78.349609375 29.169921875  73.6202566964286 24.8590959821429  C 68.8909040178572 20.5482700892857  63.1841517857143 18.3928571428571  56.5 18.3928571428571  C 49.8158482142857 18.3928571428571  44.1090959821429 20.5482700892857  39.3797433035714 24.8590959821429  C 34.650390625 29.169921875  32.2857142857143 34.3716517857143  32.2857142857143 40.4642857142857  C 32.2857142857143 46.5569196428571  34.650390625 51.7586495535714  39.3797433035714 56.0694754464286  C 44.1090959821429 60.3803013392857  49.8158482142857 62.5357142857143  56.5 62.5357142857143  C 63.1841517857143 62.5357142857143  68.8909040178572 60.3803013392857  73.6202566964286 56.0694754464286  Z " fill-rule="nonzero" fill="#facd91" stroke="none" fill-opacity="0.886274509803922" transform="matrix(1 0 0 1 245 553 )" />
  </g>
</svg>