<?xml version="1.0" encoding="utf-8"?>
<svg version="1.1" xmlns:xlink="http://www.w3.org/1999/xlink" width="34px" height="28px" xmlns="http://www.w3.org/2000/svg">
  <g transform="matrix(1 0 0 1 -548 -42 )">
    <path d="M 22.4674479166666 23.1692708333333  C 22.6002604166666 23.0598958333333  22.6666666666666 22.9201388888889  22.6666666666666 22.75  L 22.6666666666666 19.8333333333333  C 22.6666666666666 19.6631944444444  22.6002604166666 19.5234375  22.4674479166666 19.4140625  C 22.3346354166666 19.3046875  22.1649305555555 19.25  21.9583333333334 19.25  L 19.8333333333334 19.25  L 19.8333333333334 9.91666666666666  C 19.8333333333334 9.74652777777778  19.7669270833334 9.60677083333334  19.6341145833334 9.49739583333334  C 19.5013020833334 9.38802083333334  19.3315972222222 9.33333333333334  19.125 9.33333333333334  L 12.0416666666666 9.33333333333334  C 11.8350694444445 9.33333333333334  11.6653645833334 9.38802083333334  11.5325520833334 9.49739583333334  C 11.3997395833334 9.60677083333334  14.875 13.8298611111111  14.875 14  L 11.3333333333334 12.8333333333333  C 11.3333333333334 13.0034722222222  11.3997395833334 13.1432291666667  11.5325520833334 13.2526041666667  C 11.6653645833334 13.3619791666667  11.8350694444445 13.4166666666667  12.0416666666666 13.4166666666667  L 14.1666666666666 13.4166666666667  L 14.1666666666666 19.25  L 12.0416666666666 19.25  C 11.8350694444445 19.25  11.6653645833334 19.3046875  11.5325520833334 19.4140625  C 11.3997395833334 19.5234375  11.3333333333334 19.6631944444444  11.3333333333334 19.8333333333333  L 11.3333333333334 22.75  C 11.3333333333334 22.9201388888889  11.3997395833334 23.0598958333333  11.5325520833334 23.1692708333333  C 11.6653645833334 23.2786458333333  11.8350694444445 23.3333333333333  12.0416666666666 23.3333333333333  L 21.9583333333334 23.3333333333333  C 22.1649305555555 23.3333333333333  22.3346354166666 23.2786458333333  22.4674479166666 23.1692708333333  Z M 19.6341145833334 6.8359375  C 19.7669270833334 6.7265625  19.8333333333334 6.58680555555556  19.8333333333334 6.41666666666666  L 19.8333333333334 3.5  C 19.8333333333334 3.32986111111111  19.7669270833334 3.19010416666666  19.6341145833334 3.08072916666666  C 19.5013020833334 2.97135416666666  19.3315972222222 2.91666666666666  19.125 2.91666666666666  L 14.875 2.91666666666666  C 14.6684027777778 2.91666666666666  14.4986979166666 2.97135416666666  14.3658854166666 3.08072916666666  C 14.2330729166666 3.19010416666666  14.1666666666666 3.32986111111111  14.1666666666666 3.5  L 14.1666666666666 6.41666666666666  C 14.1666666666666 6.58680555555556  14.2330729166666 6.7265625  14.3658854166666 6.8359375  C 14.4986979166666 6.9453125  14.6684027777778 7  14.875 7  L 19.125 7  C 19.3315972222222 7  19.5013020833334 6.9453125  19.6341145833334 6.8359375  Z M 31.7200520833334 6.97265625  C 33.2400173611111 9.11762152777777  34 11.4600694444444  34 14  C 34 16.5399305555556  33.2400173611111 18.8823784722222  31.7200520833334 21.02734375  C 30.2000868055555 23.1723090277778  28.1378038194445 24.8706597222222  25.533203125 26.1223958333333  C 22.9286024305555 27.3741319444444  20.0842013888889 28  17 28  C 13.9157986111111 28  11.0713975694445 27.3741319444444  8.466796875 26.1223958333333  C 5.86219618055554 24.8706597222222  3.79991319444446 23.1723090277778  2.27994791666663 21.02734375  C 0.759982638888914 18.8823784722222  0 16.5399305555556  0 14  C 0 11.4600694444444  0.759982638888914 9.11762152777777  2.27994791666663 6.97265625  C 3.79991319444446 4.82769097222222  5.86219618055554 3.12934027777777  8.466796875 1.87760416666666  C 11.0713975694445 0.62586805555555  13.9157986111111 0  17 0  C 20.0842013888889 0  22.9286024305555 0.62586805555555  25.533203125 1.87760416666666  C 28.1378038194445 3.12934027777777  30.2000868055555 4.82769097222222  31.7200520833334 6.97265625  Z " fill-rule="nonzero" fill="#7f7f7f" stroke="none" transform="matrix(1 0 0 1 548 42 )" />
  </g>
</svg>