<?xml version="1.0" encoding="utf-8"?>
<svg version="1.1" xmlns:xlink="http://www.w3.org/1999/xlink" width="606px" height="229px" xmlns="http://www.w3.org/2000/svg">
  <g transform="matrix(1 0 0 1 0 -132 )">
    <path d="M 0 132  L 606 132  L 606 361  L 0 361  L 0 132  " fill-rule="nonzero" fill="#cccccc" stroke="none" />
    <path d="M 16 148  L 590 148  L 590 345  L 16 345  L 16 148  " fill-rule="nonzero" fill="#ffffff" stroke="none" />
    <path d="M 332.295 200.7  C 322.677 200.7  315.12 193.143  315.12 183.525  C 315.12 173.907  322.677 166.35  332.295 166.35  C 341.913 166.35  349.47 173.907  349.47 183.525  C 349.47 193.143  341.913 200.7  332.295 200.7  " fill-rule="nonzero" fill="#cccccc" stroke="none" />
    <path d="M 22 340  L 22 237.7  L 162.75 191.2  L 359.8 297.827722772277  L 472.4 219.1  L 585 297.827722772277  L 585 340  L 22 340  " fill-rule="nonzero" fill="#169bd5" stroke="none" />
  </g>
</svg>