<?xml version="1.0" encoding="utf-8"?>
<svg version="1.1" xmlns:xlink="http://www.w3.org/1999/xlink" width="106px" height="89px" xmlns="http://www.w3.org/2000/svg">
  <g transform="matrix(1 0 0 1 -45 -240 )">
    <path d="M 45 240  L 151 240  L 151 329  L 45 329  L 45 240  " fill-rule="nonzero" fill="#cccccc" stroke="none" />
    <path d="M 51 246  L 145 246  L 145 323  L 51 323  L 51 246  " fill-rule="nonzero" fill="#ffffff" stroke="none" />
    <path d="M 106.795 266.7  C 103.057 266.7  100.12 263.763  100.12 260.025  C 100.12 256.287  103.057 253.35  106.795 253.35  C 110.533 253.35  113.47 256.287  113.47 260.025  C 113.47 263.763  110.533 266.7  106.795 266.7  " fill-rule="nonzero" fill="#cccccc" stroke="none" />
    <path d="M 53 321  L 53 280.85  L 75.5 262.6  L 107 284.224528301887  L 125 273.55  L 143 284.224528301887  L 143 321  L 53 321  " fill-rule="nonzero" fill="#169bd5" stroke="none" />
  </g>
</svg>