<?xml version="1.0" encoding="utf-8"?>
<svg version="1.1" xmlns:xlink="http://www.w3.org/1999/xlink" width="164px" height="109px" xmlns="http://www.w3.org/2000/svg">
  <g transform="matrix(1 0 0 1 -383 -818 )">
    <path d="M 383 818  L 547 818  L 547 927  L 383 927  L 383 818  " fill-rule="nonzero" fill="#cccccc" stroke="none" />
    <path d="M 391 826  L 539 826  L 539 919  L 391 919  L 391 826  " fill-rule="nonzero" fill="#ffffff" stroke="none" />
    <path d="M 476.455 850.7  C 471.877 850.7  468.28 847.103  468.28 842.525  C 468.28 837.947  471.877 834.35  476.455 834.35  C 481.033 834.35  484.63 837.947  484.63 842.525  C 484.63 847.103  481.033 850.7  476.455 850.7  " fill-rule="nonzero" fill="#cccccc" stroke="none" />
    <path d="M 394 917  L 394 868.6  L 429.75 846.6  L 479.8 881.907317073171  L 508.4 859.8  L 537 881.907317073171  L 537 917  L 394 917  " fill-rule="nonzero" fill="#169bd5" stroke="none" />
  </g>
</svg>