<?xml version="1.0" encoding="utf-8"?>
<svg version="1.1" xmlns:xlink="http://www.w3.org/1999/xlink" width="32px" height="29px" xmlns="http://www.w3.org/2000/svg">
  <g transform="matrix(1 0 0 1 -326 -569 )">
    <path d="M 2.46153846153846 22.2678571428571  L 2.46153846153846 26.9285714285714  L 8 26.9285714285714  L 8 22.2678571428571  L 2.46153846153846 22.2678571428571  Z M 9.23076923076923 22.2678571428571  L 9.23076923076923 26.9285714285714  L 15.3846153846154 26.9285714285714  L 15.3846153846154 22.2678571428571  L 9.23076923076923 22.2678571428571  Z M 2.46153846153846 16.0535714285714  L 2.46153846153846 21.2321428571429  L 8 21.2321428571429  L 8 16.0535714285714  L 2.46153846153846 16.0535714285714  Z M 9.23076923076923 16.0535714285714  L 9.23076923076923 21.2321428571429  L 15.3846153846154 21.2321428571429  L 15.3846153846154 16.0535714285714  L 9.23076923076923 16.0535714285714  Z M 2.46153846153846 10.3571428571429  L 2.46153846153846 15.0178571428571  L 8 15.0178571428571  L 8 10.3571428571429  L 2.46153846153846 10.3571428571429  Z M 16.6153846153846 22.2678571428571  L 16.6153846153846 26.9285714285714  L 22.7692307692308 26.9285714285714  L 22.7692307692308 22.2678571428571  L 16.6153846153846 22.2678571428571  Z M 9.23076923076923 10.3571428571429  L 9.23076923076923 15.0178571428571  L 15.3846153846154 15.0178571428571  L 15.3846153846154 10.3571428571429  L 9.23076923076923 10.3571428571429  Z M 24 22.2678571428571  L 24 26.9285714285714  L 29.5384615384615 26.9285714285714  L 29.5384615384615 22.2678571428571  L 24 22.2678571428571  Z M 16.6153846153846 16.0535714285714  L 16.6153846153846 21.2321428571429  L 22.7692307692308 21.2321428571429  L 22.7692307692308 16.0535714285714  L 16.6153846153846 16.0535714285714  Z M 9.66346153846154 7.61411830357143  C 9.78525641025641 7.51162574404762  9.84615384615385 7.39025297619047  9.84615384615385 7.25  L 9.84615384615385 2.58928571428571  C 9.84615384615385 2.44903273809524  9.78525641025641 2.32765997023809  9.66346153846154 2.22516741071429  C 9.54166666666667 2.12267485119047  9.3974358974359 2.07142857142857  9.23076923076923 2.07142857142857  L 8 2.07142857142857  C 7.83333333333333 2.07142857142857  7.68910256410256 2.12267485119047  7.56730769230769 2.22516741071429  C 7.44551282051282 2.32765997023809  7.38461538461539 2.44903273809524  7.38461538461539 2.58928571428571  L 7.38461538461539 7.25  C 7.38461538461539 7.39025297619047  7.44551282051282 7.51162574404762  7.56730769230769 7.61411830357143  C 7.68910256410256 7.71661086309524  7.83333333333333 7.76785714285714  8 7.76785714285714  L 9.23076923076923 7.76785714285714  C 9.3974358974359 7.76785714285714  9.54166666666667 7.71661086309524  9.66346153846154 7.61411830357143  Z M 24 16.0535714285714  L 24 21.2321428571429  L 29.5384615384615 21.2321428571429  L 29.5384615384615 16.0535714285714  L 24 16.0535714285714  Z M 16.6153846153846 10.3571428571429  L 16.6153846153846 15.0178571428571  L 22.7692307692308 15.0178571428571  L 22.7692307692308 10.3571428571429  L 16.6153846153846 10.3571428571429  Z M 24 10.3571428571429  L 24 15.0178571428571  L 29.5384615384615 15.0178571428571  L 29.5384615384615 10.3571428571429  L 24 10.3571428571429  Z M 24.4326923076923 7.61411830357143  C 24.5544871794872 7.51162574404762  24.6153846153846 7.39025297619047  24.6153846153846 7.25  L 24.6153846153846 2.58928571428571  C 24.6153846153846 2.44903273809524  24.5544871794872 2.32765997023809  24.4326923076923 2.22516741071429  C 24.3108974358974 2.12267485119047  24.1666666666667 2.07142857142857  24 2.07142857142857  L 22.7692307692308 2.07142857142857  C 22.6025641025641 2.07142857142857  22.4583333333333 2.12267485119047  22.3365384615385 2.22516741071429  C 22.2147435897436 2.32765997023809  22.1538461538462 2.44903273809524  22.1538461538462 2.58928571428571  L 22.1538461538462 7.25  C 22.1538461538462 7.39025297619047  22.2147435897436 7.51162574404762  22.3365384615385 7.61411830357143  C 22.4583333333333 7.71661086309524  22.6025641025641 7.76785714285714  22.7692307692308 7.76785714285714  L 24 7.76785714285714  C 24.1666666666667 7.76785714285714  24.3108974358974 7.71661086309524  24.4326923076923 7.61411830357143  Z M 31.2692307692308 4.7578125  C 31.7564102564103 5.16778273809524  32 5.65327380952381  32 6.21428571428571  L 32 26.9285714285714  C 32 27.4895833333333  31.7564102564103 27.9750744047619  31.2692307692308 28.3850446428571  C 30.7820512820513 28.7950148809524  30.2051282051282 29  29.5384615384615 29  L 2.46153846153846 29  C 1.7948717948718 29  1.21794871794872 28.7950148809524  0.730769230769231 28.3850446428571  C 0.243589743589744 27.9750744047619  0 27.4895833333333  0 26.9285714285714  L 0 6.21428571428571  C 0 5.65327380952381  0.243589743589744 5.16778273809524  0.730769230769231 4.7578125  C 1.21794871794872 4.34784226190476  1.7948717948718 4.14285714285714  2.46153846153846 4.14285714285714  L 4.92307692307692 4.14285714285714  L 4.92307692307692 2.58928571428571  C 4.92307692307692 1.87723214285714  5.22435897435897 1.26767113095238  5.82692307692308 0.760602678571429  C 6.42948717948718 0.253534226190477  7.15384615384615 0  8 0  L 9.23076923076923 0  C 10.0769230769231 0  10.8012820512821 0.253534226190477  11.4038461538462 0.760602678571429  C 12.0064102564103 1.26767113095238  12.3076923076923 1.87723214285714  12.3076923076923 2.58928571428571  L 12.3076923076923 4.14285714285714  L 19.6923076923077 4.14285714285714  L 19.6923076923077 2.58928571428571  C 19.6923076923077 1.87723214285714  19.9935897435897 1.26767113095238  20.5961538461538 0.760602678571429  C 21.198717948718 0.253534226190477  21.9230769230769 0  22.7692307692308 0  L 24 0  C 24.8461538461538 0  25.5705128205128 0.253534226190477  26.1730769230769 0.760602678571429  C 26.775641025641 1.26767113095238  27.0769230769231 1.87723214285714  27.0769230769231 2.58928571428571  L 27.0769230769231 4.14285714285714  L 29.5384615384615 4.14285714285714  C 30.2051282051282 4.14285714285714  30.7820512820513 4.34784226190476  31.2692307692308 4.7578125  Z " fill-rule="nonzero" fill="#000000" stroke="none" transform="matrix(1 0 0 1 326 569 )" />
  </g>
</svg>