<?xml version="1.0" encoding="utf-8"?>
<svg version="1.1" xmlns:xlink="http://www.w3.org/1999/xlink" width="148px" height="138px" xmlns="http://www.w3.org/2000/svg">
  <g transform="matrix(1 0 0 1 -167 -96 )">
    <path d="M 167 96  L 315 96  L 315 234  L 167 234  L 167 96  " fill-rule="nonzero" fill="#cccccc" stroke="none" />
    <path d="M 177 106  L 305 106  L 305 224  L 177 224  L 177 106  " fill-rule="nonzero" fill="#ffffff" stroke="none" />
    <path d="M 254.31 137.4  C 248.514 137.4  243.96 132.846  243.96 127.05  C 243.96 121.254  248.514 116.7  254.31 116.7  C 260.106 116.7  264.66 121.254  264.66 127.05  C 264.66 132.846  260.106 137.4  254.31 137.4  " fill-rule="nonzero" fill="#cccccc" stroke="none" />
    <path d="M 181 221  L 181 159.95  L 211.25 132.2  L 253.6 158.9  L 277.8 148.85  L 302 158.9  L 302 221  L 181 221  " fill-rule="nonzero" fill="#169bd5" stroke="none" />
  </g>
</svg>