<?xml version="1.0" encoding="utf-8"?>
<svg version="1.1" xmlns:xlink="http://www.w3.org/1999/xlink" width="204px" height="145px" xmlns="http://www.w3.org/2000/svg">
  <g transform="matrix(1 0 0 1 -308 -868 )">
    <path d="M 308 868  L 512 868  L 512 1013  L 308 1013  L 308 868  " fill-rule="nonzero" fill="#cccccc" stroke="none" />
    <path d="M 318 878  L 502 878  L 502 1003  L 318 1003  L 318 878  " fill-rule="nonzero" fill="#ffffff" stroke="none" />
    <path d="M 424.955 911.5  C 418.865 911.5  414.08 906.715  414.08 900.625  C 414.08 894.535  418.865 889.75  424.955 889.75  C 431.045 889.75  435.83 894.535  435.83 900.625  C 435.83 906.715  431.045 911.5  424.955 911.5  " fill-rule="nonzero" fill="#cccccc" stroke="none" />
    <path d="M 322 1000  L 322 935.1  L 366.25 905.6  L 428.2 949.676470588235  L 463.6 923.3  L 499 949.676470588235  L 499 1000  L 322 1000  " fill-rule="nonzero" fill="#169bd5" stroke="none" />
  </g>
</svg>