<?xml version="1.0" encoding="utf-8"?>
<svg version="1.1" xmlns:xlink="http://www.w3.org/1999/xlink" width="30px" height="23px" xmlns="http://www.w3.org/2000/svg">
  <g transform="matrix(1 0 0 1 -1415 -605 )">
    <path d="M 24.3536931818182 10.6015625  C 24.4815340909091 10.6995738636364  24.5454545454545 10.8248106060606  24.5454545454545 10.9772727272727  L 24.5454545454545 12.0227272727273  C 24.5454545454545 12.1751893939394  24.4815340909091 12.3004261363636  24.3536931818182 12.3984375  C 24.2258522727273 12.4964488636364  24.0625 12.5454545454545  23.8636363636364 12.5454545454545  L 16.3636363636364 12.5454545454545  L 16.3636363636364 18.2954545454545  C 16.3636363636364 18.4479166666667  16.2997159090909 18.5731534090909  16.171875 18.6711647727273  C 16.0440340909091 18.7691761363636  15.8806818181818 18.8181818181818  15.6818181818182 18.8181818181818  L 14.3181818181818 18.8181818181818  C 14.1193181818182 18.8181818181818  13.9559659090909 18.7691761363636  13.828125 18.6711647727273  C 13.7002840909091 18.5731534090909  13.6363636363636 18.4479166666667  13.6363636363636 18.2954545454545  L 13.6363636363636 12.5454545454545  L 6.13636363636364 12.5454545454545  C 5.9375 12.5454545454545  5.77414772727273 12.4964488636364  5.64630681818182 12.3984375  C 5.51846590909091 12.3004261363636  5.45454545454546 12.1751893939394  5.45454545454546 12.0227272727273  L 5.45454545454546 10.9772727272727  C 5.45454545454546 10.8248106060606  5.51846590909091 10.6995738636364  5.64630681818182 10.6015625  C 5.77414772727273 10.5035511363636  5.9375 10.4545454545455  6.13636363636364 10.4545454545455  L 13.6363636363636 10.4545454545455  L 13.6363636363636 4.70454545454546  C 13.6363636363636 4.55208333333333  13.7002840909091 4.42684659090909  13.828125 4.32883522727273  C 13.9559659090909 4.23082386363636  14.1193181818182 4.18181818181818  14.3181818181818 4.18181818181818  L 15.6818181818182 4.18181818181818  C 15.8806818181818 4.18181818181818  16.0440340909091 4.23082386363636  16.171875 4.32883522727273  C 16.2997159090909 4.42684659090909  16.3636363636364 4.55208333333333  16.3636363636364 4.70454545454546  L 16.3636363636364 10.4545454545455  L 23.8636363636364 10.4545454545455  C 24.0625 10.4545454545455  24.2258522727273 10.5035511363636  24.3536931818182 10.6015625  Z M 26.2713068181818 20.1413352272727  C 26.9389204545455 19.6294981060606  27.2727272727273 19.0142045454545  27 18.2954545454545  L 27 4.70454545454546  C 27.2727272727273 3.98579545454546  26.9389204545455 3.37050189393939  26.2713068181818 2.85866477272727  C 25.6036931818182 2.34682765151515  24.8011363636364 2.09090909090909  23.8636363636364 2  L 6.13636363636364 2  C 5.19886363636364 2.09090909090909  4.39630681818182 2.34682765151515  3.72869318181818 2.85866477272727  C 3.06107954545455 3.37050189393939  2.72727272727273 3.98579545454546  3 4.70454545454546  L 3 18.2954545454545  C 2.72727272727273 19.0142045454545  3.06107954545455 19.6294981060606  3.72869318181818 20.1413352272727  C 4.39630681818182 20.6531723484848  5.19886363636364 20.9090909090909  6.13636363636364 21  L 23.8636363636364 21  C 24.8011363636364 20.9090909090909  25.6036931818182 20.6531723484848  26.2713068181818 20.1413352272727  Z M 28.1995738636364 1.38032670454546  C 29.3998579545455 2.30054450757576  30 3.40861742424242  30 4.70454545454546  L 30 18.2954545454545  C 30 19.5913825757576  29.3998579545455 20.6994554924242  28.1995738636364 21.6196732954545  C 26.9992897727273 22.5398910984848  25.5539772727273 23  23.8636363636364 23  L 6.13636363636364 23  C 4.44602272727273 23  3.00071022727273 22.5398910984848  1.80042613636364 21.6196732954545  C 0.600142045454545 20.6994554924242  0 19.5913825757576  0 18.2954545454545  L 0 4.70454545454546  C 0 3.40861742424242  0.600142045454545 2.30054450757576  1.80042613636364 1.38032670454546  C 3.00071022727273 0.460108901515149  4.44602272727273 0  6.13636363636364 0  L 23.8636363636364 0  C 25.5539772727273 0  26.9992897727273 0.460108901515149  28.1995738636364 1.38032670454546  Z " fill-rule="nonzero" fill="#000000" stroke="none" transform="matrix(1 0 0 1 1415 605 )" />
  </g>
</svg>