<?xml version="1.0" encoding="utf-8"?>
<svg version="1.1" xmlns:xlink="http://www.w3.org/1999/xlink" width="156px" height="109px" xmlns="http://www.w3.org/2000/svg">
  <g transform="matrix(1 0 0 1 -555 -818 )">
    <path d="M 555 818  L 711 818  L 711 927  L 555 927  L 555 818  " fill-rule="nonzero" fill="#cccccc" stroke="none" />
    <path d="M 563 826  L 703 826  L 703 919  L 563 919  L 563 826  " fill-rule="nonzero" fill="#ffffff" stroke="none" />
    <path d="M 644.295 850.7  C 639.717 850.7  636.12 847.103  636.12 842.525  C 636.12 837.947  639.717 834.35  644.295 834.35  C 648.873 834.35  652.47 837.947  652.47 842.525  C 652.47 847.103  648.873 850.7  644.295 850.7  " fill-rule="nonzero" fill="#cccccc" stroke="none" />
    <path d="M 566 917  L 566 868.6  L 599.75 846.6  L 647 880.107692307692  L 674 859.8  L 701 880.107692307692  L 701 917  L 566 917  " fill-rule="nonzero" fill="#169bd5" stroke="none" />
  </g>
</svg>