<?xml version="1.0" encoding="utf-8"?>
<svg version="1.1" xmlns:xlink="http://www.w3.org/1999/xlink" width="32px" height="37px" xmlns="http://www.w3.org/2000/svg">
  <g transform="matrix(1 0 0 1 -44 -101 )">
    <path d="M 26.6666666666667 10.5714285714286  C 26.6666666666667 12.5948660714286  26.1180555555556 14.4668898809524  25.0208333333333 16.1875  C 25.6736111111111 16.3802083333333  26.2951388888889 16.6417410714286  26.8854166666667 16.9720982142857  C 27.4756944444444 17.3024553571429  28.09375 17.8048735119048  28.7395833333333 18.4793526785714  C 29.3854166666667 19.1538318452381  29.9375 19.9487537202381  30.3958333333333 20.8641183035714  C 30.8541666666667 21.7794828869048  31.2361111111111 22.9632626488095  31.5416666666667 24.4154575892857  C 31.8472222222222 25.8676525297619  32 27.495349702381  32 29.2985491071429  C 32 31.4183407738095  31.3055555555556 33.2318638392857  29.9166666666667 34.7391183035714  C 28.5277777777778 36.2463727678571  26.8541666666667 37  24.8958333333333 37  L 7.10416666666667 37  C 5.14583333333333 37  3.47222222222222 36.2463727678571  2.08333333333333 34.7391183035714  C 0.694444444444444 33.2318638392857  0 31.4183407738095  0 29.2985491071429  C 0 27.495349702381  0.152777777777778 25.8676525297619  0.458333333333333 24.4154575892857  C 0.763888888888889 22.9632626488095  1.14583333333333 21.7794828869048  1.60416666666667 20.8641183035714  C 2.0625 19.9487537202381  2.61458333333333 19.1538318452381  3.26041666666667 18.4793526785714  C 3.90625 17.8048735119048  4.52430555555556 17.3024553571429  5.11458333333333 16.9720982142857  C 5.70486111111111 16.6417410714286  6.32638888888889 16.3802083333333  6.97916666666667 16.1875  C 5.88194444444445 14.4668898809524  5.33333333333333 12.5948660714286  5.33333333333333 10.5714285714286  C 5.33333333333333 9.13988095238095  5.61458333333333 7.77371651785714  6.17708333333333 6.47293526785714  C 6.73958333333333 5.17215401785714  7.5 4.046875  8.45833333333333 3.09709821428571  C 9.41666666666667 2.14732142857143  10.5520833333333 1.39369419642857  11.8645833333333 0.836216517857142  C 13.1770833333333 0.278738839285713  14.5555555555556 0  16 0  C 17.4444444444444 0  18.8229166666667 0.278738839285713  20.1354166666667 0.836216517857142  C 21.4479166666667 1.39369419642857  22.5833333333333 2.14732142857143  23.5416666666667 3.09709821428571  C 24.5 4.046875  25.2604166666667 5.17215401785714  25.8229166666667 6.47293526785714  C 26.3854166666667 7.77371651785714  26.6666666666667 9.13988095238095  26.6666666666667 10.5714285714286  Z M 21.65625 4.96568080357143  C 20.09375 3.41713169642857  18.2083333333333 2.64285714285714  16 2.64285714285714  C 13.7916666666667 2.64285714285714  11.90625 3.41713169642857  10.34375 4.96568080357143  C 8.78125 6.51422991071429  8 8.3828125  8 10.5714285714286  C 8 12.7600446428571  8.78125 14.6286272321429  10.34375 16.1771763392857  C 11.90625 17.7257254464286  13.7916666666667 18.5  16 18.5  C 18.2083333333333 18.5  20.09375 17.7257254464286  21.65625 16.1771763392857  C 23.21875 14.6286272321429  24 12.7600446428571  24 10.5714285714286  C 24 8.3828125  23.21875 6.51422991071429  21.65625 4.96568080357143  Z M 7.10416666666667 34  L 24.8958333333333 34  C 26.1180555555556 34.3571428571429  27.1631944444444 33.8650483630952  28.03125 32.880859375  C 28.8993055555556 31.8966703869048  29.3333333333333 30.7025669642857  29.3333333333333 29.2985491071429  C 29.3333333333333 26.0087425595238  28.7881944444444 23.4140625  27.6979166666667 21.5145089285714  C 26.6076388888889 19.6149553571429  25.0416666666667 18.6170014880952  23 18.5206473214286  C 20.9861111111111 20.268787202381  18.6527777777778 21.1428571428571  16 21.1428571428571  C 13.3472222222222 21.1428571428571  11.0138888888889 20.268787202381  9 18.5206473214286  C 6.95833333333333 18.6170014880952  5.39236111111111 19.6149553571429  4.30208333333333 21.5145089285714  C 3.21180555555556 23.4140625  2.66666666666667 26.0087425595238  2.66666666666667 29.2985491071429  C 2.66666666666667 30.7025669642857  3.10069444444444 31.8966703869048  3.96875 32.880859375  C 4.83680555555556 33.8650483630952  5.88194444444445 34.3571428571429  7.10416666666667 34  Z " fill-rule="nonzero" fill="#000000" stroke="none" transform="matrix(1 0 0 1 44 101 )" />
  </g>
</svg>