<?xml version="1.0" encoding="utf-8"?>
<svg version="1.1" xmlns:xlink="http://www.w3.org/1999/xlink" width="75px" height="67px" xmlns="http://www.w3.org/2000/svg">
  <g transform="matrix(1 0 0 1 -22 -89 )">
    <path d="M 59.5 89  C 80.5 89  97 103.74  97 122.5  C 97 141.26  80.5 156  59.5 156  C 38.5 156  22 141.26  22 122.5  C 22 103.74  38.5 89  59.5 89  Z " fill-rule="nonzero" fill="#aaaaaa" stroke="none" />
    <path d="M 59.5 89.5  C 80.22 89.5  96.5 104.02  96.5 122.5  C 96.5 140.98  80.22 155.5  59.5 155.5  C 38.78 155.5  22.5 140.98  22.5 122.5  C 22.5 104.02  38.78 89.5  59.5 89.5  Z " stroke-width="1" stroke="#797979" fill="none" />
  </g>
</svg>