<?xml version="1.0" encoding="utf-8"?>
<svg version="1.1" xmlns:xlink="http://www.w3.org/1999/xlink" width="407px" height="170px" xmlns="http://www.w3.org/2000/svg">
  <g transform="matrix(1 0 0 1 -146 -211 )">
    <path d="M 146 211  L 553 211  L 553 381  L 146 381  L 146 211  " fill-rule="nonzero" fill="#cccccc" stroke="none" />
    <path d="M 158 223  L 541 223  L 541 369  L 158 369  L 158 223  " fill-rule="nonzero" fill="#ffffff" stroke="none" />
    <path d="M 370.39 262  C 363.25 262  357.64 256.39  357.64 249.25  C 357.64 242.11  363.25 236.5  370.39 236.5  C 377.53 236.5  383.14 242.11  383.14 249.25  C 383.14 256.39  377.53 262  370.39 262  " fill-rule="nonzero" fill="#cccccc" stroke="none" />
    <path d="M 163 365  L 163 289.65  L 256.5 255.4  L 387.4 330.665847665848  L 462.2 275.95  L 537 330.665847665848  L 537 365  L 163 365  " fill-rule="nonzero" fill="#169bd5" stroke="none" />
  </g>
</svg>