<?xml version="1.0" encoding="utf-8"?>
<svg version="1.1" xmlns:xlink="http://www.w3.org/1999/xlink" width="28px" height="29px" xmlns="http://www.w3.org/2000/svg">
  <g transform="matrix(1 0 0 1 -524 -498 )">
    <path d="M 27.3400673400673 21.6767676767677  C 27.7800224466891 22.1324354657688  28 22.685746352413  28 23.3367003367003  C 28 23.9876543209877  27.7800224466891 24.5409652076319  27.3400673400673 24.996632996633  L 24.1346801346801 28.3164983164983  C 23.6947250280584 28.7721661054994  23.1604938271605 29  22.5319865319865 29  C 21.9034792368126 29  21.3692480359147 28.7721661054994  20.9292929292929 28.3164983164983  L 14 21.1397306397306  L 7.07070707070707 28.3164983164983  C 6.6307519640853 28.7721661054994  6.09652076318743 29  5.46801346801347 29  C 4.83950617283951 29  4.30527497194164 28.7721661054994  3.86531986531987 28.3164983164983  L 0.65993265993266 24.996632996633  C 0.219977553310887 24.5409652076319  0 23.9876543209877  0 23.3367003367003  C 0 22.685746352413  0.219977553310887 22.1324354657688  0.65993265993266 21.6767676767677  L 7.58922558922559 14.5  L 0.65993265993266 7.32323232323232  C 0.219977553310887 6.8675645342312  0 6.31425364758698  0 5.66329966329966  C 0 5.01234567901235  0.219977553310887 4.45903479236812  0.65993265993266 4.003367003367  L 3.86531986531987 0.683501683501684  C 4.30527497194164 0.22783389450056  4.83950617283951 0  5.46801346801347 0  C 6.09652076318743 0  6.6307519640853 0.22783389450056  7.07070707070707 0.683501683501684  L 14 7.86026936026936  L 20.9292929292929 0.683501683501684  C 21.3692480359147 0.22783389450056  21.9034792368126 0  22.5319865319865 0  C 23.1604938271605 0  23.6947250280584 0.22783389450056  24.1346801346801 0.683501683501684  L 27.3400673400673 4.003367003367  C 27.7800224466891 4.45903479236812  28 5.01234567901235  28 5.66329966329966  C 28 6.31425364758698  27.7800224466891 6.8675645342312  27.3400673400673 7.32323232323232  L 20.4107744107744 14.5  L 27.3400673400673 21.6767676767677  Z " fill-rule="nonzero" fill="#000000" stroke="none" transform="matrix(1 0 0 1 524 498 )" />
  </g>
</svg>