<?xml version="1.0" encoding="utf-8"?>
<svg version="1.1" xmlns:xlink="http://www.w3.org/1999/xlink" width="21px" height="28px" xmlns="http://www.w3.org/2000/svg">
  <g transform="matrix(1 0 0 1 -1264 -588 )">
    <path d="M 20.5050505050505 20.9292929292929  C 20.8350168350168 21.3692480359147  21 21.9034792368126  21 22.5319865319865  C 21 23.1604938271605  20.8350168350168 23.6947250280584  20.5050505050505 24.1346801346801  L 18.1010101010101 27.3400673400673  C 17.7710437710438 27.7800224466891  17.3703703703704 28  16.8989898989899 28  C 16.4276094276094 28  16.026936026936 27.7800224466891  15.6969696969697 27.3400673400673  L 10.5 20.4107744107744  L 5.3030303030303 27.3400673400673  C 4.97306397306397 27.7800224466891  4.57239057239057 28  4.1010101010101 28  C 3.62962962962963 28  3.22895622895623 27.7800224466891  2.8989898989899 27.3400673400673  L 0.494949494949495 24.1346801346801  C 0.164983164983165 23.6947250280584  0 23.1604938271605  0 22.5319865319865  C 0 21.9034792368126  0.164983164983165 21.3692480359147  0.494949494949495 20.9292929292929  L 5.69191919191919 14  L 0.494949494949495 7.07070707070707  C 0.164983164983165 6.6307519640853  0 6.09652076318743  0 5.46801346801347  C 0 4.83950617283951  0.164983164983165 4.30527497194163  0.494949494949495 3.86531986531987  L 2.8989898989899 0.65993265993266  C 3.22895622895623 0.219977553310886  3.62962962962963 0  4.1010101010101 0  C 4.57239057239057 0  4.97306397306397 0.219977553310886  5.3030303030303 0.65993265993266  L 10.5 7.58922558922559  L 15.6969696969697 0.65993265993266  C 16.026936026936 0.219977553310886  16.4276094276094 0  16.8989898989899 0  C 17.3703703703704 0  17.7710437710438 0.219977553310886  18.1010101010101 0.65993265993266  L 20.5050505050505 3.86531986531987  C 20.8350168350168 4.30527497194163  21 4.83950617283951  21 5.46801346801347  C 21 6.09652076318743  20.8350168350168 6.6307519640853  20.5050505050505 7.07070707070707  L 15.3080808080808 14  L 20.5050505050505 20.9292929292929  Z " fill-rule="nonzero" fill="#000000" stroke="none" transform="matrix(1 0 0 1 1264 588 )" />
  </g>
</svg>