<?xml version="1.0" encoding="utf-8"?>
<svg version="1.1" xmlns:xlink="http://www.w3.org/1999/xlink" width="140px" height="26px" xmlns="http://www.w3.org/2000/svg">
  <defs>
    <mask fill="white" id="clip137">
      <path d="M 0 21  L 0 5  C 0 2.20000000000005  2.20000000000005 0  5 0  L 55.6666666666666 0  L 135 0  C 137.8 0  140 2.20000000000005  140 5  L 140 21  C 140 23.8  137.8 26  135 26  L 5 26  C 2.20000000000005 26  0 23.8  0 21  Z " fill-rule="evenodd" />
    </mask>
  </defs>
  <g transform="matrix(1 0 0 1 -861 -559 )">
    <path d="M 0 21  L 0 5  C 0 2.20000000000005  2.20000000000005 0  5 0  L 55.6666666666666 0  L 135 0  C 137.8 0  140 2.20000000000005  140 5  L 140 21  C 140 23.8  137.8 26  135 26  L 5 26  C 2.20000000000005 26  0 23.8  0 21  Z " fill-rule="nonzero" fill="#ffffff" stroke="none" transform="matrix(1 0 0 1 861 559 )" />
    <path d="M 0 21  L 0 5  C 0 2.20000000000005  2.20000000000005 0  5 0  L 55.6666666666666 0  L 135 0  C 137.8 0  140 2.20000000000005  140 5  L 140 21  C 140 23.8  137.8 26  135 26  L 5 26  C 2.20000000000005 26  0 23.8  0 21  Z " stroke-width="2" stroke="#797979" fill="none" transform="matrix(1 0 0 1 861 559 )" mask="url(#clip137)" />
  </g>
</svg>