<?xml version="1.0" encoding="utf-8"?>
<svg version="1.1" xmlns:xlink="http://www.w3.org/1999/xlink" width="60px" height="53px" xmlns="http://www.w3.org/2000/svg">
  <defs>
    <linearGradient gradientUnits="userSpaceOnUse" x1="29.8333333333334" y1="44.4611111111111" x2="29.8333333333334" y2="17.7711061111111" id="LinearGradient7">
      <stop id="Stop8" stop-color="#c1954f" offset="0" />
      <stop id="Stop9" stop-color="#f7e090" offset="1" />
    </linearGradient>
  </defs>
  <g transform="matrix(1 0 0 1 -258 -29 )">
    <path d="M 51.3754646840149 30.2798129384256  C 51.4002478314746 30.334892179787  51.4126394052045 30.417511041829  51 30.5276695245518  L 51 50.3561964146532  C 51.4126394052045 51.0722265523513  51.1771995043371 51.6918680176669  50.7063197026022 52.2151208106002  C 50.2354399008674 52.7383736035334  49.6778190830236 53  49.0334572490706 53  L 34 53  L 34 37.1371784879189  L 26 37.1371784879189  L 26 53  L 10.9665427509294 53  C 10.3221809169765 53  9.76456009913259 52.7383736035334  9.29368029739777 52.2151208106002  C 8.82280049566295 51.6918680176669  8.58736059479554 51.0722265523513  9 50.3561964146532  L 9 30.5276695245518  C 8.58736059479554 30.5001299038711  8.59355638166047 30.4588204728501  8.60594795539033 30.4037412314887  C 8.6183395291202 30.3486619901273  8.62453531598513 30.3073525591063  8.62453531598513 30.2798129384256  L 30 10.6991426344505  L 51.3754646840149 30.2798129384256  Z M 59.9628252788104 26.7065471551052  C 59.9876084262701 27.0783320342946  59.9008674101611 27.4019225772928  59.7026022304833 27.6773187840998  L 57.3977695167286 30.7342166796571  C 57.1995043370508 30.9820732657833  56.9392812887237 31.1335411795272  56.6171003717472 31.1886204208885  L 56.5055762081784 31.1886204208885  C 56.183395291202 31.1886204208885  55.9231722428749 31.0922317485061  55.724907063197 30.8994544037412  L 30 7.0639127045986  L 4.27509293680297 30.8994544037412  C 3.97769516728625 31.1197713691868  3.68029739776952 31.2161600415692  3.38289962825279 31.1886204208885  C 3.06071871127633 31.1335411795272  2.80049566294919 30.9820732657833  2.60223048327138 30.7342166796571  L 0.297397769516729 27.6773187840998  C 0.0991325898389096 27.4019225772928  0.0123915737298638 27.0783320342946  0.0371747211895911 26.7065471551052  C 0.0619578686493186 26.3347622759158  0.198265179677819 26.0387113535983  0.446096654275093 25.8183943881528  L 27.1747211895911 1.07404520654716  C 27.9677819083024 0.358015068849046  28.909541511772 0  30 0  C 31.090458488228 0  32.0322180916977 0.358015068849046  32.8252788104089 1.07404520654716  L 41.8959107806691 9.50116913484021  L 41.8959107806691 1.44583008573655  C 41.8959107806691 1.0602753962068  42.0074349442379 0.743569758378798  42.2304832713755 0.495713172252536  C 42.453531598513 0.247856586126268  42.7385377942999 0.123928293063134  43.0855018587361 0.123928293063134  L 50.2230483271375 0.123928293063134  C 50.5700123915737 0.123928293063134  50.8550185873606 0.247856586126268  51.0780669144981 0.495713172252536  C 51.3011152416357 0.743569758378798  51.4126394052045 1.0602753962068  51 1.44583008573655  L 51 18.3000779423227  L 59.5539033457249 25.8183943881528  C 59.8017348203222 26.0387113535983  59.9380421313507 26.3347622759158  59.9628252788104 26.7065471551052  Z " fill-rule="nonzero" fill="url(#LinearGradient7)" stroke="none" transform="matrix(1 0 0 1 258 29 )" />
  </g>
</svg>