<?xml version="1.0" encoding="utf-8"?>
<svg version="1.1" xmlns:xlink="http://www.w3.org/1999/xlink" width="50px" height="53px" xmlns="http://www.w3.org/2000/svg">
  <defs>
    <linearGradient gradientUnits="userSpaceOnUse" x1="25" y1="0" x2="25" y2="53" id="LinearGradient10">
      <stop id="Stop11" stop-color="#f4dc8d" offset="0" />
      <stop id="Stop12" stop-color="#c1954f" offset="1" />
    </linearGradient>
  </defs>
  <g transform="matrix(1 0 0 1 -1177 -29 )">
    <path d="M 34.9330357142857 46.6263950892857  C 38.0022321428571 44.9011346726191  40.522693452381 42.5597098214286  42.4944196428571 39.6021205357143  C 42.085193452381 36.5459449404762  41.2713913690476 34.0073474702381  40.0530133928571 31.986328125  C 38.8346354166667 29.9653087797619  37.1186755952381 28.7970610119048  34.9051339285714 28.4815848214286  C 33.6588541666667 29.9406622023809  32.1754092261905 31.0793340773809  30.4547991071429 31.8976004464286  C 28.7341889880952 32.7158668154762  26.9159226190476 33.125  25 33.125  C 23.0840773809524 33.125  21.2658110119048 32.7158668154762  19.5452008928571 31.8976004464286  C 17.8245907738095 31.0793340773809  16.3411458333333 29.9406622023809  15.0948660714286 28.4815848214286  C 12.8813244047619 28.7970610119048  11.1653645833333 29.9653087797619  9.94698660714286 31.986328125  C 8.72860863095238 34.0073474702381  7.91480654761905 36.5459449404762  7.50558035714286 39.6021205357143  C 9.47730654761905 42.5597098214286  11.9977678571429 44.9011346726191  15.0669642857143 46.6263950892857  C 18.1361607142857 48.3516555059524  21.4471726190476 49.2142857142857  25 49.2142857142857  C 28.5528273809524 49.2142857142857  31.8638392857143 48.3516555059524  34.9330357142857 46.6263950892857  Z M 32.5753348214286 26.9584263392857  C 34.66796875 24.740234375  35.7142857142857 22.0636160714286  35.7142857142857 18.9285714285714  C 35.7142857142857 15.7935267857143  34.66796875 13.1169084821429  32.5753348214286 10.8987165178571  C 30.4827008928571 8.68052455357143  27.9575892857143 7.57142857142857  25 7.57142857142857  C 22.0424107142857 7.57142857142857  19.5172991071429 8.68052455357143  17.4246651785714 10.8987165178571  C 15.33203125 13.1169084821429  14.2857142857143 15.7935267857143  14.2857142857143 18.9285714285714  C 14.2857142857143 22.0636160714286  15.33203125 24.740234375  17.4246651785714 26.9584263392857  C 19.5172991071429 29.1766183035714  22.0424107142857 30.2857142857143  25 30.2857142857143  C 27.9575892857143 30.2857142857143  30.4827008928571 29.1766183035714  32.5753348214286 26.9584263392857  Z M 48.0189732142857 16.2075892857143  C 49.3396577380952 19.4806547619048  50 22.9114583333333  50 26.5  C 50 30.0885416666667  49.3396577380952 33.514415922619  48.0189732142857 36.7776227678571  C 46.6982886904762 40.0408296130952  44.9265252976191 42.8603980654762  42.7036830357143 45.236328125  C 40.4808407738095 47.6122581845238  37.8255208333333 49.5001860119048  34.7377232142857 50.9001116071429  C 31.6499255952381 52.300037202381  28.4040178571429 53  25 53  C 21.6145833333333 53  18.3779761904762 52.300037202381  15.2901785714286 50.9001116071429  C 12.202380952381 49.5001860119048  9.54241071428571 47.6171875  7.31026785714286 45.2511160714286  C 5.078125 42.8850446428571  3.30171130952381 40.0654761904762  1.98102678571429 36.7924107142857  C 0.660342261904762 33.5193452380952  0 30.0885416666667  0 26.5  C 0 22.9114583333333  0.660342261904762 19.4806547619048  1.98102678571429 16.2075892857143  C 3.30171130952381 12.9345238095238  5.078125 10.1149553571429  7.31026785714286 7.74888392857143  C 9.54241071428571 5.3828125  12.202380952381 3.49981398809524  15.2901785714286 2.09988839285714  C 18.3779761904762 0.699962797619047  21.6145833333333 0  25 0  C 28.3854166666667 0  31.6220238095238 0.699962797619047  34.7098214285714 2.09988839285714  C 37.7976190476191 3.49981398809524  40.4575892857143 5.3828125  42.6897321428571 7.74888392857143  C 44.921875 10.1149553571429  46.6982886904762 12.9345238095238  48.0189732142857 16.2075892857143  Z " fill-rule="nonzero" fill="url(#LinearGradient10)" stroke="none" transform="matrix(1 0 0 1 1177 29 )" />
  </g>
</svg>