<?xml version="1.0" encoding="utf-8"?>
<svg version="1.1" xmlns:xlink="http://www.w3.org/1999/xlink" width="26px" height="25px" xmlns="http://www.w3.org/2000/svg">
  <g transform="matrix(1 0 0 1 -420 -252 )">
    <path d="M 2 19.1964285714286  L 2 23.2142857142857  L 6.5 23.2142857142857  L 6.5 19.1964285714286  L 2 19.1964285714286  Z M 7.5 19.1964285714286  L 7.5 23.2142857142857  L 12.5 23.2142857142857  L 12.5 19.1964285714286  L 7.5 19.1964285714286  Z M 2 13.8392857142857  L 2 18.3035714285714  L 6.5 18.3035714285714  L 6.5 13.8392857142857  L 2 13.8392857142857  Z M 7.5 13.8392857142857  L 7.5 18.3035714285714  L 12.5 18.3035714285714  L 12.5 13.8392857142857  L 7.5 13.8392857142857  Z M 2 8.92857142857143  L 2 12.9464285714286  L 6.5 12.9464285714286  L 6.5 8.92857142857143  L 2 8.92857142857143  Z M 13.5 19.1964285714286  L 13.5 23.2142857142857  L 18.5 23.2142857142857  L 18.5 19.1964285714286  L 13.5 19.1964285714286  Z M 7.5 8.92857142857143  L 7.5 12.9464285714286  L 12.5 12.9464285714286  L 12.5 8.92857142857143  L 7.5 8.92857142857143  Z M 19.5 19.1964285714286  L 19.5 23.2142857142857  L 24 23.2142857142857  L 24 19.1964285714286  L 19.5 19.1964285714286  Z M 13.5 13.8392857142857  L 13.5 18.3035714285714  L 18.5 18.3035714285714  L 18.5 13.8392857142857  L 13.5 13.8392857142857  Z M 7.8515625 6.56389508928572  C 7.95052083333333 6.47553943452381  8 6.37090773809524  8 6.25  L 8 2.23214285714286  C 8 2.11123511904762  7.95052083333333 2.00660342261905  7.8515625 1.91824776785714  C 7.75260416666667 1.82989211309524  7.63541666666667 1.78571428571428  7.5 1.78571428571428  L 6.5 1.78571428571428  C 6.36458333333333 1.78571428571428  6.24739583333333 1.82989211309524  6.1484375 1.91824776785714  C 6.04947916666667 2.00660342261905  6 2.11123511904762  6 2.23214285714286  L 6 6.25  C 6 6.37090773809524  6.04947916666667 6.47553943452381  6.1484375 6.56389508928572  C 6.24739583333333 6.65225074404762  6.36458333333333 6.69642857142857  6.5 6.69642857142857  L 7.5 6.69642857142857  C 7.63541666666667 6.69642857142857  7.75260416666667 6.65225074404762  7.8515625 6.56389508928572  Z M 19.5 13.8392857142857  L 19.5 18.3035714285714  L 24 18.3035714285714  L 24 13.8392857142857  L 19.5 13.8392857142857  Z M 13.5 8.92857142857143  L 13.5 12.9464285714286  L 18.5 12.9464285714286  L 18.5 8.92857142857143  L 13.5 8.92857142857143  Z M 19.5 8.92857142857143  L 19.5 12.9464285714286  L 24 12.9464285714286  L 24 8.92857142857143  L 19.5 8.92857142857143  Z M 19.8515625 6.56389508928572  C 19.9505208333333 6.47553943452381  20 6.37090773809524  20 6.25  L 20 2.23214285714286  C 20 2.11123511904762  19.9505208333333 2.00660342261905  19.8515625 1.91824776785714  C 19.7526041666667 1.82989211309524  19.6354166666667 1.78571428571428  19.5 1.78571428571428  L 18.5 1.78571428571428  C 18.3645833333333 1.78571428571428  18.2473958333333 1.82989211309524  18.1484375 1.91824776785714  C 18.0494791666667 2.00660342261905  18 2.11123511904762  18 2.23214285714286  L 18 6.25  C 18 6.37090773809524  18.0494791666667 6.47553943452381  18.1484375 6.56389508928572  C 18.2473958333333 6.65225074404762  18.3645833333333 6.69642857142857  18.5 6.69642857142857  L 19.5 6.69642857142857  C 19.6354166666667 6.69642857142857  19.7526041666667 6.65225074404762  19.8515625 6.56389508928572  Z M 25.40625 4.1015625  C 25.8020833333333 4.45498511904762  26 4.8735119047619  26 5.35714285714286  L 26 23.2142857142857  C 26 23.6979166666667  25.8020833333333 24.116443452381  25.40625 24.4698660714286  C 25.0104166666667 24.8232886904762  24.5416666666667 25  24 25  L 2 25  C 1.45833333333333 25  0.989583333333333 24.8232886904762  0.59375 24.4698660714286  C 0.197916666666667 24.116443452381  0 23.6979166666667  0 23.2142857142857  L 0 5.35714285714286  C 0 4.8735119047619  0.197916666666667 4.45498511904762  0.59375 4.1015625  C 0.989583333333333 3.74813988095238  1.45833333333333 3.57142857142857  2 3.57142857142857  L 4 3.57142857142857  L 4 2.23214285714286  C 4 1.61830357142857  4.24479166666667 1.09281994047619  4.734375 0.655691964285715  C 5.22395833333333 0.218563988095238  5.8125 0  6.5 0  L 7.5 0  C 8.1875 0  8.77604166666667 0.218563988095238  9.265625 0.655691964285715  C 9.75520833333333 1.09281994047619  10 1.61830357142857  10 2.23214285714286  L 10 3.57142857142857  L 16 3.57142857142857  L 16 2.23214285714286  C 16 1.61830357142857  16.2447916666667 1.09281994047619  16.734375 0.655691964285715  C 17.2239583333333 0.218563988095238  17.8125 0  18.5 0  L 19.5 0  C 20.1875 0  20.7760416666667 0.218563988095238  21.265625 0.655691964285715  C 21.7552083333333 1.09281994047619  22 1.61830357142857  22 2.23214285714286  L 22 3.57142857142857  L 24 3.57142857142857  C 24.5416666666667 3.57142857142857  25.0104166666667 3.74813988095238  25.40625 4.1015625  Z " fill-rule="nonzero" fill="#000000" stroke="none" transform="matrix(1 0 0 1 420 252 )" />
  </g>
</svg>