<?xml version="1.0" encoding="utf-8"?>
<svg version="1.1" xmlns:xlink="http://www.w3.org/1999/xlink" width="16px" height="14px" xmlns="http://www.w3.org/2000/svg">
  <g transform="matrix(1 0 0 1 -1245 -654 )">
    <path d="M 15.703125 8.46164772727273  C 15.9010416666667 8.5875946969697  16 8.73674242424242  16 8.90909090909091  C 16 9.08143939393939  15.9010416666667 9.23058712121212  15.703125 9.35653409090909  L 8.703125 13.8110795454545  C 8.50520833333333 13.9370265151515  8.27083333333333 14  8 14  C 7.72916666666667 14  7.49479166666667 13.9370265151515  7.296875 13.8110795454545  L 0.296875 9.35653409090909  C 0.0989583333333333 9.23058712121212  0 9.08143939393939  0 8.90909090909091  C 0 8.73674242424242  0.0989583333333333 8.5875946969697  0.296875 8.46164772727273  C 0.494791666666667 8.33570075757576  0.729166666666667 8.27272727272727  1 8  L 15 8  C 15.2708333333333 8.27272727272727  15.5052083333333 8.33570075757576  15.703125 8.46164772727273  Z M 15.703125 4.64346590909091  C 15.9010416666667 4.76941287878788  16 4.9185606060606  16 5.09090909090909  C 16 5.26325757575757  15.9010416666667 5.4124053030303  15.703125 5.53835227272727  C 15.5052083333333 5.66429924242424  15.2708333333333 5.72727272727273  15 6  L 1 6  C 0.729166666666667 5.72727272727273  0.494791666666667 5.66429924242424  0.296875 5.53835227272727  C 0.0989583333333333 5.4124053030303  0 5.26325757575757  0 5.09090909090909  C 0 4.9185606060606  0.0989583333333333 4.76941287878788  0.296875 4.64346590909091  L 7.296875 0.188920454545455  C 7.49479166666667 0.0629734848484835  7.72916666666667 0  8 0  C 8.27083333333333 0  8.50520833333333 0.0629734848484835  8.703125 0.188920454545455  L 15.703125 4.64346590909091  Z " fill-rule="nonzero" fill="#000000" stroke="none" transform="matrix(1 0 0 1 1245 654 )" />
  </g>
</svg>