<?xml version="1.0" encoding="utf-8"?>
<svg version="1.1" xmlns:xlink="http://www.w3.org/1999/xlink" width="52px" height="33px" xmlns="http://www.w3.org/2000/svg">
  <g transform="matrix(1 0 0 1 -277 -153 )">
    <path d="M 277 153  L 329 153  L 329 186  L 277 186  L 277 153  " fill-rule="nonzero" fill="#cccccc" stroke="none" />
    <path d="M 279 155  L 327 155  L 327 184  L 279 184  L 279 155  " fill-rule="nonzero" fill="#ffffff" stroke="none" />
    <path d="M 306.515 162.9  C 305.129 162.9  304.04 161.811  304.04 160.425  C 304.04 159.039  305.129 157.95  306.515 157.95  C 307.901 157.95  308.99 159.039  308.99 160.425  C 308.99 161.811  307.901 162.9  306.515 162.9  " fill-rule="nonzero" fill="#cccccc" stroke="none" />
    <path d="M 280 183  L 280 168.15  L 291.5 161.4  L 307.6 172.719230769231  L 316.8 165.45  L 326 172.719230769231  L 326 183  L 280 183  " fill-rule="nonzero" fill="#169bd5" stroke="none" />
  </g>
</svg>