<?xml version="1.0" encoding="utf-8"?>
<svg version="1.1" xmlns:xlink="http://www.w3.org/1999/xlink" width="87px" height="66px" xmlns="http://www.w3.org/2000/svg">
  <g transform="matrix(1 0 0 1 -260 -136 )">
    <path d="M 303.5 136  C 327.86 136  347 150.52  347 169  C 347 187.48  327.86 202  303.5 202  C 279.14 202  260 187.48  260 169  C 260 150.52  279.14 136  303.5 136  Z " fill-rule="nonzero" fill="#ffffff" stroke="none" />
    <path d="M 303.5 136.5  C 327.58 136.5  346.5 150.8  346.5 169  C 346.5 187.2  327.58 201.5  303.5 201.5  C 279.42 201.5  260.5 187.2  260.5 169  C 260.5 150.8  279.42 136.5  303.5 136.5  Z " stroke-width="1" stroke="#797979" fill="none" />
  </g>
</svg>