<?xml version="1.0" encoding="utf-8"?>
<svg version="1.1" xmlns:xlink="http://www.w3.org/1999/xlink" width="61px" height="59px" xmlns="http://www.w3.org/2000/svg">
  <g transform="matrix(1 0 0 1 -193 -916 )">
    <path d="M 60.0877763328999 24.3211963589077  L 54.6144343302991 29.5  L 60.0877763328999 34.6788036410923  C 60.8810143042913 35.3948851322063  61.1454269614218 36.2899869960988  60.8810143042913 37.3641092327698  C 60.5637191157347 38.4126571304725  59.8762462071955 39.0648027741656  58.8185955786736 39.3205461638492  L 51.3621586475943 41.1618985695709  L 53.4642392717815 48.2971391417425  C 53.7815344603381 49.3456870394452  53.5303424360642 50.2407889033377  52.7106631989597 50.98244473342  C 51.9438664932813 51.7752492414391  51.0184221933247 52.0182054616385  49.9343302990897 51.7113133940182  L 42.5572171651495 49.6781534460338  L 40.6534460338101 56.8901170351105  C 40.3890333766797 57.9130905938448  39.714781100997 58.5780234070221  38.630689206762 58.8849154746424  C 38.3133940182055 58.9360641525791  38.0622019939315 58.9616384915475  37.8771131339402 58.9616384915475  C 37.0574338968357 58.9616384915475  36.383181621153 58.6803207628955  35.8543563068921 58.1176853055917  L 30.5 52.8237971391417  L 25.1456436931079 58.1176853055917  C 24.4052882531426 58.8849154746424  23.479843953186 59.140658864326  22.369310793238 58.8849154746424  C 21.285218899003 58.6035977459905  20.6109666233203 57.9386649328132  20.3465539661899 56.8901170351105  L 18.4427828348505 49.6781534460338  L 11.0656697009103 51.7113133940182  C 9.98157780667534 52.0182054616385  9.05613350671868 51.7752492414391  8.28933680104031 50.98244473342  C 7.46965756393585 50.2407889033377  7.2184655396619 49.3456870394452  7.53576072821847 48.2971391417425  L 9.63784135240572 41.1618985695709  L 2.1814044213264 39.3205461638492  C 1.12375379280451 39.0648027741656  0.43628088426528 38.4126571304725  0.118985695708713 37.3641092327698  C -0.14542696142176 36.2899869960988  0.118985695708713 35.3948851322063  0.91222366710013 34.6788036410923  L 6.38556566970091 29.5  L 0.91222366710013 24.3211963589077  C 0.118985695708713 23.6051148677937  -0.14542696142176 22.7100130039012  0.118985695708713 21.6358907672302  C 0.43628088426528 20.5873428695275  1.12375379280451 19.9351972258344  2.1814044213264 19.6794538361508  L 9.63784135240572 17.8381014304291  L 7.53576072821847 10.7028608582575  C 7.2184655396619 9.65431296055483  7.46965756393585 8.75921109666233  8.28933680104031 8.01755526657997  C 9.05613350671868 7.2247507585609  9.98157780667534 6.98179453836151  11.0656697009103 7.28868660598179  L 18.4427828348505 9.32184655396619  L 20.3465539661899 2.10988296488947  C 20.6109666233203 1.06133506718682  21.285218899003 0.40918942349371  22.369310793238 0.15344603381014  C 23.4534026874729 -0.15344603381014  24.3788469874296 0.0895101863892497  25.1456436931079 0.882314694408324  L 30.5 6.21456436931079  L 35.8543563068921 0.882314694408324  C 36.6211530125704 0.115084525357609  37.5465973125271 -0.127871694841795  38.630689206762 0.15344603381014  C 39.714781100997 0.40918942349371  40.3890333766797 1.06133506718682  40.6534460338101 2.10988296488947  L 42.5572171651495 9.32184655396619  L 49.9343302990897 7.28868660598179  C 51.0184221933247 6.98179453836151  51.9438664932813 7.2247507585609  52.7106631989597 8.01755526657997  C 53.5303424360642 8.75921109666233  53.7815344603381 9.65431296055483  53.4642392717815 10.7028608582575  L 51.3621586475943 17.8381014304291  L 58.8185955786736 19.6794538361508  C 59.8762462071955 19.9351972258344  60.5637191157347 20.5873428695275  60.8810143042913 21.6358907672302  C 61.1454269614218 22.7100130039012  60.8810143042913 23.6051148677937  60.0877763328999 24.3211963589077  Z " fill-rule="nonzero" fill="#f59a23" stroke="none" transform="matrix(1 0 0 1 193 916 )" />
  </g>
</svg>