<?xml version="1.0" encoding="utf-8"?>
<svg version="1.1" xmlns:xlink="http://www.w3.org/1999/xlink" width="65px" height="54px" xmlns="http://www.w3.org/2000/svg">
  <g transform="matrix(1 0 0 1 -38 -918 )">
    <path d="M 55.6567534076828 30.8511301636789  C 55.6836018174308 30.9072486360094  55.6970260223048 30.9914263445051  55 31.103663289166  L 55 51.3063133281372  C 55.6970260223048 52.0358534684334  55.4419661296985 52.6671862821512  54.9318463444857 53.2003117692907  C 54.421726559273 53.7334372564302  53.8176373399422 54  53.1195786864932 54  L 37 54  L 37 37.8378799688231  L 28 37.8378799688231  L 28 54  L 11.8804213135068 54  C 11.1823626600578 54  10.578273440727 53.7334372564302  10.0681536555142 53.2003117692907  C 9.55803387030153 52.6671862821512  9.30297397769517 52.0358534684334  10 51.3063133281372  L 10 31.103663289166  C 9.30297397769517 31.0756040530008  9.30968608013218 31.0335151987529  9.3231102850062 30.9773967264224  C 9.33653448988021 30.921278254092  9.34324659231723 30.8791893998441  9.34324659231723 30.8511301636789  L 32.5 10.9010132501949  L 55.6567534076828 30.8511301636789  Z M 64.9597273853779 27.2104442712393  C 64.986575795126 27.58924395947  64.8926063610079 27.9189399844115  64.6778190830235 28.1995323460639  L 62.180916976456 31.3141075604053  C 61.9661296984717 31.5666406858924  61.6842213961173 31.7209664848012  61.3351920693928 31.7770849571317  L 61.2143742255266 31.7770849571317  C 60.8653448988021 31.7770849571317  60.5834365964478 31.6788776305534  60.3686493184634 31.4824629773967  L 32.5 7.19719407638348  L 4.63135068153655 31.4824629773967  C 4.3091697645601 31.7069368667186  3.98698884758364 31.805144193297  3.66480793060719 31.7770849571317  C 3.31577860388269 31.7209664848012  3.03387030152829 31.5666406858924  2.81908302354399 31.3141075604053  L 0.322180916976456 28.1995323460639  C 0.107393638992152 27.9189399844115  0.0134242048740191 27.58924395947  0.040272614622057 27.2104442712393  C 0.0671210243700952 26.8316445830086  0.214787277984304 26.5300077942323  0.483271375464684 26.3055339049104  L 29.4392812887237 1.09431021044427  C 30.2984304006609 0.364770070148085  31.3186699710863 0  32.5 0  C 33.6813300289137 0  34.7015695993391 0.364770070148085  35.5607187112763 1.09431021044427  L 45.3872366790582 9.68043647700701  L 45.3872366790582 1.47310989867498  C 45.3872366790582 1.08028059236165  45.5080545229244 0.757599376461416  45.7496902106568 0.505066250974282  C 45.9913258983891 0.252533125487141  46.3000826104915 0.12626656274357  46.6759603469641 0.12626656274357  L 54.408302354399 0.12626656274357  C 54.7841800908715 0.12626656274357  55.092936802974 0.252533125487141  55.3345724907063 0.505066250974282  C 55.5762081784387 0.757599376461416  55.6970260223048 1.08028059236165  55 1.47310989867498  L 55 18.6453624318005  L 64.5167286245353 26.3055339049104  C 64.7852127220157 26.5300077942323  64.9328789756299 26.8316445830086  64.9597273853779 27.2104442712393  Z " fill-rule="nonzero" fill="#f59a23" stroke="none" transform="matrix(1 0 0 1 38 918 )" />
  </g>
</svg>