<?xml version="1.0" encoding="utf-8"?>
<svg version="1.1" xmlns:xlink="http://www.w3.org/1999/xlink" width="281px" height="204px" xmlns="http://www.w3.org/2000/svg">
  <g transform="matrix(1 0 0 1 -21 -620 )">
    <path d="M 21 620  L 302 620  L 302 824  L 21 824  L 21 620  " fill-rule="nonzero" fill="#cccccc" stroke="none" />
    <path d="M 35 634  L 288 634  L 288 810  L 35 810  L 35 634  " fill-rule="nonzero" fill="#ffffff" stroke="none" />
    <path d="M 182.42 681.2  C 173.852 681.2  167.12 674.468  167.12 665.9  C 167.12 657.332  173.852 650.6  182.42 650.6  C 190.988 650.6  197.72 657.332  197.72 665.9  C 197.72 674.468  190.988 681.2  182.42 681.2  " fill-rule="nonzero" fill="#cccccc" stroke="none" />
    <path d="M 40 805  L 40 713.7  L 100.75 672.2  L 185.8 732.692526690391  L 234.4 697.1  L 283 732.692526690391  L 283 805  L 40 805  " fill-rule="nonzero" fill="#169bd5" stroke="none" />
  </g>
</svg>