<?xml version="1.0" encoding="utf-8"?>
<svg version="1.1" xmlns:xlink="http://www.w3.org/1999/xlink" width="276px" height="160px" xmlns="http://www.w3.org/2000/svg">
  <g transform="matrix(1 0 0 1 -24 -401 )">
    <path d="M 24 401  L 300 401  L 300 561  L 24 561  L 24 401  " fill-rule="nonzero" fill="#cccccc" stroke="none" />
    <path d="M 35 412  L 289 412  L 289 550  L 35 550  L 35 412  " fill-rule="nonzero" fill="#ffffff" stroke="none" />
    <path d="M 179.52 449  C 172.8 449  167.52 443.72  167.52 437  C 167.52 430.28  172.8 425  179.52 425  C 186.24 425  191.52 430.28  191.52 437  C 191.52 443.72  186.24 449  179.52 449  " fill-rule="nonzero" fill="#cccccc" stroke="none" />
    <path d="M 39 546  L 39 474.5  L 100.5 442  L 186.6 500.782608695652  L 235.8 461.5  L 285 500.782608695652  L 285 546  L 39 546  " fill-rule="nonzero" fill="#169bd5" stroke="none" />
  </g>
</svg>