<?xml version="1.0" encoding="utf-8"?>
<svg version="1.1" xmlns:xlink="http://www.w3.org/1999/xlink" width="606px" height="230px" xmlns="http://www.w3.org/2000/svg">
  <g>
    <path d="M 0 0  L 606 0  L 606 230  L 0 230  L 0 0  " fill-rule="nonzero" fill="#cccccc" stroke="none" />
    <path d="M 16 16  L 590 16  L 590 214  L 16 214  L 16 16  " fill-rule="nonzero" fill="#ffffff" stroke="none" />
    <path d="M 332.37 69  C 322.71 69  315.12 61.41  315.12 51.75  C 315.12 42.09  322.71 34.5  332.37 34.5  C 342.03 34.5  349.62 42.09  349.62 51.75  C 349.62 61.41  342.03 69  332.37 69  " fill-rule="nonzero" fill="#cccccc" stroke="none" />
    <path d="M 22 208  L 22 105.7  L 162.5 59.2  L 359.2 165.643564356436  L 471.6 87.1  L 584 165.643564356436  L 584 208  L 22 208  " fill-rule="nonzero" fill="#169bd5" stroke="none" />
  </g>
</svg>