<?xml version="1.0" encoding="utf-8"?>
<svg version="1.1" xmlns:xlink="http://www.w3.org/1999/xlink" width="22px" height="16px" xmlns="http://www.w3.org/2000/svg">
  <g transform="matrix(1 0 0 1 -446 -359 )">
    <path d="M 21.4814814814815 11.959595959596  C 21.8271604938272 12.2109988776655  22 12.5162738496072  22 12.8754208754209  C 22 13.2345679012346  21.8271604938272 13.5398428731762  21.4814814814815 13.7912457912458  L 18.962962962963 15.6228956228956  C 18.6172839506173 15.8742985409652  18.1975308641975 16  17.7037037037037 16  C 17.2098765432099 16  16.7901234567901 15.8742985409652  16.4444444444444 15.6228956228956  L 11 11.6632996632997  L 5.55555555555556 15.6228956228956  C 5.20987654320988 15.8742985409652  4.79012345679012 16  4.2962962962963 16  C 3.80246913580247 16  3.38271604938272 15.8742985409652  3.03703703703704 15.6228956228956  L 0.518518518518518 13.7912457912458  C 0.17283950617284 13.5398428731762  0 13.2345679012346  0 12.8754208754209  C 0 12.5162738496072  0.17283950617284 12.2109988776655  0.518518518518518 11.959595959596  L 5.96296296296296 8  L 0.518518518518518 4.04040404040404  C 0.17283950617284 3.78900112233445  0 3.48372615039282  0 3.12457912457912  C 0 2.76543209876543  0.17283950617284 2.46015712682379  0.518518518518518 2.20875420875421  L 3.03703703703704 0.377104377104377  C 3.38271604938272 0.125701459034792  3.80246913580247 0  4.2962962962963 0  C 4.79012345679012 0  5.20987654320988 0.125701459034792  5.55555555555556 0.377104377104377  L 11 4.33670033670034  L 16.4444444444444 0.377104377104377  C 16.7901234567901 0.125701459034792  17.2098765432099 0  17.7037037037037 0  C 18.1975308641975 0  18.6172839506173 0.125701459034792  18.962962962963 0.377104377104377  L 21.4814814814815 2.20875420875421  C 21.8271604938272 2.46015712682379  22 2.76543209876543  22 3.12457912457912  C 22 3.48372615039282  21.8271604938272 3.78900112233445  21.4814814814815 4.04040404040404  L 16.037037037037 8  L 21.4814814814815 11.959595959596  Z " fill-rule="nonzero" fill="#000000" stroke="none" transform="matrix(1 0 0 1 446 359 )" />
  </g>
</svg>