<?xml version="1.0" encoding="utf-8"?>
<svg version="1.1" xmlns:xlink="http://www.w3.org/1999/xlink" width="407px" height="170px" xmlns="http://www.w3.org/2000/svg">
  <g transform="matrix(1 0 0 1 -345 -229 )">
    <path d="M 345 229  L 752 229  L 752 399  L 345 399  L 345 229  " fill-rule="nonzero" fill="#cccccc" stroke="none" />
    <path d="M 357 241  L 740 241  L 740 387  L 357 387  L 357 241  " fill-rule="nonzero" fill="#ffffff" stroke="none" />
    <path d="M 569.39 280  C 562.25 280  556.64 274.39  556.64 267.25  C 556.64 260.11  562.25 254.5  569.39 254.5  C 576.53 254.5  582.14 260.11  582.14 267.25  C 582.14 274.39  576.53 280  569.39 280  " fill-rule="nonzero" fill="#cccccc" stroke="none" />
    <path d="M 362 383  L 362 307.65  L 455.5 273.4  L 586.4 348.665847665848  L 661.2 293.95  L 736 348.665847665848  L 736 383  L 362 383  " fill-rule="nonzero" fill="#169bd5" stroke="none" />
  </g>
</svg>