<?xml version="1.0" encoding="utf-8"?>
<svg version="1.1" xmlns:xlink="http://www.w3.org/1999/xlink" width="156px" height="109px" xmlns="http://www.w3.org/2000/svg">
  <g transform="matrix(1 0 0 1 -1725 -918 )">
    <path d="M 1725 918  L 1881 918  L 1881 1027  L 1725 1027  L 1725 918  " fill-rule="nonzero" fill="#cccccc" stroke="none" />
    <path d="M 1733 926  L 1873 926  L 1873 1019  L 1733 1019  L 1733 926  " fill-rule="nonzero" fill="#ffffff" stroke="none" />
    <path d="M 1814.295 950.7  C 1809.717 950.7  1806.12 947.103  1806.12 942.525  C 1806.12 937.947  1809.717 934.35  1814.295 934.35  C 1818.873 934.35  1822.47 937.947  1822.47 942.525  C 1822.47 947.103  1818.873 950.7  1814.295 950.7  " fill-rule="nonzero" fill="#cccccc" stroke="none" />
    <path d="M 1736 1017  L 1736 968.6  L 1769.75 946.6  L 1817 980.107692307692  L 1844 959.8  L 1871 980.107692307692  L 1871 1017  L 1736 1017  " fill-rule="nonzero" fill="#169bd5" stroke="none" />
  </g>
</svg>