<?xml version="1.0" encoding="utf-8"?>
<svg version="1.1" xmlns:xlink="http://www.w3.org/1999/xlink" width="60px" height="50px" xmlns="http://www.w3.org/2000/svg">
  <defs>
    <linearGradient gradientUnits="userSpaceOnUse" x1="29.8333333333334" y1="41.9444444444444" x2="29.8333333333334" y2="16.7651944444444" id="LinearGradient163">
      <stop id="Stop164" stop-color="#c1954f" offset="0" />
      <stop id="Stop165" stop-color="#f7e090" offset="1" />
    </linearGradient>
  </defs>
  <g transform="matrix(1 0 0 1 -258 -27 )">
    <path d="M 51.3754646840149 28.5658612626656  C 51.4002478314746 28.6178228111198  51.4126394052045 28.695765133801  51 28.7996882307093  L 51 47.5058456742011  C 51.4126394052045 48.181345804105  51.1771995043371 48.7659132242141  50.7063197026022 49.2595479345284  C 50.2354399008674 49.7531826448428  49.6778190830236 50  49.0334572490706 50  L 34 50  L 34 35.0350740452065  L 26 35.0350740452065  L 26 50  L 10.9665427509294 50  C 10.3221809169765 50  9.76456009913259 49.7531826448428  9.29368029739777 49.2595479345284  C 8.82280049566295 48.7659132242141  8.58736059479554 48.181345804105  9 47.5058456742011  L 9 28.7996882307093  C 8.58736059479554 28.7737074564822  8.59355638166047 28.7347362951416  8.60594795539033 28.6827747466875  C 8.6183395291202 28.6308131982333  8.62453531598513 28.5918420368927  8.62453531598513 28.5658612626656  L 30 10.0935307872175  L 51.3754646840149 28.5658612626656  Z M 59.9628252788104 25.194855806703  C 59.9876084262701 25.5455962587685  59.9008674101611 25.8508703559366  59.7026022304833 26.1106780982073  L 57.3977695167286 28.9945440374123  C 57.1995043370508 29.228371005456  56.9392812887237 29.3712652637049  56.6171003717472 29.423226812159  L 56.5055762081784 29.423226812159  C 56.183395291202 29.423226812159  55.9231722428749 29.3322941023642  55.724907063197 29.1504286827747  L 30 6.66406858924396  L 4.27509293680297 29.1504286827747  C 3.97769516728625 29.3582748765913  3.68029739776952 29.4492075863861  3.38289962825279 29.423226812159  C 3.06071871127633 29.3712652637049  2.80049566294919 29.228371005456  2.60223048327138 28.9945440374123  L 0.297397769516729 26.1106780982073  C 0.0991325898389096 25.8508703559366  0.0123915737298638 25.5455962587685  0.0371747211895911 25.194855806703  C 0.0619578686493186 24.8441153546376  0.198265179677819 24.5648220316965  0.446096654275093 24.35697583788  L 27.1747211895911 1.01325019485581  C 27.9677819083024 0.337750064951931  28.909541511772 0  30 0  C 31.090458488228 0  32.0322180916977 0.337750064951931  32.8252788104089 1.01325019485581  L 41.8959107806691 8.96336710833983  L 41.8959107806691 1.36399064692128  C 41.8959107806691 1.00025980774227  42.0074349442379 0.701480904130941  42.2304832713755 0.467653936087298  C 42.453531598513 0.233826968043649  42.7385377942999 0.116913484021824  43.0855018587361 0.116913484021824  L 50.2230483271375 0.116913484021824  C 50.5700123915737 0.116913484021824  50.8550185873606 0.233826968043649  51.0780669144981 0.467653936087298  C 51.3011152416357 0.701480904130941  51.4126394052045 1.00025980774227  51 1.36399064692128  L 51 17.2642244738893  L 59.5539033457249 24.35697583788  C 59.8017348203222 24.5648220316965  59.9380421313507 24.8441153546376  59.9628252788104 25.194855806703  Z " fill-rule="nonzero" fill="url(#LinearGradient163)" stroke="none" transform="matrix(1 0 0 1 258 27 )" />
  </g>
</svg>