<?xml version="1.0" encoding="utf-8"?>
<svg version="1.1" xmlns:xlink="http://www.w3.org/1999/xlink" width="38px" height="50px" xmlns="http://www.w3.org/2000/svg">
  <defs>
    <linearGradient gradientUnits="userSpaceOnUse" x1="19" y1="0" x2="19" y2="50" id="LinearGradient166">
      <stop id="Stop167" stop-color="#dac986" offset="0" />
      <stop id="Stop168" stop-color="#c1954f" offset="1" />
    </linearGradient>
  </defs>
  <g transform="matrix(1 0 0 1 -1228 -27 )">
    <path d="M 11 25  L 34.8333333333333 25  C 35.712962962963 25  36.4606481481482 25.3038194444444  37.0763888888889 25.9114583333333  C 37.6921296296296 26.5190972222222  38 27.2569444444444  38 28.125  L 38 46.875  C 38 47.7430555555556  37.6921296296296 48.4809027777778  37.0763888888889 49.0885416666667  C 36.4606481481482 49.6961805555556  35.712962962963 50  34.8333333333333 50  L 3.16666666666667 50  C 2.28703703703704 50  1.53935185185185 49.6961805555556  0.923611111111111 49.0885416666667  C 0.30787037037037 48.4809027777778  0 47.7430555555556  0 46.875  L 0 28.125  C 0 27.2569444444444  0.30787037037037 26.5190972222222  0.923611111111111 25.9114583333333  C 1.53935185185185 25.3038194444444  2.28703703703704 25  3.16666666666667 25  L 4.22222222222222 25  L 4.22222222222222 14.5833333333333  C 4.22222222222222 10.5685763888889  5.66811342592593 7.13433159722222  8.55989583333333 4.28059895833333  C 11.4516782407407 1.42686631944445  14.931712962963 0  19 0  C 23.068287037037 0  26.5483217592593 1.42686631944445  29.4401041666667 4.28059895833333  C 32.3318865740741 7.13433159722222  33.7777777777778 10.5685763888889  33.7777777777778 14.5833333333333  C 33.7777777777778 15.1475694444444  33.5688657407407 15.6358506944444  33.1510416666667 16.0481770833333  C 32.7332175925926 16.4605034722222  32.2384259259259 16.6666666666667  31.6666666666667 16.6666666666667  L 29.5555555555556 16.6666666666667  C 28.9837962962963 16.6666666666667  28.4890046296296 16.4605034722222  28.0711805555556 16.0481770833333  C 27.6533564814815 15.6358506944444  27.4444444444444 15.1475694444444  27.4444444444444 14.5833333333333  C 27.4444444444444 12.2829861111111  26.6197916666667 10.3190104166667  24.9704861111111 8.69140625  C 23.3211805555556 7.06380208333333  21.3310185185185 6.25  19 6.25  C 16.6689814814815 6.25  14.6788194444444 7.06380208333333  13.0295138888889 8.69140625  C 11.3802083333333 10.3190104166667  10.5555555555556 12.2829861111111  11 14.5833333333333  L 11 25  Z " fill-rule="nonzero" fill="url(#LinearGradient166)" stroke="none" transform="matrix(1 0 0 1 1228 27 )" />
  </g>
</svg>