<?xml version="1.0" encoding="utf-8"?>
<svg version="1.1" xmlns:xlink="http://www.w3.org/1999/xlink" width="19px" height="15px" xmlns="http://www.w3.org/2000/svg">
  <g transform="matrix(1 0 0 1 -413 -346 )">
    <path d="M 18.5521885521886 11.2121212121212  C 18.8507295173962 11.4478114478114  19 11.7340067340067  19 12.0707070707071  C 19 12.4074074074074  18.8507295173962 12.6936026936027  18.5521885521886 12.9292929292929  L 16.3771043771044 14.6464646464646  C 16.0785634118967 14.8821548821549  15.716049382716 15  15.2895622895623 15  C 14.8630751964085 15  14.5005611672278 14.8821548821549  14.2020202020202 14.6464646464646  L 9.5 10.9343434343434  L 4.7979797979798 14.6464646464646  C 4.49943883277217 14.8821548821549  4.13692480359147 15  3.71043771043771 15  C 3.28395061728395 15  2.92143658810326 14.8821548821549  2.62289562289562 14.6464646464646  L 0.447811447811448 12.9292929292929  C 0.149270482603816 12.6936026936027  0 12.4074074074074  0 12.0707070707071  C 0 11.7340067340067  0.149270482603816 11.4478114478114  0.447811447811448 11.2121212121212  L 5.14983164983165 7.5  L 0.447811447811448 3.78787878787879  C 0.149270482603816 3.55218855218855  0 3.26599326599327  0 2.92929292929293  C 0 2.59259259259259  0.149270482603816 2.3063973063973  0.447811447811448 2.07070707070707  L 2.62289562289562 0.353535353535354  C 2.92143658810326 0.117845117845117  3.28395061728395 0  3.71043771043771 0  C 4.13692480359147 0  4.49943883277217 0.117845117845117  4.7979797979798 0.353535353535354  L 9.5 4.06565656565657  L 14.2020202020202 0.353535353535354  C 14.5005611672278 0.117845117845117  14.8630751964085 0  15.2895622895623 0  C 15.716049382716 0  16.0785634118967 0.117845117845117  16.3771043771044 0.353535353535354  L 18.5521885521886 2.07070707070707  C 18.8507295173962 2.3063973063973  19 2.59259259259259  19 2.92929292929293  C 19 3.26599326599327  18.8507295173962 3.55218855218855  18.5521885521886 3.78787878787879  L 13.8501683501683 7.5  L 18.5521885521886 11.2121212121212  Z " fill-rule="nonzero" fill="#000000" stroke="none" transform="matrix(1 0 0 1 413 346 )" />
  </g>
</svg>