<?xml version="1.0" encoding="utf-8"?>
<svg version="1.1" xmlns:xlink="http://www.w3.org/1999/xlink" width="563px" height="220px" xmlns="http://www.w3.org/2000/svg">
  <g transform="matrix(1 0 0 1 -26 -159 )">
    <path d="M 26 159  L 589 159  L 589 379  L 26 379  L 26 159  " fill-rule="nonzero" fill="#cccccc" stroke="none" />
    <path d="M 41 174  L 574 174  L 574 364  L 41 364  L 41 174  " fill-rule="nonzero" fill="#ffffff" stroke="none" />
    <path d="M 335.26 225  C 326.02 225  318.76 217.74  318.76 208.5  C 318.76 199.26  326.02 192  335.26 192  C 344.5 192  351.76 199.26  351.76 208.5  C 351.76 217.74  344.5 225  335.26 225  " fill-rule="nonzero" fill="#cccccc" stroke="none" />
    <path d="M 47 359  L 47 260.55  L 177.5 215.8  L 360.2 317.031971580817  L 464.6 242.65  L 569 317.031971580817  L 569 359  L 47 359  " fill-rule="nonzero" fill="#169bd5" stroke="none" />
  </g>
</svg>