<?xml version="1.0" encoding="utf-8"?>
<svg version="1.1" xmlns:xlink="http://www.w3.org/1999/xlink" width="563px" height="220px" xmlns="http://www.w3.org/2000/svg">
  <g transform="matrix(1 0 0 1 -26 -358 )">
    <path d="M 26 358  L 589 358  L 589 578  L 26 578  L 26 358  " fill-rule="nonzero" fill="#cccccc" stroke="none" />
    <path d="M 41 373  L 574 373  L 574 563  L 41 563  L 41 373  " fill-rule="nonzero" fill="#ffffff" stroke="none" />
    <path d="M 335.26 424  C 326.02 424  318.76 416.74  318.76 407.5  C 318.76 398.26  326.02 391  335.26 391  C 344.5 391  351.76 398.26  351.76 407.5  C 351.76 416.74  344.5 424  335.26 424  " fill-rule="nonzero" fill="#cccccc" stroke="none" />
    <path d="M 47 558  L 47 459.55  L 177.5 414.8  L 360.2 516.031971580817  L 464.6 441.65  L 569 516.031971580817  L 569 558  L 47 558  " fill-rule="nonzero" fill="#169bd5" stroke="none" />
  </g>
</svg>