<?xml version="1.0" encoding="utf-8"?>
<svg version="1.1" xmlns:xlink="http://www.w3.org/1999/xlink" width="563px" height="180px" xmlns="http://www.w3.org/2000/svg">
  <g transform="matrix(1 0 0 1 -26 -159 )">
    <path d="M 26 159  L 589 159  L 589 339  L 26 339  L 26 159  " fill-rule="nonzero" fill="#cccccc" stroke="none" />
    <path d="M 39 172  L 576 172  L 576 326  L 39 326  L 39 172  " fill-rule="nonzero" fill="#ffffff" stroke="none" />
    <path d="M 332.26 213  C 324.7 213  318.76 207.06  318.76 199.5  C 318.76 191.94  324.7 186  332.26 186  C 339.82 186  345.76 191.94  345.76 199.5  C 345.76 207.06  339.82 213  332.26 213  " fill-rule="nonzero" fill="#cccccc" stroke="none" />
    <path d="M 44 322  L 44 242.25  L 176 206  L 360.8 294.184724689165  L 466.4 227.75  L 572 294.184724689165  L 572 322  L 44 322  " fill-rule="nonzero" fill="#169bd5" stroke="none" />
  </g>
</svg>