<?xml version="1.0" encoding="utf-8"?>
<svg version="1.1" xmlns:xlink="http://www.w3.org/1999/xlink" width="31px" height="26px" xmlns="http://www.w3.org/2000/svg">
  <g transform="matrix(1 0 0 1 -958 -617 )">
    <path d="M 23.0164620535714 20.3689236111111  C 25.3287760416667 18.5407986111111  27.2518601190476 16.0844907407407  28.7857142857143 13  C 27.0327380952381 9.44907407407407  24.8357514880952 6.79340277777778  22.1947544642857 5.03298611111111  C 22.8982514880952 6.59780092592592  23.25 8.29050925925926  23.25 10.1111111111111  C 23.25 12.8946759259259  22.4917224702381 15.2757523148148  20.9751674107143 17.2543402777778  C 19.4586123511905 19.2329282407407  17.633556547619 20.2222222222222  15.5 20.2222222222222  C 13.366443452381 20.2222222222222  11.5413876488095 19.2329282407407  10.0248325892857 17.2543402777778  C 8.50827752976191 15.2757523148148  7.75 12.8946759259259  7.75 10.1111111111111  C 7.75 8.29050925925926  8.10174851190476 6.59780092592592  8.80524553571428 5.03298611111111  C 6.16424851190476 6.79340277777778  3.96726190476191 9.44907407407407  2.21428571428571 13  C 3.74813988095238 16.0844907407407  5.67122395833333 18.5407986111111  7.98353794642857 20.3689236111111  C 10.2958519345238 22.1970486111111  12.8013392857143 23.1111111111111  15.5 23.1111111111111  C 18.1986607142857 23.1111111111111  20.7041480654762 22.1970486111111  23.0164620535714 20.3689236111111  Z M 16.0881696428571 5.10069444444444  C 16.2496279761905 4.8900462962963  16.3303571428571 4.63425925925926  16.3303571428571 4.33333333333333  C 16.3303571428571 4.03240740740741  16.2496279761905 3.77662037037037  16.0881696428571 3.56597222222222  C 15.9267113095238 3.35532407407407  15.7306547619048 3.25  15.5 3.25  C 14.0584077380952 3.25  12.821521577381 3.92332175925926  11.7893415178571 5.26996527777778  C 10.7571614583333 6.6166087962963  10.2410714285714 8.23032407407407  10.2410714285714 10.1111111111111  C 10.2410714285714 10.412037037037  10.3218005952381 10.6678240740741  10.4832589285714 10.8784722222222  C 10.6447172619048 11.0891203703704  10.8407738095238 11.1944444444444  11.0714285714286 11.1944444444444  C 11.3020833333333 11.1944444444444  11.4981398809524 11.0891203703704  11.6595982142857 10.8784722222222  C 11.821056547619 10.6678240740741  11.9017857142857 10.412037037037  11.9017857142857 10.1111111111111  C 11.9017857142857 8.81712962962963  12.2535342261905 7.71122685185185  12.95703125 6.79340277777778  C 13.6605282738095 5.8755787037037  14.5081845238095 5.41666666666666  15.5 5.41666666666667  C 15.7306547619048 5.41666666666666  15.9267113095238 5.31134259259259  16.0881696428571 5.10069444444444  Z M 30.6540178571429 11.4427083333333  C 30.8846726190476 11.9693287037037  31 12.4884259259259  31 13  C 31 13.5115740740741  30.8846726190476 14.0306712962963  30.6540178571429 14.5572916666667  C 29.0394345238095 18.0179398148148  26.868396577381 20.7902199074074  24.1409040178571 22.8741319444444  C 21.4134114583333 24.9580439814815  18.5331101190476 26  15.5 26  C 12.4668898809524 26  9.58658854166667 24.9542824074074  6.85909598214286 22.8628472222222  C 4.13160342261905 20.771412037037  1.96056547619048 18.0028935185185  0.345982142857143 14.5572916666667  C 0.115327380952381 14.0306712962963  0 13.5115740740741  0 13  C 0 12.4884259259259  0.115327380952381 11.9693287037037  0.345982142857143 11.4427083333333  C 1.96056547619048 7.99710648148148  4.13160342261905 5.22858796296296  6.85909598214286 3.13715277777778  C 9.58658854166667 1.04571759259259  12.4668898809524 0  15.5 0  C 18.5331101190476 0  21.4134114583333 1.04571759259259  24.1409040178571 3.13715277777778  C 26.868396577381 5.22858796296296  29.0394345238095 7.99710648148148  30.6540178571429 11.4427083333333  Z " fill-rule="nonzero" fill="#7f7f7f" stroke="none" transform="matrix(1 0 0 1 958 617 )" />
  </g>
</svg>