<?xml version="1.0" encoding="utf-8"?>
<svg version="1.1" xmlns:xlink="http://www.w3.org/1999/xlink" width="21px" height="25px" xmlns="http://www.w3.org/2000/svg">
  <g transform="matrix(1 0 0 1 -459 -667 )">
    <path d="M 7.50213068181818 20.6868489583333  C 7.59161931818182 20.5891927083333  7.63636363636364 20.4644097222222  8 20.3125  L 8 8.85416666666667  C 7.63636363636364 8.70225694444444  7.59161931818182 8.57747395833333  7.50213068181818 8.47981770833333  C 7.41264204545455 8.38216145833333  7.29829545454546 8.33333333333333  7.15909090909091 8.33333333333333  L 6.20454545454546 8.33333333333333  C 6.06534090909091 8.33333333333333  5.95099431818182 8.38216145833333  5.86150568181818 8.47981770833333  C 5.77201704545455 8.57747395833333  5.72727272727273 8.70225694444444  6 8.85416666666667  L 6 20.3125  C 5.72727272727273 20.4644097222222  5.77201704545455 20.5891927083333  5.86150568181818 20.6868489583333  C 5.95099431818182 20.7845052083333  6.06534090909091 20.8333333333333  6.20454545454546 20.8333333333333  L 7.15909090909091 20.8333333333333  C 7.29829545454546 20.8333333333333  7.41264204545455 20.7845052083333  7.50213068181818 20.6868489583333  Z M 11.3203125 20.6868489583333  C 11.4098011363636 20.5891927083333  11.4545454545455 20.4644097222222  11.4545454545455 20.3125  L 11.4545454545455 8.85416666666667  C 11.4545454545455 8.70225694444444  11.4098011363636 8.57747395833333  11.3203125 8.47981770833333  C 11.2308238636364 8.38216145833333  11.1164772727273 8.33333333333333  10.9772727272727 8.33333333333333  L 10.0227272727273 8.33333333333333  C 9.88352272727273 8.33333333333333  9.76917613636364 8.38216145833333  9.6796875 8.47981770833333  C 9.59019886363636 8.57747395833333  9.54545454545455 8.70225694444444  9.54545454545455 8.85416666666667  L 9.54545454545455 20.3125  C 9.54545454545455 20.4644097222222  9.59019886363636 20.5891927083333  9.6796875 20.6868489583333  C 9.76917613636364 20.7845052083333  9.88352272727273 20.8333333333333  10.0227272727273 20.8333333333333  L 10.9772727272727 20.8333333333333  C 11.1164772727273 20.8333333333333  11.2308238636364 20.7845052083333  11.3203125 20.6868489583333  Z M 15.1384943181818 20.6868489583333  C 15.2279829545455 20.5891927083333  15.2727272727273 20.4644097222222  15 20.3125  L 15 8.85416666666667  C 15.2727272727273 8.70225694444444  15.2279829545455 8.57747395833333  15.1384943181818 8.47981770833333  C 15.0490056818182 8.38216145833333  14.9346590909091 8.33333333333333  14.7954545454545 8.33333333333333  L 13.8409090909091 8.33333333333333  C 13.7017045454545 8.33333333333333  13.5873579545455 8.38216145833333  13.4978693181818 8.47981770833333  C 13.4083806818182 8.57747395833333  13.3636363636364 8.70225694444444  13 8.85416666666667  L 13 20.3125  C 13.3636363636364 20.4644097222222  13.4083806818182 20.5891927083333  13.4978693181818 20.6868489583333  C 13.5873579545455 20.7845052083333  13.7017045454545 20.8333333333333  13.8409090909091 20.8333333333333  L 14.7954545454545 20.8333333333333  C 14.9346590909091 20.8333333333333  15.0490056818182 20.7845052083333  15.1384943181818 20.6868489583333  Z M 7.88991477272727 2.26236979166667  L 7.15909090909091 4.16666666666667  L 13.8409090909091 4.16666666666667  L 13.125 2.26236979166667  C 13.0553977272727 2.16471354166667  12.9708806818182 2.10503472222222  12.8714488636364 2.08333333333333  L 8.14346590909091 2.08333333333333  C 8.04403409090909 2.10503472222222  7.95951704545455 2.16471354166667  7.88991477272727 2.26236979166667  Z M 20.8657670454545 4.31315104166667  C 20.9552556818182 4.41080729166667  21 4.53559027777778  21 4.6875  L 21 5.72916666666667  C 21 5.88107638888889  20.9552556818182 6.005859375  20.8657670454545 6.103515625  C 20.7762784090909 6.201171875  20.6619318181818 6.25  20.5227272727273 6.25  L 19 6.25  L 19 21.6796875  C 19.0909090909091 22.5802951388889  18.8572443181818 23.3588324652778  18.3899147727273 24.0152994791667  C 17.9225852272727 24.6717664930556  17.3607954545455 25  16.7045454545455 25  L 4.29545454545455 25  C 3.63920454545455 25  3.07741477272727 24.6826171875  2.61008522727273 24.0478515625  C 2.14275568181818 23.4130859375  1.90909090909091 22.6453993055556  2 21.7447916666667  L 2 6.25  L 0.477272727272727 6.25  C 0.338068181818182 6.25  0.223721590909091 6.201171875  0.134232954545455 6.103515625  C 0.0447443181818182 6.005859375  0 5.88107638888889  0 5.72916666666667  L 0 4.6875  C 0 4.53559027777778  0.0447443181818182 4.41080729166667  0.134232954545455 4.31315104166667  C 0.223721590909091 4.21549479166667  0.338068181818182 4.16666666666667  0.477272727272727 4.16666666666667  L 5.0859375 4.16666666666667  L 6.12997159090909 1.44856770833333  C 6.27911931818182 1.04709201388889  6.54758522727273 0.705295138888887  6.93536931818182 0.423177083333334  C 7.32315340909091 0.141059027777776  7.71590909090909 0  8.11363636363636 0  L 12.8863636363636 0  C 13.2840909090909 0  13.6768465909091 0.141059027777776  14.0646306818182 0.423177083333334  C 14.4524147727273 0.705295138888887  14.7208806818182 1.04709201388889  14.8700284090909 1.44856770833333  L 15.9140625 4.16666666666667  L 20.5227272727273 4.16666666666667  C 20.6619318181818 4.16666666666667  20.7762784090909 4.21549479166667  20.8657670454545 4.31315104166667  Z " fill-rule="nonzero" fill="#000000" stroke="none" transform="matrix(1 0 0 1 459 667 )" />
  </g>
</svg>