<?xml version="1.0" encoding="utf-8"?>
<svg version="1.1" xmlns:xlink="http://www.w3.org/1999/xlink" width="42px" height="43px" xmlns="http://www.w3.org/2000/svg">
  <g transform="matrix(1 0 0 1 -216 -643 )">
    <path d="M 237 643  C 248.76 643  258 652.46  258 664.5  C 258 676.54  248.76 686  237 686  C 225.24 686  216 676.54  216 664.5  C 216 652.46  225.24 643  237 643  Z " fill-rule="nonzero" fill="#f59a23" stroke="none" />
    <path d="M 237 643.5  C 248.48 643.5  257.5 652.74  257.5 664.5  C 257.5 676.26  248.48 685.5  237 685.5  C 225.52 685.5  216.5 676.26  216.5 664.5  C 216.5 652.74  225.52 643.5  237 643.5  Z " stroke-width="1" stroke="#797979" fill="none" />
  </g>
</svg>