<?xml version="1.0" encoding="utf-8"?>
<svg version="1.1" xmlns:xlink="http://www.w3.org/1999/xlink" width="19px" height="28px" xmlns="http://www.w3.org/2000/svg">
  <g transform="matrix(1 0 0 1 -391 -49 )">
    <path d="M 18.0267260579065 7.11778846153846  C 18.2947290274684 7.11778846153846  18.5345211581292 7.20192307692308  18.7461024498886 7.37019230769231  C 19 7.59455128205128  19.0493689680772 7.84134615384615  18.8942093541203 8.11057692307692  L 7.46881959910913 27.5793269230769  C 7.28544914625093 27.8597756410256  6.98923533778768 28  6.58017817371938 28  C 6.52375649591685 28  6.42501855976244 27.9887820512821  6.28396436525613 27.9663461538462  C 6.0441722345954 27.9102564102564  5.86432813659985 27.8036858974359  5.74443207126949 27.6466346153846  C 5.62453600593912 27.4895833333333  5.59279881217521 27.3213141025641  5.64922048997773 27.1418269230769  L 9.8173719376392 13.5456730769231  L 1.2271714922049 15.2451923076923  C 1.17074981440238 15.2564102564103  1.08611729769859 15.2620192307692  0.973273942093541 15.2620192307692  C 0.719376391982183 15.2620192307692  0.500742390497402 15.2003205128205  0.317371937639198 15.0769230769231  C 0.0634743875278396 14.9086538461538  -0.0282108389012621 14.6899038461538  0.0423162583518931 14.4206730769231  L 4.29510022271715 0.53846153846154  C 4.35152190051967 0.381410256410255  4.46436525612472 0.252403846153848  4.63363028953229 0.151442307692308  C 4.80289532293987 0.0504807692307683  5.0003711952487 0  5.2260579064588 0  L 12.1659242761693 0  C 12.4339272457313 0  12.6596139569414 0.0701121794871757  12.8429844097996 0.21033653846154  C 13.0263548626578 0.350560897435897  13.1180400890869 0.516025641025639  13.1180400890869 0.706730769230768  C 13.1180400890869 0.796474358974358  13.0827765404603 0.897435897435897  13.0122494432071 1.00961538461538  L 9.39420935412027 8.80048076923077  L 17.7728285077951 7.15144230769231  C 17.8856718634001 7.12900641025641  17.9703043801039 7.11778846153846  18.0267260579065 7.11778846153846  Z " fill-rule="nonzero" fill="#aaaaaa" stroke="none" transform="matrix(1 0 0 1 391 49 )" />
  </g>
</svg>