<?xml version="1.0" encoding="utf-8"?>
<svg version="1.1" xmlns:xlink="http://www.w3.org/1999/xlink" width="16px" height="17px" xmlns="http://www.w3.org/2000/svg">
  <g transform="matrix(1 0 0 1 -17 -60 )">
    <path d="M 15.7250859106529 1.02204408817635  C 15.9083619702176 1.13560454241817  16 1.26619906479626  16 1.41382765531062  C 16 1.56145624582498  15.9083619702176 1.69205076820307  15.7250859106529 1.80561122244489  L 4.92096219931272 8.5  L 15.7250859106529 15.1943887775551  C 15.9083619702176 15.3079492317969  16 15.438543754175  16 15.5861723446894  C 16 15.7338009352037  15.9083619702176 15.8643954575818  15.7250859106529 15.9779559118236  L 14.3505154639175 16.8296593186373  C 14.1672394043528 16.9432197728791  13.9564719358534 17  13.7182130584192 17  C 13.4799541809851 17  13.2691867124857 16.9432197728791  13.085910652921 16.8296593186373  L 0.274914089347079 8.89178356713427  C 0.0916380297823597 8.77822311289245  0 8.64762859051436  0 8.5  C 0 8.35237140948564  0.0916380297823597 8.22177688710755  0.274914089347079 8.10821643286573  L 13.085910652921 0.170340681362726  C 13.2691867124857 0.0567802271209079  13.4799541809851 0  13.7182130584192 0  C 13.9564719358534 0  14.1672394043528 0.0567802271209079  14.3505154639175 0.170340681362726  L 15.7250859106529 1.02204408817635  Z " fill-rule="nonzero" fill="#d7d7d7" stroke="none" transform="matrix(1 0 0 1 17 60 )" />
  </g>
</svg>