<?xml version="1.0" encoding="utf-8"?>
<svg version="1.1" xmlns:xlink="http://www.w3.org/1999/xlink" width="273px" height="155px" xmlns="http://www.w3.org/2000/svg">
  <g transform="matrix(1 0 0 1 -20 -986 )">
    <path d="M 20 986  L 293 986  L 293 1141  L 20 1141  L 20 986  " fill-rule="nonzero" fill="#cccccc" stroke="none" />
    <path d="M 31 997  L 282 997  L 282 1130  L 31 1130  L 31 997  " fill-rule="nonzero" fill="#ffffff" stroke="none" />
    <path d="M 173.585 1032.5  C 167.075 1032.5  161.96 1027.385  161.96 1020.875  C 161.96 1014.365  167.075 1009.25  173.585 1009.25  C 180.095 1009.25  185.21 1014.365  185.21 1020.875  C 185.21 1027.385  180.095 1032.5  173.585 1032.5  " fill-rule="nonzero" fill="#cccccc" stroke="none" />
    <path d="M 35 1126  L 35 1057.25  L 95.75 1026  L 180.8 1083.41758241758  L 229.4 1044.75  L 278 1083.41758241758  L 278 1126  L 35 1126  " fill-rule="nonzero" fill="#169bd5" stroke="none" />
  </g>
</svg>