<?xml version="1.0" encoding="utf-8"?>
<svg version="1.1" xmlns:xlink="http://www.w3.org/1999/xlink" width="25px" height="29px" xmlns="http://www.w3.org/2000/svg">
  <g transform="matrix(1 0 0 1 -2347 -129 )">
    <path d="M 24.4107744107744 21.6767676767677  C 24.8035914702581 22.1324354657688  25 22.685746352413  25 23.3367003367003  C 25 23.9876543209877  24.8035914702581 24.5409652076319  24.4107744107744 24.996632996633  L 21.5488215488215 28.3164983164983  C 21.1560044893378 28.7721661054994  20.679012345679 29  20.1178451178451 29  C 19.5566778900112 29  19.0796857463524 28.7721661054994  18.6868686868687 28.3164983164983  L 12.5 21.1397306397306  L 6.31313131313131 28.3164983164983  C 5.92031425364759 28.7721661054994  5.44332210998878 29  4.88215488215488 29  C 4.32098765432099 29  3.84399551066218 28.7721661054994  3.45117845117845 28.3164983164983  L 0.589225589225589 24.996632996633  C 0.196408529741863 24.5409652076319  0 23.9876543209877  0 23.3367003367003  C 0 22.685746352413  0.196408529741863 22.1324354657688  0.589225589225589 21.6767676767677  L 6.77609427609428 14.5  L 0.589225589225589 7.32323232323232  C 0.196408529741863 6.8675645342312  0 6.31425364758698  0 5.66329966329966  C 0 5.01234567901235  0.196408529741863 4.45903479236812  0.589225589225589 4.003367003367  L 3.45117845117845 0.683501683501684  C 3.84399551066218 0.22783389450056  4.32098765432099 0  4.88215488215488 0  C 5.44332210998878 0  5.92031425364759 0.22783389450056  6.31313131313131 0.683501683501684  L 12.5 7.86026936026936  L 18.6868686868687 0.683501683501684  C 19.0796857463524 0.22783389450056  19.5566778900112 0  20.1178451178451 0  C 20.679012345679 0  21.1560044893378 0.22783389450056  21.5488215488215 0.683501683501684  L 24.4107744107744 4.003367003367  C 24.8035914702581 4.45903479236812  25 5.01234567901235  25 5.66329966329966  C 25 6.31425364758698  24.8035914702581 6.8675645342312  24.4107744107744 7.32323232323232  L 18.2239057239057 14.5  L 24.4107744107744 21.6767676767677  Z " fill-rule="nonzero" fill="#000000" stroke="none" transform="matrix(1 0 0 1 2347 129 )" />
  </g>
</svg>