<?xml version="1.0" encoding="utf-8"?>
<svg version="1.1" xmlns:xlink="http://www.w3.org/1999/xlink" width="12px" height="12px" viewBox="836 309.5  12 12" xmlns="http://www.w3.org/2000/svg">
  <path d="M 842 309.5  C 845.36 309.5  848 312.14  848 315.5  C 848 318.86  845.36 321.5  842 321.5  C 838.64 321.5  836 318.86  836 315.5  C 836 312.14  838.64 309.5  842 309.5  Z " fill-rule="nonzero" fill="#ffffff" stroke="none" />
  <path d="M 842 310  C 845.08 310  847.5 312.42  847.5 315.5  C 847.5 318.58  845.08 321  842 321  C 838.92 321  836.5 318.58  836.5 315.5  C 836.5 312.42  838.92 310  842 310  Z " stroke-width="1" stroke="#797979" fill="none" />
  <path d="M 842 318.5  C 840.32 318.5  839 317.18  839 315.5  C 839 313.82  840.32 312.5  842 312.5  C 843.68 312.5  845 313.82  845 315.5  C 845 317.18  843.68 318.5  842 318.5  " fill-rule="nonzero" fill="#797979" stroke="none" />
</svg>