<?xml version="1.0" encoding="utf-8"?>
<svg version="1.1" xmlns:xlink="http://www.w3.org/1999/xlink" width="205px" height="137px" xmlns="http://www.w3.org/2000/svg">
  <g transform="matrix(1 0 0 1 -48 -767 )">
    <path d="M 48 767  L 253 767  L 253 904  L 48 904  L 48 767  " fill-rule="nonzero" fill="#cccccc" stroke="none" />
    <path d="M 58 777  L 243 777  L 243 894  L 58 894  L 58 777  " fill-rule="nonzero" fill="#ffffff" stroke="none" />
    <path d="M 164.875 808.1  C 159.121 808.1  154.6 803.579  154.6 797.825  C 154.6 792.071  159.121 787.55  164.875 787.55  C 170.629 787.55  175.15 792.071  175.15 797.825  C 175.15 803.579  170.629 808.1  164.875 808.1  " fill-rule="nonzero" fill="#cccccc" stroke="none" />
    <path d="M 62 891  L 62 830.5  L 106.5 803  L 168.8 846.892682926829  L 204.4 819.5  L 240 846.892682926829  L 240 891  L 62 891  " fill-rule="nonzero" fill="#169bd5" stroke="none" />
  </g>
</svg>