<?xml version="1.0" encoding="utf-8"?>
<svg version="1.1" xmlns:xlink="http://www.w3.org/1999/xlink" width="190px" height="132px" xmlns="http://www.w3.org/2000/svg">
  <g transform="matrix(1 0 0 1 -351 -766 )">
    <path d="M 351 766  L 541 766  L 541 898  L 351 898  L 351 766  " fill-rule="nonzero" fill="#cccccc" stroke="none" />
    <path d="M 360 775  L 532 775  L 532 889  L 360 889  L 360 775  " fill-rule="nonzero" fill="#ffffff" stroke="none" />
    <path d="M 459.7 805.6  C 454.156 805.6  449.8 801.244  449.8 795.7  C 449.8 790.156  454.156 785.8  459.7 785.8  C 465.244 785.8  469.6 790.156  469.6 795.7  C 469.6 801.244  465.244 805.6  459.7 805.6  " fill-rule="nonzero" fill="#cccccc" stroke="none" />
    <path d="M 364 886  L 364 827.15  L 405.25 800.4  L 463 841.397894736842  L 496 816.45  L 529 841.397894736842  L 529 886  L 364 886  " fill-rule="nonzero" fill="#169bd5" stroke="none" />
  </g>
</svg>