<?xml version="1.0" encoding="utf-8"?>
<svg version="1.1" xmlns:xlink="http://www.w3.org/1999/xlink" width="21px" height="17px" xmlns="http://www.w3.org/2000/svg">
  <g transform="matrix(1 0 0 1 -223 -658 )">
    <path d="M 16.39453125 10.0162760416667  C 16.46484375 10.0826822916667  16.5 10.1675347222222  16.5 10.2708333333333  L 16.5 13.8125  C 16.5 14.6905381944444  16.169921875 15.4412977430556  15.509765625 16.0647786458333  C 14.849609375 16.6882595486111  14.0546875 17  13.125 17  L 3.375 17  C 2.4453125 17  1.650390625 16.6882595486111  0.990234375 16.0647786458333  C 0.330078125 15.4412977430556  0 14.6905381944444  0 13.8125  L 0 4.60416666666667  C 0 3.72612847222222  0.330078125 2.97536892361111  0.990234375 2.35188802083333  C 1.650390625 1.72840711805555  2.4453125 1.41666666666667  3.375 1.41666666666667  L 11.625 1.41666666666667  C 11.734375 1.41666666666667  11.82421875 1.44986979166667  11.89453125 1.51627604166667  C 11.96484375 1.58268229166667  12 1.66753472222222  12 1.77083333333333  L 12 2.47916666666667  C 12 2.58246527777778  11.96484375 2.66731770833333  11.89453125 2.73372395833333  C 11.82421875 2.80013020833333  11.734375 2.83333333333333  11.625 2.83333333333333  L 3.375 2.83333333333333  C 2.859375 2.83333333333333  2.41796875 3.00672743055555  2.05078125 3.353515625  C 1.68359375 3.70030381944444  1.5 4.1171875  1.5 4.60416666666667  L 1.5 13.8125  C 1.5 14.2994791666667  1.68359375 14.7163628472222  2.05078125 15.0631510416667  C 2.41796875 15.4099392361111  2.859375 15.5833333333333  3.375 15.5833333333333  L 13.125 15.5833333333333  C 13.640625 15.5833333333333  14.08203125 15.4099392361111  14.44921875 15.0631510416667  C 14.81640625 14.7163628472222  15 14.2994791666667  15 13.8125  L 15 10.2708333333333  C 15 10.1675347222222  15.03515625 10.0826822916667  15.10546875 10.0162760416667  C 15.17578125 9.94986979166667  15.265625 9.91666666666667  15.375 9.91666666666667  L 16.125 9.91666666666667  C 16.234375 9.91666666666667  16.32421875 9.94986979166667  16.39453125 10.0162760416667  Z M 20.77734375 0.210286458333333  C 20.92578125 0.350477430555553  21 0.516493055555553  21 0.708333333333333  L 21 6.375  C 21 6.56684027777778  20.92578125 6.73285590277778  20.77734375 6.873046875  C 20.62890625 7.01323784722222  20.453125 7.08333333333333  20.25 7.08333333333333  C 20.046875 7.08333333333333  19.87109375 7.01323784722222  19.72265625 6.873046875  L 17.66015625 4.92513020833333  L 10.01953125 12.1412760416667  C 9.94140625 12.2150607638889  9.8515625 12.251953125  9.75 12.251953125  C 9.6484375 12.251953125  9.55859375 12.2150607638889  9.48046875 12.1412760416667  L 8.14453125 10.8795572916667  C 8.06640625 10.8057725694444  8.02734375 10.7209201388889  8.02734375 10.625  C 8.02734375 10.5290798611111  8.06640625 10.4442274305556  8.14453125 10.3704427083333  L 15.78515625 3.154296875  L 13.72265625 1.20638020833333  C 13.57421875 1.06618923611111  13.5 0.90017361111111  13.5 0.708333333333333  C 13.5 0.516493055555553  13.57421875 0.350477430555553  13.72265625 0.210286458333333  C 13.87109375 0.0700954861111122  14.046875 0  14.25 0  L 20.25 0  C 20.453125 0  20.62890625 0.0700954861111122  20.77734375 0.210286458333333  Z " fill-rule="nonzero" fill="#000000" stroke="none" transform="matrix(1 0 0 1 223 658 )" />
  </g>
</svg>