<?xml version="1.0" encoding="utf-8"?>
<svg version="1.1" xmlns:xlink="http://www.w3.org/1999/xlink" width="12px" height="12px" viewBox="585 256.5  12 12" xmlns="http://www.w3.org/2000/svg">
  <path d="M 591 256.5  C 594.36 256.5  597 259.14  597 262.5  C 597 265.86  594.36 268.5  591 268.5  C 587.64 268.5  585 265.86  585 262.5  C 585 259.14  587.64 256.5  591 256.5  Z " fill-rule="nonzero" fill="#ffffff" stroke="none" />
  <path d="M 591 257  C 594.08 257  596.5 259.42  596.5 262.5  C 596.5 265.58  594.08 268  591 268  C 587.92 268  585.5 265.58  585.5 262.5  C 585.5 259.42  587.92 257  591 257  Z " stroke-width="1" stroke="#797979" fill="none" />
  <path d="M 591 265.5  C 589.32 265.5  588 264.18  588 262.5  C 588 260.82  589.32 259.5  591 259.5  C 592.68 259.5  594 260.82  594 262.5  C 594 264.18  592.68 265.5  591 265.5  " fill-rule="nonzero" fill="#797979" stroke="none" />
</svg>