<?xml version="1.0" encoding="utf-8"?>
<svg version="1.1" xmlns:xlink="http://www.w3.org/1999/xlink" width="12px" height="12px" viewBox="736 259.5  12 12" xmlns="http://www.w3.org/2000/svg">
  <path d="M 742 259.5  C 745.36 259.5  748 262.14  748 265.5  C 748 268.86  745.36 271.5  742 271.5  C 738.64 271.5  736 268.86  736 265.5  C 736 262.14  738.64 259.5  742 259.5  Z " fill-rule="nonzero" fill="#ffffff" stroke="none" />
  <path d="M 742 260  C 745.08 260  747.5 262.42  747.5 265.5  C 747.5 268.58  745.08 271  742 271  C 738.92 271  736.5 268.58  736.5 265.5  C 736.5 262.42  738.92 260  742 260  Z " stroke-width="1" stroke="#797979" fill="none" />
  <path d="M 742 268.5  C 740.32 268.5  739 267.18  739 265.5  C 739 263.82  740.32 262.5  742 262.5  C 743.68 262.5  745 263.82  745 265.5  C 745 267.18  743.68 268.5  742 268.5  " fill-rule="nonzero" fill="#797979" stroke="none" />
</svg>