<?xml version="1.0" encoding="utf-8"?>
<svg version="1.1" xmlns:xlink="http://www.w3.org/1999/xlink" width="12px" height="12px" viewBox="636 259.5  12 12" xmlns="http://www.w3.org/2000/svg">
  <path d="M 642 259.5  C 645.36 259.5  648 262.14  648 265.5  C 648 268.86  645.36 271.5  642 271.5  C 638.64 271.5  636 268.86  636 265.5  C 636 262.14  638.64 259.5  642 259.5  Z " fill-rule="nonzero" fill="#ffffff" stroke="none" />
  <path d="M 642 260  C 645.08 260  647.5 262.42  647.5 265.5  C 647.5 268.58  645.08 271  642 271  C 638.92 271  636.5 268.58  636.5 265.5  C 636.5 262.42  638.92 260  642 260  Z " stroke-width="1" stroke="#797979" fill="none" />
  <path d="M 642 268.5  C 640.32 268.5  639 267.18  639 265.5  C 639 263.82  640.32 262.5  642 262.5  C 643.68 262.5  645 263.82  645 265.5  C 645 267.18  643.68 268.5  642 268.5  " fill-rule="nonzero" fill="#797979" stroke="none" />
</svg>